<svg xmlns="http://www.w3.org/2000/svg" viewBox="0 0 750 500"><g id="freepik--background-complete--inject-153"><path d="M629.83,335.06l16.73-.29c5.53-.1,11-.16,16.49-.17l-.45.46,0-11.19.49.5-16.61-.07c-5.53,0-11.07-.13-16.61-.19l.25-.24Zm0,0-.24-11.19v-.25h.25c5.54-.06,11.08-.16,16.61-.19l16.61-.06h.51v.51l0,11.19v.45h-.46c-5.59,0-11.18-.07-16.73-.16Z" style="fill:#ebebeb"></path><rect x="648.37" y="337.98" width="33.22" height="11.19" transform="translate(1329.95 687.14) rotate(180)" style="fill:#ebebeb"></rect><rect x="217.81" y="208.83" width="33.22" height="11.19" transform="translate(468.84 428.85) rotate(180)" style="fill:#ebebeb"></rect><path d="M236.34,234.13l16.73-.29c5.53-.09,11-.16,16.49-.16l-.45.45-.05-11.19.5.5L253,223.37c-5.53,0-11.07-.12-16.61-.18l.25-.25Zm0,0-.24-11.19v-.24h.25c5.54-.06,11.08-.16,16.61-.18l16.61-.07h.5v.5l0,11.19v.45h-.46c-5.59,0-11.18-.07-16.73-.16Z" style="fill:#ebebeb"></path><rect x="440.6" y="389.25" width="33.22" height="11.19" transform="translate(914.42 789.69) rotate(180)" style="fill:#ebebeb"></rect><path d="M254.8,220l16.73-.29c5.53-.09,11-.16,16.49-.16l-.45.45-.05-11.19.5.5-16.61-.07c-5.54,0-11.07-.12-16.61-.18l.25-.25Zm0,0-.25-11.19v-.24h.25c5.54-.06,11.07-.16,16.61-.18l16.61-.07h.5v.5l0,11.19v.45H288c-5.59,0-11.18-.07-16.73-.16Z" style="fill:#ebebeb"></path><path d="M68.41,349.17l16.73-.29c5.53-.1,11-.16,16.49-.17l-.45.46,0-11.19.49.49L85,338.41c-5.53,0-11.07-.13-16.61-.19l.25-.24Zm0,0L68.17,338v-.25h.25c5.54-.06,11.08-.16,16.61-.19l16.61-.06h.51V338l0,11.19v.45h-.46c-5.59,0-11.18-.07-16.73-.16Z" style="fill:#ebebeb"></path><path d="M87,65.49l16.73-.29c5.52-.1,11-.16,16.49-.17l-.46.46,0-11.19.5.5-16.61-.07C98,54.7,92.48,54.6,87,54.54l.24-.24Zm0,0L86.7,54.3v-.25H87c5.53-.06,11.07-.16,16.61-.19l16.61-.06h.5v.51l0,11.19v.45h-.45c-5.6,0-11.19-.07-16.73-.16Z" style="fill:#ebebeb"></path><rect x="68.41" y="68.41" width="33.22" height="11.19" transform="translate(170.05 148) rotate(180)" style="fill:#ebebeb"></rect><rect x="463.5" y="119.08" width="33.22" height="11.19" transform="translate(960.22 249.35) rotate(180)" style="fill:#ebebeb"></rect><path d="M445,144.38l16.73-.29c5.53-.09,11-.16,16.49-.16l-.46.45,0-11.19.5.5-16.61-.07c-5.54,0-11.07-.12-16.61-.18l.25-.25Zm0,0-.25-11.19V133H445c5.54-.06,11.07-.16,16.61-.18l16.61-.07h.5v.5l-.05,11.19v.45h-.45c-5.59,0-11.19-.07-16.73-.16Z" style="fill:#ebebeb"></path><path d="M648.37,65.49l16.73-.29c5.52-.1,11-.16,16.49-.17l-.46.46,0-11.19.5.5L665,54.73c-5.54,0-11.08-.13-16.61-.19l.24-.24Zm0,0-.25-11.19v-.25h.26c5.53-.06,11.07-.16,16.61-.19l16.61-.06h.5v.51L682,65.49v.45h-.45c-5.6,0-11.19-.07-16.73-.16Z" style="fill:#ebebeb"></path><polygon points="304.47 339.03 307.22 355.55 325.89 456.36 328.9 456.36 315.33 355.55 313.32 339.03 304.47 339.03" style="fill:#dbdbdb"></polygon><polygon points="313.32 339.03 304.47 339.03 307.22 355.55 315.33 355.55 313.32 339.03" style="fill:#c7c7c7"></polygon><polygon points="245.85 456.36 248.86 456.36 267.52 355.55 270.28 339.03 261.43 339.03 259.42 355.55 245.85 456.36" style="fill:#dbdbdb"></polygon><polygon points="261.43 339.03 259.42 355.55 267.52 355.55 270.28 339.03 261.43 339.03" style="fill:#c7c7c7"></polygon><polygon points="189.86 456.36 192.87 456.36 211.53 355.55 214.29 339.03 205.44 339.03 203.43 355.55 189.86 456.36" style="fill:#dbdbdb"></polygon><polygon points="203.43 355.55 211.53 355.55 214.29 339.03 205.44 339.03 203.43 355.55" style="fill:#c7c7c7"></polygon><polygon points="194.63 346.79 331.42 346.79 331.42 332.38 280.21 332.38 263 232.25 199.84 232.25 194.63 346.79" style="fill:#dbdbdb"></polygon><polygon points="194.63 346.79 202.09 346.79 206.94 232.25 199.84 232.25 194.63 346.79" style="fill:#c7c7c7"></polygon><rect x="54.95" y="114.07" width="111.82" height="6.64" transform="translate(221.73 234.79) rotate(180)" style="fill:#ebebeb"></rect><rect x="151.64" y="120.72" width="6.64" height="21.96" style="fill:#ebebeb"></rect><rect x="151.64" y="120.72" width="6.64" height="6.79" style="fill:#dbdbdb"></rect><rect x="63.44" y="120.72" width="6.64" height="21.96" style="fill:#ebebeb"></rect><rect x="63.44" y="120.72" width="6.64" height="6.79" style="fill:#dbdbdb"></rect><rect x="112.03" y="87.59" width="42.32" height="10.66" transform="translate(226.1 -40.27) rotate(90)" style="fill:#c7c7c7"></rect><rect x="130.86" y="66.49" width="4.65" height="10.66" transform="translate(205.01 -61.36) rotate(90)" style="fill:#dbdbdb"></rect><rect x="132.32" y="75.64" width="1.73" height="10.66" transform="translate(214.15 -52.22) rotate(90)" style="fill:#dbdbdb"></rect><rect x="130.2" y="100.21" width="4.65" height="11.98" transform="translate(238.72 -26.32) rotate(90)" style="fill:#dbdbdb"></rect><rect x="99.45" y="85.67" width="49.36" height="7.45" transform="translate(213.53 -34.74) rotate(90)" style="fill:#dbdbdb"></rect><rect x="114.67" y="76.61" width="18.99" height="4.47" transform="translate(203.01 -45.32) rotate(90)" style="fill:#ebebeb"></rect><rect x="62.91" y="90.36" width="49.36" height="7.45" transform="translate(216.03 99.42) rotate(135.33)" style="fill:#c7c7c7"></rect><rect x="75.52" y="94.37" width="18.99" height="4.47" transform="translate(213.39 105.54) rotate(135.33)" style="fill:#dbdbdb"></rect><rect x="95.34" y="89.01" width="37.49" height="12.65" transform="translate(209.43 -18.75) rotate(90)" style="fill:#a6a6a6"></rect><rect x="112.34" y="102.04" width="3.49" height="12.65" transform="translate(222.45 -5.73) rotate(90)" style="fill:#c7c7c7"></rect><rect x="113.41" y="97.32" width="1.36" height="12.65" transform="translate(217.73 -10.45) rotate(90)" style="fill:#c7c7c7"></rect><rect x="125.26" y="92.1" width="35.24" height="8.74" transform="translate(239.35 -46.42) rotate(90)" style="fill:#a6a6a6"></rect><rect x="141.24" y="104.34" width="3.28" height="8.74" transform="translate(251.59 -34.18) rotate(90)" style="fill:#c7c7c7"></rect><rect x="141.24" y="83.38" width="3.28" height="8.74" transform="translate(230.63 -55.13) rotate(90)" style="fill:#c7c7c7"></rect><rect x="142.24" y="87.91" width="1.27" height="8.74" transform="translate(235.16 -50.6) rotate(90)" style="fill:#c7c7c7"></rect><circle cx="317.72" cy="118.37" r="29.73" transform="translate(9.36 259.33) rotate(-45)" style="fill:#ebebeb"></circle><circle cx="319.08" cy="119.03" r="28.36" transform="translate(89.58 370.64) rotate(-68.09)" style="fill:#dbdbdb"></circle><circle cx="319.08" cy="119.03" r="26.57" transform="translate(-8.7 26.61) rotate(-4.71)" style="fill:#fff"></circle><path d="M345.06,113.39c-12.1,7.33-32,19.36-43.11,26a26.59,26.59,0,0,1-7.26-9.76l36.76-34.07A26.59,26.59,0,0,1,345.06,113.39Z" style="fill:#ebebeb;opacity:0.5"></path><path d="M345.64,120a26.33,26.33,0,0,1-1.76,8.63l-33.14,15.68a28.28,28.28,0,0,1-4.19-1.8C316.57,136.68,334.86,126.16,345.64,120Z" style="fill:#ebebeb;opacity:0.5"></path><rect x="318.83" y="94.38" width="0.51" height="4.03" style="fill:#c7c7c7"></rect><rect x="307.51" y="97.42" width="0.51" height="4.03" transform="translate(-8.49 167.18) rotate(-30)" style="fill:#c7c7c7"></rect><rect x="299.23" y="105.7" width="0.51" height="4.03" transform="translate(56.45 313.21) rotate(-60)" style="fill:#c7c7c7"></rect><rect x="294.44" y="118.77" width="4.03" height="0.51" style="fill:#c7c7c7"></rect><rect x="297.47" y="130.09" width="4.03" height="0.51" transform="translate(-25.04 167.27) rotate(-30.01)" style="fill:#c7c7c7"></rect><rect x="305.76" y="138.37" width="4.03" height="0.51" transform="translate(33.92 335.98) rotate(-60.03)" style="fill:#c7c7c7"></rect><rect x="318.83" y="139.65" width="0.51" height="4.03" style="fill:#c7c7c7"></rect><rect x="330.14" y="136.61" width="0.51" height="4.03" transform="translate(-25.05 183.77) rotate(-30)" style="fill:#c7c7c7"></rect><rect x="338.43" y="128.33" width="0.51" height="4.03" transform="translate(56.44 358.45) rotate(-59.99)" style="fill:#c7c7c7"></rect><rect x="339.7" y="118.77" width="4.03" height="0.51" style="fill:#c7c7c7"></rect><rect x="336.67" y="107.46" width="4.03" height="0.51" transform="translate(-8.46 183.87) rotate(-30.02)" style="fill:#c7c7c7"></rect><rect x="328.39" y="99.17" width="4.03" height="0.51" transform="translate(79.21 335.97) rotate(-60.03)" style="fill:#c7c7c7"></rect><polygon points="319.47 96.21 320.35 120.82 317.82 120.79 318.79 96.2 319.47 96.21" style="fill:#c7c7c7"></polygon><polygon points="334.8 110.44 318.24 121.02 317.04 118.8 334.48 109.84 334.8 110.44" style="fill:#a6a6a6"></polygon><path d="M320,119a.87.87,0,1,1-.87-.86A.87.87,0,0,1,320,119Z" style="fill:#c7c7c7"></path></g><g id="freepik--character-3--inject-153"><rect x="587.59" y="236.48" width="74.61" height="15.45" style="fill:#c7c7c7"></rect><polygon points="607.61 251.81 605.52 271.55 579.73 456.4 572.36 456.4 592.71 271.55 594.37 251.81 607.61 251.81" style="fill:#c7c7c7"></polygon><polygon points="677.45 456.4 670.06 456.4 644.27 271.55 642.18 251.81 655.42 251.81 657.08 271.55 677.45 456.4" style="fill:#c7c7c7"></polygon><rect x="582.7" y="373.59" width="82.3" height="4.64" style="fill:#c7c7c7"></rect><polygon points="592.71 270.85 605.52 270.85 607.61 251.81 594.37 251.81 592.71 270.85" style="fill:#a6a6a6"></polygon><polygon points="657.08 270.85 644.27 270.85 642.18 251.81 655.42 251.81 657.08 270.85" style="fill:#a6a6a6"></polygon><path d="M559.28,400.3c2.5-.31,64.14-29.71,65.78-32.31.63-1-3.13-10.21-8-21.24-1.05-2.38-2.15-4.83-3.28-7.31-7.31-16.13-15.44-33.07-15.44-33.07l-41.29,19.54,16.58,32.54,3.63,7.14s-18.57,21.81-20.06,24.86S556.78,400.6,559.28,400.3Z" style="fill:#eb9481"></path><path d="M559.28,400.3c2.5-.31,64.14-29.71,65.78-32.31.76-1.21-4.94-14.58-11.26-28.55l-40.15,19,3.63,7.14s-18.57,21.81-20.06,24.86S556.78,400.6,559.28,400.3Z" style="fill:#fff"></path><path d="M559.28,400.3c2.5-.31,64.14-29.71,65.78-32.31.63-1-3.13-10.21-8-21.24l-39.8,18.84s-18.57,21.81-20.06,24.86S556.78,400.6,559.28,400.3Z" style="fill:#FF702F"></path><path d="M559,397.41c10.21-5.18,51.89-25.12,62.38-29.46.08,0,.11,0,0,.06-10,5.36-51.85,25-62.33,29.57C558.85,397.68,558.77,397.52,559,397.41Z" style="fill:#263238"></path><path d="M560.12,386.35a9.21,9.21,0,0,1,7.39-.43,8.92,8.92,0,0,1,4.94,4.42c0,.06-.09.12-.13.06a10.62,10.62,0,0,0-12.13-3.92C560.1,386.51,560,386.39,560.12,386.35Z" style="fill:#263238"></path><path d="M573.76,368.53c4.11-2,9.6-2.86,13.78-.7.16.08,0,.31-.11.31a63,63,0,0,0-13.5.93A.29.29,0,0,1,573.76,368.53Z" style="fill:#263238"></path><path d="M571.16,371.3c4.11-2,9.6-2.86,13.78-.7.17.08,0,.31-.11.31a63,63,0,0,0-13.5.93A.29.29,0,0,1,571.16,371.3Z" style="fill:#263238"></path><path d="M568.56,374.07c4.11-2,9.6-2.86,13.78-.7.17.08,0,.31-.11.3a63.69,63.69,0,0,0-13.5.94A.29.29,0,0,1,568.56,374.07Z" style="fill:#263238"></path><path d="M566,376.83c4.11-2,9.6-2.85,13.79-.7.16.09,0,.32-.12.31a63.74,63.74,0,0,0-13.5.94A.29.29,0,0,1,566,376.83Z" style="fill:#263238"></path><path d="M586.62,269.83c.4,11.74,30.66,74.35,30.66,74.35l-43.6,19.41s-35.77-69.41-32.8-95.4c2.54-22.05,40.14-45.19,65-71.36h36.89c-13.76,29.19-52.93,61.26-56,71.54a4.65,4.65,0,0,0-.12,1.44Z" style="fill:#263238"></path><path d="M574,355.07c7.16-3.41,5.06-2.53,12.25-5.86,3.51-1.64,21.17-9.88,24.71-10.86a.08.08,0,0,1,.06.14c-3.06,2-20.9,9.88-24.44,11.44-7.25,3.21-5.2,2.21-12.49,5.34A.11.11,0,0,1,574,355.07Z" style="fill:#37474f"></path><path d="M633.62,203a378.55,378.55,0,0,1-36.36,46.93c-3.26,3.56-13.75,13.73-14.46,17.9-.79,4.65,1,9.28,2.48,13.61,1.59,4.77,3.19,9.54,4.88,14.28,1.83,5.11,3.77,10.18,5.94,15.15,1.11,2.54,7.87,15,9.11,17.52.62,1.24,1.25,2.47,1.9,3.7l3,5.45c.11.2.41.45.12-.07-.62-1.15-3.19-5.93-3.78-7.11-2.31-4.63-9.95-19.35-11.87-24.15s-3.73-9.8-5.43-14.76-3.44-9.8-4.89-14.77a20.83,20.83,0,0,1-1.05-7.87c.27-2.61,7.72-11.26,11-14.81q10.32-11.07,19.69-23a329.47,329.47,0,0,0,19.85-28A.07.07,0,1,0,633.62,203Z" style="fill:#37474f"></path><path d="M585.34,456.55c2.39.79,70.68.59,73.28-1.06,1-.62,1.54-10.57,1.86-22.61.07-2.6.13-5.29.17-8,.3-17.71.15-34.42.15-34.42H615.12l1.11,34.42.22,8s-26.11,11.77-28.77,13.89S583,455.76,585.34,456.55Z" style="fill:#eb9481"></path><path d="M585.34,456.55c2.39.79,70.68.59,73.28-1.06,1.2-.77,1.76-15.29,2-30.62H616.23l.22,8s-26.11,11.77-28.77,13.89S583,455.76,585.34,456.55Z" style="fill:#fff"></path><path d="M585.34,456.55c1.61.45,72.06.8,73.28-.24.89-.76,1.54-11.39,1.86-23.43h-44s-26.11,11.77-28.77,13.89S582.91,455.87,585.34,456.55Z" style="fill:#FF702F"></path><path d="M586.31,453.81c11.45-.31,57.65-.5,69,.06.09,0,.09.07,0,.07-11.34.56-57.54.37-69,.06C586.07,454,586.07,453.82,586.31,453.81Z" style="fill:#263238"></path><path d="M592.07,444.3a9.18,9.18,0,0,1,6.85,2.77,8.94,8.94,0,0,1,2.58,6.11c0,.07-.13.07-.14,0a10.62,10.62,0,0,0-9.29-8.74A.07.07,0,0,1,592.07,444.3Z" style="fill:#263238"></path><path d="M612,434c4.58-.08,9.89,1.52,12.75,5.26.11.15-.09.3-.23.23a63.74,63.74,0,0,0-12.6-4.93A.29.29,0,0,1,612,434Z" style="fill:#263238"></path><path d="M608.48,435.42c4.58-.08,9.9,1.52,12.76,5.26.11.15-.1.3-.23.23a63.74,63.74,0,0,0-12.6-4.93A.28.28,0,0,1,608.48,435.42Z" style="fill:#263238"></path><path d="M605,436.81c4.58-.08,9.9,1.52,12.76,5.26.11.15-.1.3-.24.23a63.74,63.74,0,0,0-12.6-4.93A.29.29,0,0,1,605,436.81Z" style="fill:#263238"></path><path d="M601.42,438.2c4.58-.08,9.89,1.52,12.75,5.26.11.15-.09.3-.23.23a63.74,63.74,0,0,0-12.6-4.93A.29.29,0,0,1,601.42,438.2Z" style="fill:#263238"></path><path d="M612.23,432.25l52.13-.65s-14.33-185-10.6-191.78c5.71-10.32,9.66-24.28,1.76-43.08H615.17s2.13,20.07,1.94,20.9C604.73,271.75,612.23,432.25,612.23,432.25Z" style="fill:#263238"></path><path d="M614.68,423.19c10.37-.77,42.78-1,46.23-.53a.08.08,0,0,1,0,.16c-3.42.65-20.47,1-46.23.59A.11.11,0,0,1,614.68,423.19Z" style="fill:#37474f"></path><path d="M614.44,199.35c.4,5.11.2,13.83,3.15,14s2.44-10.53,2.52-13c.08-2.23.84-1.92.92.7.23,7.11.05,13.38-3.73,13.09s-3.75-11.31-3.66-13.83C613.69,199,614.31,197.74,614.44,199.35Z" style="fill:#37474f"></path><path d="M617.4,213.66a22.26,22.26,0,0,1-.11,5.38c0,.14-.62,0-.68-.09-.35-.74-.07-4.23-.17-5.17A.48.48,0,0,1,617.4,213.66Z" style="fill:#37474f"></path><path d="M616.15,219.94c-1.26,4.47-2.55,13-2.25,15.27,0,.2.34.27.37.06.41-2.4,2.19-13.92,2.37-15.13S616.5,218.7,616.15,219.94Z" style="fill:#37474f"></path><path d="M623.91,223.47a15.13,15.13,0,0,0-1.88-1.6c-.66-.52-1.33-1-2-1.51-1.4-1-2.85-1.89-4.32-2.76s-2.92-1.64-4.41-2.4-3.23-1.38-4.8-2.17c-.09-.05-.17.08-.08.13,1.49.82,2.86,1.85,4.31,2.75s2.88,1.84,4.33,2.74,2.82,1.79,4.24,2.66c.75.46,1.5.9,2.26,1.35a17.71,17.71,0,0,0,2.13,1.18C623.9,223.94,624.05,223.62,623.91,223.47Z" style="fill:#37474f"></path><path d="M655.35,388.64q-1-10.83-1.81-21.68c-1.1-14.46-2-25-2.64-39.48s-1.09-29-1.3-43.5c-.11-7.25-2.18-35.6-1.8-42.79.19-3.65,6.62-6.47,7.93-17.12A40.5,40.5,0,0,0,654.32,206a40,40,0,0,0-1.61-4.18c0-.09-.18,0-.14.08a39.6,39.6,0,0,1,3.12,19,32.28,32.28,0,0,1-2,9.55c-1.73,4.29-6,7.78-6.21,10.06-.33,3.4,2,68.09,2.66,82.51s1.43,24.88,2.49,39.28,2.33,38.34,3.84,52.7c.17,1.64.36,3.28.6,4.92,0,.18.33.14.32,0C656.91,412.63,656,395.86,655.35,388.64Z" style="fill:#37474f"></path><path d="M617.23,142.82C612,154.65,586.86,181.94,577,183.76c-7.12,1.31-33.4-15.64-41-21.71-7.29-5.87,12.71-26.57,17.23-23.42,6.38,4.44,20.79,17.73,23.62,17.85,2,.09,13.26-7,30.5-20C616.93,129.34,620.34,135.77,617.23,142.82Z" style="fill:#eb9481"></path><path d="M521.83,152.32c4,4.68,15.85,11.08,19.31,11.52s15-19.39,13.66-22.7-15.95-18-22.1-19.24S517.71,147.47,521.83,152.32Z" style="fill:#eb9481"></path><path d="M552.75,138.19a51,51,0,0,1-2.6-14.58c0-5.92.73-14.7-2.45-14.84-6.53-.27-8.29,21.64-8.29,21.64s.78,9.79,7.22,10.63A6.46,6.46,0,0,0,552.75,138.19Z" style="fill:#eb9481"></path><path d="M541.79,125.64c.52,3.21-3.56,2-3.56,2s5.45,3.19,4.7,6.7-5.61,1.74-6,1.62c.29.17,5.22,3.23,4.11,6.69s-5.78,1.09-6.08.92c.23.25,3.08,3.56,1.64,6-2.49,4.19-10-4.07-14-4.08,0,0-.79,6.67-.85,6.86,0,0-7.33-7.71-7-13a3.41,3.41,0,0,1,2.81-3.2s-2.64-2.23-1.85-5c.41-1.41,3-2,3-2a4.27,4.27,0,0,1-1.19-4.27c.68-1.92,3.21-2.22,3.21-2.22s-1.13-2.7.2-4.44C523.7,114.67,540.67,118.76,541.79,125.64Z" style="fill:#eb9481"></path><path d="M521.22,122.51c-.06,0-.06-.09,0-.09a30.25,30.25,0,0,1,17.23,5.24c.16.12,0,.43-.15.33A61.88,61.88,0,0,0,521.22,122.51Z" style="fill:#263238"></path><path d="M518.73,129.06c-.07,0-.05-.12,0-.12a28.31,28.31,0,0,1,18.44,6.89c.18.16.18.48,0,.31C533.53,133.3,524.31,129.91,518.73,129.06Z" style="fill:#263238"></path><path d="M535.25,144c-5.06-4.28-11-6.5-17.38-7.92-.08,0,0-.13,0-.13,3.32-.17,7.31,1.16,10.33,2.46a17.53,17.53,0,0,1,7.17,5.42C535.47,143.92,535.36,144.09,535.25,144Z" style="fill:#263238"></path><path d="M538.33,127.59c.19.13-.22.26,0,.4.78.6,5.16,4.62,4.26,6.54-.73,1.54-3.3,1.62-4.3,1.27l-2.52-.89,2,1.71a10.93,10.93,0,0,1,2.34,2.65,3.94,3.94,0,0,1,.62,3.14,2.22,2.22,0,0,1-2.23,1.7,6.78,6.78,0,0,1-3.23-1l-2.75-1.58,2.07,2.38a10.32,10.32,0,0,1,1.46,2.17,4.25,4.25,0,0,1,.5,2.39,2,2,0,0,1-1.33,1.64,4.42,4.42,0,0,1-2.48-.24,35.92,35.92,0,0,1-4.94-2.36c-.82-.44-1.64-.87-2.48-1.27a6.44,6.44,0,0,0-2.66-.78,6.91,6.91,0,0,1,2.54,1c.8.45,1.58.95,2.36,1.44a30.37,30.37,0,0,0,4.93,2.68,5.21,5.21,0,0,0,3,.38,2.83,2.83,0,0,0,2.06-2.34,5.06,5.06,0,0,0-.55-3,11.14,11.14,0,0,0-1.58-2.45l-.68.8a7.71,7.71,0,0,0,3.81,1.23,3.22,3.22,0,0,0,2.07-.7,3.62,3.62,0,0,0,1.17-1.82,4.92,4.92,0,0,0-.78-4,11.76,11.76,0,0,0-2.61-2.88l-.46.82c1.28.41,4.17.62,5.6-1.62C545,131.88,539.39,128.19,538.33,127.59Z" style="fill:#263238"></path><path d="M538.23,127.62a6.46,6.46,0,0,0,2-.11,1.52,1.52,0,0,0,1.16-1,3.1,3.1,0,0,0-.18-1.74c-.22-.62-.48-1.26-.78-1.91a5.29,5.29,0,0,1,1.43,1.62,3,3,0,0,1,.4,2.29,2.13,2.13,0,0,1-.76,1,2.23,2.23,0,0,1-1.16.39A3.43,3.43,0,0,1,538.23,127.62Z" style="fill:#263238"></path><path d="M553.84,138.8l-14.49,34.81s29,13,37.65,11.12,31.94-25.49,40.42-40.2c5.17-8.95.1-15.46-11.08-7.94-11.49,7.73-27.62,18.42-28.82,18.77S553.84,138.8,553.84,138.8Z" style="fill:#455a64"></path><path d="M546.43,156.59l.17-.4a8,8,0,0,0,4.13-2,18.36,18.36,0,0,0,3.74-5.08,70.15,70.15,0,0,1,3.92-6.91l.28.21,0,0c-2.35,3.4-3.7,7.41-6.32,10.63C551,154.74,548.69,156.42,546.43,156.59Zm24.33-5.43-.2-.14a24.89,24.89,0,0,1-4.86,4,104,104,0,0,1-12.18,6.65c-3.65,1.75-7.07,3.82-9.07,7.46a14.73,14.73,0,0,0-1.77,5.94l.28.12a14.62,14.62,0,0,1,2-6.34c2.24-3.79,6.09-5.69,9.92-7.52A81.27,81.27,0,0,0,567,154.44,21.28,21.28,0,0,0,570.76,151.16ZM568.88,164a6.5,6.5,0,0,0-4.88,1,7,7,0,0,0-2.77,4.33,29.88,29.88,0,0,0-.4,5.9,15,15,0,0,1-1.12,5.66,5.24,5.24,0,0,1-.23.48l.33.11a13.54,13.54,0,0,0,.64-1.59,17.29,17.29,0,0,0,.7-5.3,19.91,19.91,0,0,1,.63-6.16,6.35,6.35,0,0,1,4.43-4.15,6,6,0,0,1,5.67,1.53,6.56,6.56,0,0,1,1.76,6.1c-.74,4-3.56,7.16-4,11.21a9.28,9.28,0,0,0-.06,1.06l.27.05c0-.25,0-.51,0-.76.32-4.21,3.32-7.52,4-11.61a7,7,0,0,0-1-5.28A6.56,6.56,0,0,0,568.88,164Zm15.18,1.14c-2.3-2.74-5.41-5-7-8.29a7.76,7.76,0,0,1-.64-2l-.35-.2a12.63,12.63,0,0,0,3.6,6.28c1.24,1.35,2.58,2.6,3.79,4a16.51,16.51,0,0,1,3.21,5.33,15.6,15.6,0,0,1,.7,8.17l.36-.3a15.19,15.19,0,0,0,.21-2.34A16.54,16.54,0,0,0,584.06,165.16Zm14.62-14.41a13.62,13.62,0,0,0-3.12-6.95l-.26.17a13.1,13.1,0,0,1,3,6.23,34,34,0,0,1,0,12.32,42.09,42.09,0,0,1-2.21,8.16c.17-.17.35-.34.52-.52a41.34,41.34,0,0,0,2-7.57A35.13,35.13,0,0,0,598.68,150.75Zm4.77-.28a21.67,21.67,0,0,1,1.42-11.84,12.66,12.66,0,0,1,1-1.69l-.7.47a18.5,18.5,0,0,0-2.22,7.75,28.9,28.9,0,0,0,1.83,12.28,19.86,19.86,0,0,0,1.23,2.64l.27-.31A27.43,27.43,0,0,1,603.45,150.47Z" style="fill:#37474f"></path><path d="M554.39,160.19c.91-2.63,4.48-13.14,5.16-15.82,0,0,0-.08-.07,0-1.16,2.43-5,12.7-5.9,15.32a152.31,152.31,0,0,0-5,15.88c0,.09.12.17.17.07C551,170.6,552.6,165.36,554.39,160.19Z" style="fill:#263238"></path><path d="M617.43,144.53c-6.88,11.92-23.46,29.71-34.11,37l29.8-48.06h0C619.33,132.25,621.38,137.67,617.43,144.53Z" style="opacity:0.1"></path><path d="M598.21,204l62.12,3.9c-2.1-17.73-19.17-58.25-29-71.42-5.55-7.44-18.83-8.64-22.39,1.83C604.36,151.88,597.28,203.17,598.21,204Z" style="fill:#455a64"></path><path d="M599.66,197.34a14.31,14.31,0,0,1-.54,6.72l-.27,0c1.11-3,.69-6.13.06-9.2,0-.31.07-.63.11-1C599.27,195,599.5,196.18,599.66,197.34ZM609,175.08a8.43,8.43,0,0,0-7.64,2.19c0,.15,0,.3-.07.45a8.39,8.39,0,0,1,5.21-2.56c4-.4,7.36,2.73,8.64,6.32,1.57,4.42.07,9.27-1.94,13.28-1.63,3.25-3.84,6.35-4.83,9.87l.29,0c1-3.67,3.41-6.88,5-10.29,1.79-3.73,3.08-8.13,1.91-12.24C614.67,178.92,612.26,175.92,609,175.08Zm21.15,9.12a23.64,23.64,0,0,0-6.08-7.92c-5.2-4.65-11.7-8-16-13.62a22.06,22.06,0,0,1-3.26-6.25l-.15.78.09.25a24,24,0,0,0,6.28,9,99.06,99.06,0,0,0,8.25,6.47,41.85,41.85,0,0,1,7.77,7A19.74,19.74,0,0,1,631.39,191a34.74,34.74,0,0,1-1.75,13c-.21.67-.44,1.34-.7,2l.33,0a37,37,0,0,0,2.28-9.27A23.94,23.94,0,0,0,630.1,184.2Zm.31-40.09c-.33-2.94-1.06-6.24-.46-9.21a2.39,2.39,0,0,0-.23-.22,12.5,12.5,0,0,0-.32,3.11c.05,2.42.58,4.79.78,7.2a25,25,0,0,1-.42,6.91,24.77,24.77,0,0,1-2.26,6.42,10.44,10.44,0,0,1-4.2,4.57A4.25,4.25,0,0,1,618,162a6.56,6.56,0,0,1-1.28-5,14.27,14.27,0,0,1,2.61-5.71,33.44,33.44,0,0,0,3.15-5.31c1.39-3.23,2-7.17.29-10.4a8.16,8.16,0,0,0-7.4-4.13,6.21,6.21,0,0,0-.75.31,8.33,8.33,0,0,1,7.27,3c2.54,3.36,1.77,8,.12,11.55s-5,6.58-5.59,10.62c-.4,2.88.93,6.5,4.2,6.85,3.86.41,6.55-3.74,7.87-6.77A25.43,25.43,0,0,0,630.41,144.11Zm11.15,27.38c1.81-1.47,3.57-3,5.26-4.63l.28-.27c-.05-.13-.11-.25-.16-.37a62.41,62.41,0,0,1-7.57,6.5c-1.69,1.2-3.76,2.19-5.86,1.57a3.79,3.79,0,0,1-2.26-1.63,3.93,3.93,0,0,1,.08-3.58,18.18,18.18,0,0,1,3.61-4.89c1.32-1.39,2.74-2.67,4.18-3.94,1.22-1.08,2.46-2.17,3.65-3.31,0-.11-.1-.21-.14-.31-1.43,1.38-3,2.67-4.43,4a53.35,53.35,0,0,0-4.11,4,16,16,0,0,0-3.21,4.65,3.81,3.81,0,0,0,.93,4.57,5.14,5.14,0,0,0,4.41.86A14.36,14.36,0,0,0,641.56,171.49Zm-3.08,19c3.59,1.45,7-.68,9.76-2.9a50.32,50.32,0,0,1,5.46-4.16c0-.09-.07-.19-.1-.29-.78.47-1.54,1-2.27,1.54-3.15,2.37-6.46,6.27-10.79,5.95a5.07,5.07,0,0,1-4.42-2.76c-.83-2,.15-4.25,1.66-5.6a13.51,13.51,0,0,1,6.18-2.67c2.33-.53,4.69-.87,7-1.32l.76-.15c0-.1-.08-.19-.11-.29-.89.18-1.79.34-2.68.5a65.27,65.27,0,0,0-6.89,1.42,10.31,10.31,0,0,0-5.09,2.86,5.51,5.51,0,0,0-1.38,4.72A4.59,4.59,0,0,0,638.48,190.46Zm19.62,6.79c-3.24.86-6.67,1-10,1.53-3.8.62-7.87,1.85-10.26,5.08a10.53,10.53,0,0,0-1.37,2.54l.34,0a9.58,9.58,0,0,1,1.77-3c2.88-3.28,7.55-4.13,11.66-4.65a60.27,60.27,0,0,0,7.91-1.25C658.15,197.44,658.13,197.34,658.1,197.25Zm1.5,6.26a32.07,32.07,0,0,0-2.5,2.44c-.5.54-1,1.09-1.49,1.65l.41,0a43.31,43.31,0,0,1,3.66-3.76C659.66,203.75,659.63,203.63,659.6,203.51Z" style="fill:#37474f"></path><path d="M637.15,142.89c11,13.33,21.41,39.27,19.51,47.05-2.9,11.9-54.57,11.9-63.43,10.64-3.84-.55.51-27,4.64-26.72,6.8.47,34.69-1.89,35.19-1.89,0,0-4.06-14.48-6.67-28.23C624.07,131.55,629.4,133.46,637.15,142.89Z" style="fill:#eb9481"></path><path d="M638.4,142.26c11,13.33,23.3,37.36,19.44,49.48-3.06,9.59-48.32,14.53-57.11,15.25l-2.35-34.36c6.81.47,34.18-.66,34.68-.66,0,0-4.27-12.57-7.44-26.19C621.29,127.23,630.65,132.83,638.4,142.26Z" style="fill:#455a64"></path><path d="M658.07,181.3a17.44,17.44,0,0,0-6.74,3.35c-3.15,2.37-6.46,6.27-10.79,5.95a5.07,5.07,0,0,1-4.42-2.76c-.83-2,.15-4.25,1.66-5.6a13.51,13.51,0,0,1,6.18-2.67c2.33-.53,4.69-.87,7-1.32a34.48,34.48,0,0,0,6-1.64,1.9,1.9,0,0,0-.09-.29,41.3,41.3,0,0,1-7.93,2,65.27,65.27,0,0,0-6.89,1.42,10.31,10.31,0,0,0-5.09,2.86,5.51,5.51,0,0,0-1.38,4.72,4.59,4.59,0,0,0,2.88,3.15c3.59,1.45,7-.68,9.76-2.9,2.93-2.39,6-5.24,9.87-6C658.1,181.49,658.08,181.39,658.07,181.3Zm-6.91-19.22c-.47.42-.91.85-1.33,1.27a82.26,82.26,0,0,1-10.46,9.37c-1.69,1.2-3.76,2.19-5.86,1.57a3.79,3.79,0,0,1-2.26-1.63A3,3,0,0,1,631,172h-.34a3.23,3.23,0,0,0,1.16,1.77,5.14,5.14,0,0,0,4.41.86,14.36,14.36,0,0,0,5.34-3.19c1.81-1.47,3.57-3,5.26-4.63,1.48-1.41,2.91-3,4.49-4.47Zm-16.22,2.11c1.32-1.39,2.74-2.67,4.18-3.94a52.63,52.63,0,0,0,7.06-7,1.75,1.75,0,0,0-.18-.29,56,56,0,0,1-7.8,7.67,53.35,53.35,0,0,0-4.11,4,21,21,0,0,0-2.42,3.09c.05.15.1.3.14.45A21.42,21.42,0,0,1,634.94,164.19Zm-4.53-20.08c-.35-3.08-1.13-6.57-.36-9.64l-.24-.14a12.61,12.61,0,0,0-.41,3.46c.05,2.42.58,4.79.78,7.2a25,25,0,0,1-.42,6.91,24.6,24.6,0,0,1-1.41,4.59c0,.17.1.33.14.5A25.39,25.39,0,0,0,630.41,144.11Zm-.31,40.09a23.64,23.64,0,0,0-6.08-7.92c-1.53-1.36-3.17-2.62-4.83-3.84h-.56l.63.47a41.85,41.85,0,0,1,7.77,7A19.74,19.74,0,0,1,631.39,191a34.12,34.12,0,0,1-1.46,12l.38-.07a39.7,39.7,0,0,0,1.24-6.23A23.94,23.94,0,0,0,630.1,184.2Zm-14.53-2.08c-.9-3.2-3.31-6.2-6.62-7-3.54-.9-7.21,1-9.19,4a11.23,11.23,0,0,0-.84,1.46l0,.67a9.39,9.39,0,0,1,7.49-6c4-.4,7.36,2.73,8.64,6.32,1.57,4.42.07,9.27-1.94,13.28-1.88,3.74-4.53,7.28-5.2,11.5l.31,0c.71-4.34,3.53-8,5.4-11.86C615.45,190.63,616.74,186.23,615.57,182.12Z" style="fill:#37474f"></path><path d="M632.8,171.73a25.65,25.65,0,0,1,6.08,2.45,23.91,23.91,0,0,1,5.3,3.86c-1.91-1.08-3.76-2.18-5.66-3.2Z" style="fill:#263238"></path><path d="M656.51,193.42c-3.76,3.45-8.69,4.59-13.48,5.88-5.53,1.49-11.12,2.75-16.74,3.84-1.58.3-3.16.6-4.75.88a49.38,49.38,0,0,1-4.95.89.08.08,0,1,0,0,.16c1.53-.27,3.12-.29,4.66-.48s2.85-.38,4.27-.61c2.92-.46,5.82-1,8.7-1.61s5.74-1.32,8.59-2.07a73,73,0,0,0,7.68-2.32c2.38-.91,4.82-2.18,6.23-4.39C656.83,193.45,656.62,193.32,656.51,193.42Z" style="fill:#263238"></path><path d="M631.73,166.76q-.84-2.67-1.63-5.37c-.53-1.8-1.06-3.59-1.64-5.37s-.93-3.64-1.59-5.38c0,0-.11,0-.1,0a36.46,36.46,0,0,0,.94,4.11,21.4,21.4,0,0,0-1-2c0-.05-.1,0-.09,0a29,29,0,0,0,1.32,3,1.33,1.33,0,0,0,0,.19c.41,1.87.9,3.72,1.43,5.56s1.05,3.59,1.61,5.38a31.72,31.72,0,0,0,1.63,4.72c-2.13-.11-4.29.05-6.41.09s-4.49.11-6.74.16c-4.45.12-8.9.23-13.34.4-2.54.1-5.08.18-7.61.36a.1.1,0,0,0,0,.19c4.49.18,9,.11,13.49,0s8.9-.15,13.35-.36c2.47-.11,7.81-.3,7.79-.46a.43.43,0,0,0,0-.11C633.2,171.79,632.22,168.35,631.73,166.76Z" style="fill:#263238"></path><path d="M607.54,190c-.21-2.53-1.13-12.62-1.55-15.1,0,0-.08,0-.08,0-.06,2.45.56,12.44.77,15a141.16,141.16,0,0,0,1.69,15.1c0,.08.17.09.17,0C608.54,199.94,608,195,607.54,190Z" style="fill:#263238"></path><rect x="582.91" y="186.91" width="67.59" height="3.03" style="fill:#c7c7c7"></rect><rect x="582.91" y="186.91" width="34.02" height="3.03" style="fill:#a6a6a6"></rect><polygon points="613.27 189.94 547.4 189.94 538.78 145.2 604.66 145.2 613.27 189.94" style="fill:#c7c7c7"></polygon><path d="M580,167.57a3.62,3.62,0,0,1-3.66,4,4.46,4.46,0,0,1-4.36-4,3.61,3.61,0,0,1,3.66-4A4.47,4.47,0,0,1,580,167.57Z" style="fill:#fff"></path><path d="M605.57,192.41c-4.46,2.24-9.93,7.76-13.61,8.29a4.26,4.26,0,0,1-4.55-2.26s-1.75,3.72-5.16,3.65c-1.75,0-3.24-2.87-3.24-2.87s-1.53,2.91-4.56,2.66c-2.42-.2-3.54-3-3.54-3s-2.78,2.12-5.17,1.12c-4.86-2-5.34-22.8,2.24-26.19,3.54-1.59,3.38,3.5,3.38,3.5s2-7.26,6.28-7.47,3.68,6.39,3.68,6.39,2-7,6.46-6.79c4.65.24,2.91,6.74,2.91,6.74s3-4.7,6.41-3.74c5.57,1.58-1.12,12.24.07,16.78l7.43.22Z" style="fill:#eb9481"></path><path d="M599.13,196.28c4.41-1.76,6.4,1.41,11,.95,5.07-.5,3.61-6.48-5.23-7.79l-7.69-.23Z" style="fill:#eb9481"></path><path d="M570.66,198.45a.05.05,0,0,1-.1,0,36,36,0,0,1,.78-21.46c.08-.22.47-.18.42.08A73.88,73.88,0,0,0,570.66,198.45Z" style="fill:#263238"></path><path d="M579,199.32c0,.08-.13.09-.15,0-1.84-7-1.5-16.07,2.31-23.35.13-.25.5-.34.37,0C579.33,181,578.24,192.63,579,199.32Z" style="fill:#263238"></path><path d="M591.14,175.72c-3.39,7.13-4.15,14.63-3.82,22.44,0,.1-.14.09-.16,0-1.21-3.78-.9-8.78-.33-12.65a20.81,20.81,0,0,1,4.06-9.91C591,175.49,591.21,175.57,591.14,175.72Z" style="fill:#263238"></path><path d="M592.79,200.51a15.85,15.85,0,0,0,3.72-2c1.16-.8,2.23-1.71,3.45-2.49a4,4,0,0,1,1-.47,3.43,3.43,0,0,1,1.16,0c.72.12,1.41.3,2.09.48a28.37,28.37,0,0,0,4.09.93c1.33.15,2.82.14,3.69-.75a2.5,2.5,0,0,0,.71-1.68,2.58,2.58,0,0,0-.71-1.71,9,9,0,0,0-3.38-2.28,13.46,13.46,0,0,0-4-1.15,11.87,11.87,0,0,1,4.19.78,9.56,9.56,0,0,1,3.71,2.24,3.3,3.3,0,0,1,.9,2.12,3.24,3.24,0,0,1-.86,2.17,3.5,3.5,0,0,1-2.09,1,7.78,7.78,0,0,1-2.21,0,31,31,0,0,1-4.17-1c-.68-.2-1.35-.43-2-.58a2.7,2.7,0,0,0-1-.08,3.32,3.32,0,0,0-.9.39C597.84,197.88,595.56,199.78,592.79,200.51Z" style="fill:#263238"></path><path d="M614.91,143.07c3.53.3,8.59-5.79,10.26-10.36.12-.31-.79-3.3-1.71-7-.56-2.24-1.12-4.74-1.47-7.06l-14,5.73a37.19,37.19,0,0,1,2.74,8.69,4.52,4.52,0,0,1,0,1c0,.05,0,.1,0,.16C610.76,136.08,611.5,142.79,614.91,143.07Z" style="fill:#eb9481"></path><path d="M608,124.41a37,37,0,0,1,2.75,8.69,4.58,4.58,0,0,1,0,1,.86.86,0,0,0,0,.15,7.57,7.57,0,0,0,1.51-.14c8.42-1.47,9.23-12.3,9.29-15.23Z" style="fill:#263238"></path><path d="M623.68,102.2c1.54,5.23-1.38,20.26-5.12,23.58-5.43,4.81-14.23,5.18-18.3-1.33-3.94-6.3.2-25.82,4.38-28.83C610.79,91.19,621.42,94.48,623.68,102.2Z" style="fill:#eb9481"></path><path d="M624.48,116.54c-4.16-.22-5.7-5.4-4.24-9.24,0,0-11.14.09-10.57-8.77a8.69,8.69,0,0,1-7.61,3.06l-1.63,3.09c-1.09-.47-1.89-3.81,1.18-6a10.53,10.53,0,0,1,4.29-6.59,6,6,0,0,1,6.56-.1,9.12,9.12,0,0,1,6.81-.81,7.78,7.78,0,0,1,5.18,4.91s5.3,1.72,5.74,5.69a8.05,8.05,0,0,1-1.87,6.3s1.17,1.69.07,4.89C627.68,115.06,625.73,116.61,624.48,116.54Z" style="fill:#263238"></path><path d="M610,97.78a10.39,10.39,0,0,0-.29,2.14,8.43,8.43,0,0,0,.14,2.13,5.57,5.57,0,0,0,2.14,3.47,9,9,0,0,0,3.91,1.52c.72.07,1.43.19,2.15.21s1.45,0,2.18,0c-.72.09-1.45.14-2.18.2s-1.46,0-2.2-.07a9,9,0,0,1-4.17-1.5,5.83,5.83,0,0,1-2.22-3.81A8.86,8.86,0,0,1,610,97.78Z" style="fill:#263238"></path><path d="M624.45,96.12a10.22,10.22,0,0,1,3.93,1.38,6.13,6.13,0,0,1,2.71,3.23,7,7,0,0,1,.26,2.13A6.17,6.17,0,0,1,631,105a5.67,5.67,0,0,1-2.66,3.16,6.25,6.25,0,0,0,2.29-3.28,7,7,0,0,0,0-3.94,5.5,5.5,0,0,0-.94-1.73,7.94,7.94,0,0,0-1.5-1.33A12.93,12.93,0,0,0,624.45,96.12Z" style="fill:#263238"></path><path d="M612.46,92a10.25,10.25,0,0,0-3.14-1,5.89,5.89,0,0,0-5.74,2.22,11.38,11.38,0,0,0-1.68,2.84A8.4,8.4,0,0,1,603.27,93,6.1,6.1,0,0,1,606,90.82a5.92,5.92,0,0,1,3.43-.21A7.77,7.77,0,0,1,612.46,92Z" style="fill:#263238"></path><path d="M603.73,102.16a11.66,11.66,0,0,0,3.55-1.38,7.14,7.14,0,0,0,1.45-1.18,8.08,8.08,0,0,0,1.12-1.55,4.53,4.53,0,0,1-.82,1.8,5.37,5.37,0,0,1-1.48,1.37,6.63,6.63,0,0,1-1.85.76A6,6,0,0,1,603.73,102.16Z" style="fill:#263238"></path><path d="M608.53,111.43s.06.07.05.11c-.24,1-.36,2.17.47,2.7,0,0,0,.07,0,.05C608,113.9,608.13,112.33,608.53,111.43Z" style="fill:#263238"></path><path d="M609.64,110.58c1.64.23,1.07,3.48-.45,3.27S608.27,110.39,609.64,110.58Z" style="fill:#263238"></path><path d="M602.6,110.38s-.08,0-.09.08c-.15,1-.48,2.15-1.45,2.33,0,0,0,0,0,0C602.2,112.88,602.63,111.37,602.6,110.38Z" style="fill:#263238"></path><path d="M601.89,109.17c-1.6-.4-2.3,2.83-.82,3.2S603.23,109.51,601.89,109.17Z" style="fill:#263238"></path><path d="M611.19,108c-.42-.19-.78-.44-1.18-.67a2.19,2.19,0,0,1-1.08-.91.68.68,0,0,1,.26-.81,1.7,1.7,0,0,1,1.75.13,2.5,2.5,0,0,1,1.25,1.33A.75.75,0,0,1,611.19,108Z" style="fill:#263238"></path><path d="M600.75,108a12.26,12.26,0,0,0,1.36-.07,2.25,2.25,0,0,0,1.37-.34.7.7,0,0,0,.13-.84,1.74,1.74,0,0,0-1.63-.67,2.59,2.59,0,0,0-1.72.65A.74.74,0,0,0,600.75,108Z" style="fill:#263238"></path><path d="M608,120.53c-.24.25-.48.58-.85.62a2.65,2.65,0,0,1-1.1-.23s-.07,0-.05,0a1.39,1.39,0,0,0,1.31.53,1.08,1.08,0,0,0,.79-.92C608.15,120.52,608.07,120.5,608,120.53Z" style="fill:#263238"></path><path d="M607.27,117.41a3.49,3.49,0,0,1-2.56,1.13,4.42,4.42,0,0,1-1.25-.16l-.44-.15a.24.24,0,0,1-.17-.26h0s.44-2.15.44-2.15c-.31.09-1.87.49-1.78.09a52.2,52.2,0,0,1,3.16-10.16.1.1,0,0,1,.18.06c-.63,3.22-1.83,6.31-2.52,9.54a6.33,6.33,0,0,1,1.71-.21c.06,0-.61,2.62-.61,2.64a4.79,4.79,0,0,0,3.75-.48C607.28,117.26,607.34,117.34,607.27,117.41Z" style="fill:#263238"></path><path d="M598.84,115.57c-1.82-.3-2.93-2.79-2.48-5.54s2.3-4.76,4.13-4.46,2.93,2.79,2.48,5.54S600.67,115.87,598.84,115.57Zm1.54-9.33c-1.46-.24-3,1.51-3.35,3.9s.47,4.52,1.92,4.76,3-1.51,3.35-3.9S601.83,106.48,600.38,106.24Z" style="fill:#FF702F"></path><path d="M608.51,117.41a5.08,5.08,0,1,1,5.49-4.23A4.9,4.9,0,0,1,608.51,117.41Zm1.53-9.33a4.4,4.4,0,1,0,3.29,5A4.23,4.23,0,0,0,610,108.08Z" style="fill:#FF702F"></path><path d="M605,111.17c-1.53-1-2.39-.45-2.4-.45l-.2-.51c.05,0,1.08-.78,2.84.42Z" style="fill:#FF702F"></path><path d="M613.57,112.52l0-.6c.38,0,9.48.68,10.44.88s3,2.13,3.2,2.35l-.41.43a11.28,11.28,0,0,0-2.87-2.19h0C623.21,113.23,616.84,112.75,613.57,112.52Z" style="fill:#FF702F"></path><path d="M619.72,115.35s3.56-4.77,5.73-3.49-.61,8.26-3.23,9.15a2.64,2.64,0,0,1-3.49-1.53Z" style="fill:#eb9481"></path><path d="M624.6,113.84a0,0,0,0,1,0,.07c-1.84.68-2.85,2.34-3.57,4.07a1.45,1.45,0,0,1,2.19-.33s0,.11-.05.09a1.64,1.64,0,0,0-1.81.51,8.68,8.68,0,0,0-.89,1.42c-.09.16-.39.07-.32-.12l0,0C620.2,117.19,622.11,114,624.6,113.84Z" style="fill:#263238"></path><path d="M609.93,138.74a0,0,0,0,1,.05,0c-.18,2.88-.42,9.57,4.1,9.17a9.59,9.59,0,0,0,4.88-2.41,25.62,25.62,0,0,0,3.84-3.88,37.3,37.3,0,0,0,3.59-5c0-.08.15,0,.11.08-1.08,1.76-2,3.59-3.22,5.25a22.54,22.54,0,0,1-4.15,4.3,9.65,9.65,0,0,1-5.19,2.35,3.66,3.66,0,0,1-3.71-2.76A16.15,16.15,0,0,1,609.93,138.74Z" style="fill:#263238"></path><path d="M610.93,133.57l3.49,8.52L625,131.2l3,3.45s-10.28,17.27-10.35,16.49l-3.57-7.35L609,149l.33-12.88Z" style="fill:#ebebeb"></path><path d="M608.83,142.58c.13-2.12.19-4.27.42-6.38a.07.07,0,0,1,.14,0c.44,2-.08,10.17-.06,12.11l0,0c.21-.22,4.68-4.55,4.73-4.48.77,1.17,3.39,6.52,3.57,7,1.63-2.75,8.53-13.56,10.46-16.16a.07.07,0,0,1,.13.07c-1.43,2.9-10.35,17.17-10.48,17.13a81,81,0,0,1-3.74-7.77c-.76.94-5.27,5.82-5.29,5.5A67.92,67.92,0,0,1,608.83,142.58Z" style="fill:#263238"></path></g><g id="freepik--character-2--inject-153"><path d="M423,455.35c-2.35.76-69.24-.11-71.76-1.76-1-.61-1.41-10.36-1.61-22.16v-.37c0-2.43-.08-4.94-.08-7.48,0-.35,0-.7,0-1l3.24-34.7,44.75.44-4.42,34.38L393,424l-.27,7.11,0,.74s25.46,11.78,28,13.89S425.3,454.61,423,455.35Z" style="fill:#ad6359"></path><path d="M423,455.35c-2.35.76-69.24-.11-71.76-1.76-1-.61-1.41-10.36-1.61-22.16v-.37c0-2.43-.08-4.94-.08-7.48,0-.35,0-.7,0-1l43.57.12L393,424l-.27,7.11,0,.74s25.46,11.78,28,13.89S425.3,454.61,423,455.35Z" style="fill:#ebebeb"></path><path d="M423,455.35c-1.21.39-19.38.35-37.14,0-3.57-.07-7.12-.16-10.51-.25-12.67-.35-23.13-.87-24.1-1.5s-1.41-10.09-1.6-21.67c0-.17,0-.33,0-.49s0-.26,0-.38h.05l43.11.08,0,.74s25.45,11.77,28,13.88S425.31,454.6,423,455.35Z" style="fill:#FF702F"></path><path d="M422.23,452.75c-11.27-.42-56.77-1.07-67.94-.63-.1,0-.1.07,0,.07,11.16.67,56.66.94,67.94.74C422.47,452.93,422.47,452.76,422.23,452.75Z" style="fill:#263238"></path><path d="M397.55,431.32c-4.43-.89-9.86-.28-13.29,2.84-.14.12,0,.31.18.27a62,62,0,0,1,13.08-2.55A.28.28,0,0,0,397.55,431.32Z" style="fill:#263238"></path><path d="M400.73,433.29c-4.43-.88-9.86-.27-13.3,2.84-.13.12.05.31.19.27a61.79,61.79,0,0,1,13.08-2.55A.28.28,0,0,0,400.73,433.29Z" style="fill:#263238"></path><path d="M403.9,435.26c-4.42-.88-9.86-.27-13.29,2.84-.13.13,0,.31.19.27a62.42,62.42,0,0,1,13.08-2.55A.28.28,0,0,0,403.9,435.26Z" style="fill:#263238"></path><path d="M385.82,455.34c-3.57-.07-7.12-.16-10.51-.25-12.67-.35-23.13-.87-24.1-1.5s-1.41-10.09-1.6-21.67c0-.17,0-.33,0-.49s0-.26,0-.38h.05C355.54,435.19,376.36,449.05,385.82,455.34Z" style="fill:#263238"></path><path d="M395.68,431.28H347.51s9.7-112.51,9.32-114.47c-.48-2.52-3.32-13.91-7.11-28.78-1.19-4.66-2.46-9.65-3.79-14.83-3.6-14-7.56-29.29-11-42.61a187.17,187.17,0,0,1-5.82-35.43h43.05s-1.06,15.5.58,20c11.51,31.53,27.37,90.5,28.66,101.17C403.49,333.56,395.68,431.28,395.68,431.28Z" style="fill:#455a64"></path><path d="M393.55,423.06c-7.36-.15-5.24-.21-12.6-.28-3.6,0-27.26-.24-30.63.32-.07,0-.07.13,0,.15,3.37.55,27,.35,30.63.31,7.36-.07,5.24-.13,12.6-.28A.11.11,0,0,0,393.55,423.06Z" style="fill:#263238"></path><path d="M365.9,309.93c-1.58-7-3.94-13.79-6-20.62q-6.25-20.83-12.6-41.64-3.17-10.41-6.35-20.81-1.62-5.25-3.25-10.49c-1.07-3.42-2.29-6.81-3.26-10.26-.39-1.4-.61-.63-.1,1.15,1,3.59,2,7.19,3.06,10.77q3.12,10.65,6.27,21.29,6.25,21.17,12.63,42.3,3.18,10.61,6.38,21.2a86.58,86.58,0,0,1,2.6,10.26,46.83,46.83,0,0,1,.43,11c-.46,7.37-1.32,14.73-2,22.08l-2,22.1q-2,22-4,44-.25,2.79-.47,5.58c-.05.62.89.57,1,0,1.58-14.5,2.8-29,4.16-43.57s2.71-28.9,4.06-43.35c.34-3.63.73-7.26.73-10.91A45.12,45.12,0,0,0,365.9,309.93Z" style="fill:#263238"></path><path d="M365.3,195.16c-2.83,21.93-11.64,63-15.58,92.87-9.21-36.14-20.61-92.87-20.61-92.87Z" style="fill:#263238"></path><path d="M371.93,456c-2.35.76-69.24.14-71.77-1.5-1-.61-1.45-10.36-1.68-22.16,0-.12,0-.25,0-.37-.05-2.43-.09-4.94-.11-7.47,0-.35,0-.7,0-1.05-.16-17,1.07-34.7,1.07-34.7l43.72.28-1.22,34.38-.05,1.36-.24,7.12,0,.73s25.49,11.69,28.09,13.79S374.27,455.24,371.93,456Z" style="fill:#ad6359"></path><path d="M371.93,456c-2.35.76-69.24.14-71.77-1.5-1-.61-1.45-10.36-1.68-22.16,0-.12,0-.25,0-.37-.05-2.43-.09-4.94-.11-7.47,0-.35,0-.7,0-1.05l43.57,0-.05,1.36-.24,7.12,0,.73s25.49,11.69,28.09,13.79S374.27,455.24,371.93,456Z" style="fill:#ebebeb"></path><path d="M371.93,456c-2.35.76-69.24.14-71.77-1.5-1-.61-1.45-10.36-1.68-22.16,0-.12,0-.25,0-.37l43.16-.08,0,.73s25.49,11.69,28.09,13.79S374.27,455.24,371.93,456Z" style="fill:#FF702F"></path><path d="M371.19,453.4c-11.27-.38-56.77-.86-67.95-.38-.09,0-.09.06,0,.07,11.17.62,56.67.73,67.95.49C371.43,453.58,371.43,453.41,371.19,453.4Z" style="fill:#263238"></path><path d="M346.43,432.06c-4.43-.87-9.86-.24-13.28,2.89-.13.12,0,.31.19.26a61.76,61.76,0,0,1,13.07-2.59A.28.28,0,0,0,346.43,432.06Z" style="fill:#263238"></path><path d="M349.62,434c-4.43-.87-9.87-.24-13.29,2.89-.13.12.05.31.19.26a61.89,61.89,0,0,1,13.07-2.59A.28.28,0,0,0,349.62,434Z" style="fill:#263238"></path><path d="M352.8,436c-4.43-.87-9.86-.24-13.28,2.89-.13.12,0,.31.18.26a62,62,0,0,1,13.08-2.59A.28.28,0,0,0,352.8,436Z" style="fill:#263238"></path><path d="M368.62,195.16s-2.37,26.68-10.27,39.83c0,0-4.37.61-11.48,5,0,0-.47,15.71-.94,33.24-.53,19.59-1.07,41.45-1,46.08.41,17.35-2.16,112.71-2.16,112.71l-48.17.19s8.71-106.49,8.65-112.84c-.09-10.22,2.33-55.35,4.2-88.26a97.46,97.46,0,0,1,9.34-35.92Z" style="fill:#455a64"></path><path d="M341.15,423.42c-7.35-.12-5.24-.19-12.6-.23-3.6,0-27.26-.12-30.62.45a.08.08,0,0,0,0,.15c3.36.54,27,.23,30.63.18,7.35-.1,5.24-.15,12.6-.33A.11.11,0,0,0,341.15,423.42Z" style="fill:#263238"></path><path d="M359.74,234.06a86.82,86.82,0,0,0-14,6.05.16.16,0,0,0,.12.29c4.7-1.87,9.49-3.65,14.08-5.78A.3.3,0,0,0,359.74,234.06Z" style="fill:#263238"></path><path d="M362,202.27c0-.16-.29-.21-.3,0a152.91,152.91,0,0,1-1.2,15.5c-.28,2.39-2.56,15.57-6.68,14.49-.69-.18-1-.87-1.11-1.92a16.63,16.63,0,0,1,.66-4.05c.54-2.75,1-5.52,1.29-8.31a75.9,75.9,0,0,0,.26-15.66.14.14,0,0,0-.27,0,142.94,142.94,0,0,1-1.85,21.57c-.61,3.43-2.48,8.56,1.1,9.19s6.26-8,6.77-10.34A79.24,79.24,0,0,0,362,202.27Z" style="fill:#263238"></path><path d="M353.92,232.59a21.63,21.63,0,0,0-1,2.72,6.17,6.17,0,0,0-.45,2.24c0,.15.21.17.29.07a8,8,0,0,0,1-2.17c.34-.84.7-1.67,1-2.52A.46.46,0,0,0,353.92,232.59Z" style="fill:#263238"></path><path d="M367.46,150.74c3.34,12.49,24,43.3,33.48,46.61,6.84,2.38,35.41-10.35,43.81-15.2,8.1-4.68-8.49-28.19-13.44-25.77-7,3.41-23.26,14.34-26.08,14-2-.22-12-9-27.08-24.41C369.81,137.46,365.46,143.29,367.46,150.74Z" style="fill:#ad6359"></path><path d="M462.14,172.17c-4.24,4.52-16.54,10.36-20.05,10.63s-14.15-20.31-12.63-23.58,17-17.39,23.27-18.28S466.54,167.48,462.14,172.17Z" style="fill:#ad6359"></path><path d="M431.68,156.35A51.34,51.34,0,0,0,435,141.78c.28-6,0-14.87,3.22-14.84,6.6,0,7.26,22.24,7.26,22.24s-1.28,9.83-7.82,10.35A6.51,6.51,0,0,1,431.68,156.35Z" style="fill:#ad6359"></path><path d="M443.37,144.24c1,3.15,3.49,2.19,3.49,2.19s-5.66,2.93-5.08,6.52,5.56,2,5.92,1.93c-.29.16-5.42,3-4.48,6.54s5.77,1.39,6.08,1.24c-.23.24-3.28,3.43-1.95,6,2.29,4.34,10.31-3.6,14.29-3.42,0,0,.45,6.77.5,7,0,0,7.79-7.41,7.74-12.78a3.43,3.43,0,0,0-2.67-3.37s2.77-2.11,2.12-4.92c-.35-1.44-3-2.18-3-2.18a4.3,4.3,0,0,0,1.41-4.25c-.59-2-3.12-2.4-3.12-2.4s14.76-6.41,13.38-9.91c-2.36-6-30.63,9.51-33.25,8.37C443.49,140.17,443,142.88,443.37,144.24Z" style="fill:#ad6359"></path><path d="M464.27,142.14a.05.05,0,0,0,0-.1,30.61,30.61,0,0,0-17.64,4.42c-.17.11-.53.95-.34.84C451.11,144.6,458,142.8,464.27,142.14Z" style="fill:#263238"></path><path d="M466.45,148.87c.07,0,.06-.12,0-.13a28.62,28.62,0,0,0-18.94,6c-.19.15-.2.47,0,.31C451.31,152.39,460.78,149.44,466.45,148.87Z" style="fill:#263238"></path><path d="M449,163.1c5.32-4.06,11.4-6,17.93-7.1.08,0,.05-.14,0-.15-3.34-.33-7.43.81-10.54,2a17.61,17.61,0,0,0-7.51,5.1C448.81,163,448.92,163.18,449,163.1Z" style="fill:#263238"></path><path d="M446.76,146.39c-.2.12.49.36.3.5-2.1,1.48-5.73,4.31-4.92,6.29.66,1.58,3.25,1.8,4.28,1.49l2.58-.77-2.16,1.62a11,11,0,0,0-2.49,2.56,3.92,3.92,0,0,0-.78,3.13,2.24,2.24,0,0,0,2.16,1.83,6.75,6.75,0,0,0,3.31-.85l2.84-1.44-2.2,2.28a10.26,10.26,0,0,0-1.58,2.12,4.26,4.26,0,0,0-.63,2.38,2,2,0,0,0,1.26,1.73,4.44,4.44,0,0,0,2.51-.12,34.55,34.55,0,0,0,5.11-2.13c.84-.39,1.69-.79,2.56-1.15a6.68,6.68,0,0,1,2.73-.66,7,7,0,0,0-2.62.9c-.83.41-1.64.87-2.46,1.33a29.6,29.6,0,0,1-5.1,2.45,5.3,5.3,0,0,1-3,.24,2.9,2.9,0,0,1-2-2.48,5.23,5.23,0,0,1,.71-3,11.51,11.51,0,0,1,1.72-2.39l.64.84a7.77,7.77,0,0,1-3.9,1,3.29,3.29,0,0,1-2.05-.81,3.65,3.65,0,0,1-1.09-1.89,5,5,0,0,1,1-4,12,12,0,0,1,2.79-2.77l.42.85c-1.31.34-4.23.42-5.56-1.92C439.87,150.38,445.65,146.94,446.76,146.39Z" style="fill:#263238"></path><path d="M430.72,156.45l9,36.63s-30.61,8.39-38.91,5.23S373.14,168.23,367,152.4c-3.73-9.63,2.28-15.3,12.17-6.15,10.18,9.4,24.48,22.42,25.62,22.95S430.72,156.45,430.72,156.45Z" style="fill:#FF702F"></path><path d="M426.9,177.51c-.5-2.73-2.41-13.67-2.68-16.42,0-.05.07-.07.08,0,.77,2.57,3,13.31,3.48,16.05a149.87,149.87,0,0,1,2.53,16.45c0,.09-.15.15-.18,0C428.7,188.32,427.88,182.89,426.9,177.51Z" style="fill:#263238"></path><path d="M367,152.4c5,12.83,18.64,32.94,28.06,41.78L373,142.13h0C367,140,364.14,145,367,152.4Z" style="opacity:0.1"></path><path d="M309.83,210.23c.1.22,61.68,15.5,62.5,15,1.15-.74,6.29-67.22,4.66-79-.7-5-11.2-9.56-16.89-7.12-14.26,6.1-33.43,35.65-38.52,44.76C313.18,198.8,309.45,209.43,309.83,210.23Z" style="fill:#ebebeb"></path><path d="M376.48,144,360.55,232.6l13.3-1.67s-1.52-5.72-1.35-9.06c.92-18.62,5.3-60.15,5.56-63.79C378.4,153.38,378.16,146.37,376.48,144Z" style="fill:#FF702F"></path><path d="M364.57,137.65c.84,0-10.65,33.38-12.57,38.88s-14.59,52.66-14.59,52.66l-35.19-10.41s21.26-45.92,40.24-65.59C353.17,142.09,358.31,137.93,364.57,137.65Z" style="fill:#FF702F"></path><path d="M337.88,200.33c-1.54.49-3,1.16-4.54,1.78s-2.94,1.23-4.4,1.86c-2.91,1.23-5.85,2.47-8.64,4a.11.11,0,0,0,.08.2,84.81,84.81,0,0,0,9-3.53q2.13-.93,4.22-1.9c1.47-.69,3-1.34,4.38-2.17C338.09,200.47,338,200.29,337.88,200.33Z" style="fill:#263238"></path><path d="M338.64,202.56c-1.54.49-3,1.17-4.54,1.78s-2.94,1.23-4.41,1.86c-2.91,1.24-5.84,2.48-8.64,4-.11.06,0,.24.09.2a85.59,85.59,0,0,0,9-3.52c1.41-.63,2.82-1.25,4.22-1.91a48.16,48.16,0,0,0,4.38-2.17C338.85,202.7,338.77,202.52,338.64,202.56Z" style="fill:#263238"></path><path d="M377,147.4a0,0,0,0,0-.06,0c-.7,3.14-2.53,10.36-7.24,8.52a10.7,10.7,0,0,1-4.45-4.09,28,28,0,0,1-2.9-5.35,41.15,41.15,0,0,1-2.27-6.45c0-.09-.17,0-.15,0,.6,2.22,1,4.45,1.81,6.61a24.36,24.36,0,0,0,3.09,5.89c1.23,1.68,2.77,3.45,4.81,4.13a4.06,4.06,0,0,0,4.81-1.79A17.9,17.9,0,0,0,377,147.4Z" style="fill:#263238"></path><path d="M370.91,152.7c-3.58-.66-7.48-8.8-7.9-13.78,0-.34,1.67-3,3.59-6.45,1.15-2.06,2.39-4.39,3.36-6.59l12.34,9.47a38.31,38.31,0,0,0-5.08,7.87,6,6,0,0,0-.3.94c0,.05,0,.1-.05.16C376.39,146.16,374.37,153.34,370.91,152.7Z" style="fill:#ad6359"></path><path d="M370.4,126.21c-.89,2.53-4,13.28,5,17.56a9.52,9.52,0,0,0,1.45.56c0-.07,0-.13.05-.17a5.52,5.52,0,0,1,.31-.95,38.33,38.33,0,0,1,5.07-7.87Z" style="fill:#263238"></path><path d="M369.65,112.28c-2.27,5.12-1.34,20.83,2,24.72,4.88,5.64,13.8,7.21,18.82,1.13,4.87-5.89,3.3-26.33-.54-30C384.29,102.82,373,104.72,369.65,112.28Z" style="fill:#ad6359"></path><path d="M384.14,123.5s-.08,0-.08.09c.06,1.06,0,2.28-1,2.66,0,0,0,.07,0,.06C384.24,126.11,384.37,124.49,384.14,123.5Z" style="fill:#263238"></path><path d="M383.17,122.42c-1.71-.09-1.75,3.33-.17,3.41S384.6,122.49,383.17,122.42Z" style="fill:#263238"></path><path d="M389.76,123.47s.08,0,.08.1c0,1.05.08,2.28,1,2.64a0,0,0,0,1,0,.06C389.69,126.09,389.55,124.47,389.76,123.47Z" style="fill:#263238"></path><path d="M390.72,122.38c1.71-.11,1.8,3.31.22,3.41S389.29,122.47,390.72,122.38Z" style="fill:#263238"></path><path d="M381.84,120.83a12.23,12.23,0,0,0,1.33-.45,2.22,2.22,0,0,0,1.27-.71.74.74,0,0,0-.1-.88,1.8,1.8,0,0,0-1.81-.21A2.67,2.67,0,0,0,381,119.7.77.77,0,0,0,381.84,120.83Z" style="fill:#263238"></path><path d="M392.07,120.67a12.39,12.39,0,0,1-1.36-.37,2.29,2.29,0,0,1-1.31-.64.72.72,0,0,1,.06-.88,1.8,1.8,0,0,1,1.79-.32,2.64,2.64,0,0,1,1.59,1A.77.77,0,0,1,392.07,120.67Z" style="fill:#263238"></path><path d="M382.74,133.08c.25.26.5.6.88.64a3,3,0,0,0,1.15-.25s.06,0,0,.05a1.44,1.44,0,0,1-1.35.56,1.13,1.13,0,0,1-.82-1C382.62,133.07,382.7,133.05,382.74,133.08Z" style="fill:#263238"></path><path d="M383.9,129.93a3.59,3.59,0,0,0,2.38,1.63,4.72,4.72,0,0,0,1.3.08l.25,0,.23,0a.25.25,0,0,0,.22-.23h0a.41.41,0,0,0,0-.11h0v-.09c0-.81,0-2.06,0-2.06.3.16,1.81.86,1.79.43a54.6,54.6,0,0,0-1.26-10.93.1.1,0,0,0-.19,0c0,3.4.64,6.77.72,10.19a6.41,6.41,0,0,0-1.7-.54c-.11,0,.17,2.4.12,2.76v0a5,5,0,0,1-3.72-1.21C383.92,129.77,383.83,129.84,383.9,129.93Z" style="fill:#263238"></path><path d="M387.11,131.22a4.3,4.3,0,0,1-1.74,1.31,1.93,1.93,0,0,1-1.17.05c-.84-.23-.85-1-.69-1.67a4.91,4.91,0,0,1,.4-1A5.56,5.56,0,0,0,387.11,131.22Z" style="fill:#263238"></path><path d="M385.37,132.53a1.93,1.93,0,0,1-1.17.05c-.84-.23-.85-1-.69-1.67A2,2,0,0,1,385.37,132.53Z" style="fill:#ff98b9"></path><path d="M373.15,120.78c1.51-2.78.66-8,2.37-9.1,3.69-2.33,9.29,4.3,13.79,5.1s6.29-1.78,6.1-5.45-2.77-6.56-7.54-8.13a18.64,18.64,0,0,0-12.67.81s1.4-1.58,1.08-2.2-2.74.71-3.52,1.32a6.67,6.67,0,0,0-1.42,1.92,7.19,7.19,0,0,0-2-.54,4.13,4.13,0,0,0-2.78.71c-.12.25,1.43.72,2.53,1,0,0-2.54,2.4-2.9,4.76s1.39,14.18,2.25,14.46C369.58,125.75,372.53,121.92,373.15,120.78Z" style="fill:#263238"></path><path d="M369.61,106s.09,0,0,.07a7.48,7.48,0,0,0-2.92,2.93,9.27,9.27,0,0,0-.88,4.84c.16,3.22,1.19,6.28,2,9.37,0,.09-.12.13-.15,0a33.09,33.09,0,0,1-2.19-10.08C365.5,110.24,366.71,107.1,369.61,106Z" style="fill:#263238"></path><path d="M375.54,110.5a10.83,10.83,0,0,1,3.91.94,15.19,15.19,0,0,1,3.1,2.26,15.38,15.38,0,0,0,7.67,3.59s0,.06,0,0a13.37,13.37,0,0,1-7.22-2.89,34.31,34.31,0,0,0-3.2-2.45,13.87,13.87,0,0,0-4.29-1.26A.12.12,0,0,1,375.54,110.5Z" style="fill:#263238"></path><path d="M378.09,103.23a20.8,20.8,0,0,1,5.91-.89,16.27,16.27,0,0,1,5.67.77c3.14,1.08,5.76,3.64,5.95,7.09a7.21,7.21,0,0,1-1.52,4.92c-.08.09-.22,0-.15-.11a7.38,7.38,0,0,0-.19-8.85c-2.25-2.75-5.94-3.57-9.34-3.6a29.91,29.91,0,0,0-6.32.69S378.08,103.23,378.09,103.23Z" style="fill:#263238"></path><path d="M371.4,125.21s-3-5.34-5.36-4.33-.5,8.5,2,9.76a2.72,2.72,0,0,0,3.76-1.08Z" style="fill:#ad6359"></path><path d="M366.64,123s-.06.06,0,.07c1.78,1,2.58,2.77,3.09,4.63a1.5,1.5,0,0,0-2.19-.63s0,.11,0,.1a1.66,1.66,0,0,1,1.77.77,7.89,7.89,0,0,1,.72,1.56c.07.18.38.12.34-.08l0,0C370.66,127,369.16,123.51,366.64,123Z" style="fill:#263238"></path><path d="M377,144.1l-6.51,7.06-6.36-14.46L359.94,139s3.78,20.59,4.13,19.85l6.16-5.88,3.06,6.87,4.35-12.69Z" style="fill:#ebebeb"></path><path d="M375.8,153.66c.64-2.12,1.35-4.24,1.9-6.39,0-.07-.08-.15-.13-.07-1.17,1.84-3.6,10-4.33,11.86v0c-.13-.3-2.93-6.14-3-6.09-1.18.86-5.68,5.14-6,5.55-.6-3.27-3.07-15.27-4-18.5a.08.08,0,0,0-.15,0c.35,3.34,3.55,19.44,3.69,19.45a86.19,86.19,0,0,0,6.46-6.23c.4,1.19,3,7.58,3.17,7.28A70,70,0,0,0,375.8,153.66Z" style="fill:#263238"></path><path d="M361.59,149.7c6.91,27.5,12.92,79.39,16.51,86.91,2.43,5.1-25.59,12.42-26.72,8.71-1.45-4.76-4.65-62.8-1.29-93.23C351.49,139.49,359.52,141.49,361.59,149.7Z" style="fill:#ad6359"></path><path d="M356.54,255.37c-4.8-2.56-5.16-10.05-5.16-10.05l23.14-13.58s3.24,6.43,8.57,8.09c1.3.41,7.94,1.45,14.57,3.59,7.53,2.41,15.12,5.91,15.59,6.74.91,1.6-1.17,3.85-6.62,3.42s-15.94-3.11-16.61-3.1a4.58,4.58,0,0,0-.66.13h0c-.26.15-6.7,6.43-9.72,8.23-1.83,1.09-8.76.44-12.78-.14C360.38,257.79,357.3,256,356.54,255.37Z" style="fill:#ad6359"></path><path d="M380.51,245.7s13.2-1.81,15.66-.55,18.45,6.6,19.39,8.17-1.17,3.85-6.63,3.43-15.93-3.12-16.61-3.11-11.89,3.47-13,3.48S380.51,245.7,380.51,245.7Z" style="fill:#ad6359"></path><path d="M387.8,243.63c1.45.12,2.9.31,4.35.49l2.17.33,1.08.2.55.13a4.8,4.8,0,0,1,.54.19c2.72,1,5.45,2.06,8.17,3.12s5.42,2.12,8.13,3.27a9.28,9.28,0,0,1,1.93,1.15,4.51,4.51,0,0,1,.8.83,2,2,0,0,1,.39,1.14,1.57,1.57,0,0,1-.54,1.07,3.33,3.33,0,0,1-1,.58,8,8,0,0,1-2.14.51,9.19,9.19,0,0,0,2.05-.7,3.1,3.1,0,0,0,.85-.6,1.16,1.16,0,0,0,.36-.86,2.3,2.3,0,0,0-1.11-1.58,8.28,8.28,0,0,0-1.86-1c-2.72-1-5.46-2-8.17-3.1s-5.43-2.13-8.11-3.3a10.83,10.83,0,0,0-2-.58c-.71-.16-1.42-.3-2.13-.44Z" style="fill:#263238"></path><path d="M378.6,247.61s14.47-1.93,16.94-.66,18.44,6.59,19.39,8.17-1.18,3.85-6.63,3.42-15.94-3.11-16.61-3.11-11.89,3.47-13,3.48S378.6,247.61,378.6,247.61Z" style="fill:#ad6359"></path><path d="M385.51,244.71c1.78.23,3.54.53,5.31.84.88.16,1.76.34,2.64.53l1.31.31a10.44,10.44,0,0,1,1.3.44q5,1.95,10,3.95l5,2,1.24.52a12.74,12.74,0,0,1,1.25.59,6.14,6.14,0,0,1,1.14.85,2.4,2.4,0,0,1,.74,1.32,1.33,1.33,0,0,1-.12.81,1.88,1.88,0,0,1-.5.61,4.48,4.48,0,0,1-1.26.66,12.47,12.47,0,0,1-2.68.53,15.84,15.84,0,0,1-5.36-.43,16.9,16.9,0,0,0,5.31.06,12.12,12.12,0,0,0,2.56-.62,3.56,3.56,0,0,0,1.08-.61,1,1,0,0,0,.39-.92,1.85,1.85,0,0,0-.61-1,5.34,5.34,0,0,0-1-.72c-.74-.39-1.62-.69-2.44-1l-5-2c-3.31-1.34-6.63-2.67-9.92-4.09-.43-.19-.8-.33-1.22-.47l-1.28-.36-2.6-.64Z" style="fill:#263238"></path><path d="M378.64,247.56s13,1.27,15.26,2.45,13.43,4.13,14.31,5.6-1.09,3.58-6.17,3.18-11.1-.89-11.73-.89l-11.6.18C377.66,258.09,378.64,247.56,378.64,247.56Z" style="fill:#ad6359"></path><path d="M382.2,246.83c2.28.37,4.54.78,6.81,1.17,1.14.2,2.27.41,3.41.63l.85.16a8.19,8.19,0,0,1,.85.23c.56.18,1.1.37,1.65.57,2.16.81,4.3,1.67,6.42,2.6,1.05.46,2.11.94,3.15,1.44.52.25,1,.5,1.56.77a10.51,10.51,0,0,1,1.54.93,1.45,1.45,0,0,1,.57,1,1.52,1.52,0,0,1-.36,1.05,4.29,4.29,0,0,1-1.52,1.12,7.42,7.42,0,0,1-3.53.72c-2.31-.11-4.6-.28-6.91-.45s-4.62-.33-6.87-.53c-1.13,0-2.29,0-3.44-.07s-2.31-.05-3.46-.12c2.3-.23,4.59-.38,6.91-.47l6.91.48c2.3.14,4.6.3,6.89.39a6.84,6.84,0,0,0,3.18-.63,3.6,3.6,0,0,0,1.26-.9.63.63,0,0,0-.09-1,11.23,11.23,0,0,0-1.41-.86c-.5-.27-1-.53-1.53-.78-1-.5-2.08-1-3.12-1.45-2.1-.93-4.21-1.87-6.34-2.72-.53-.21-1.07-.42-1.61-.6a11.92,11.92,0,0,0-1.64-.42l-3.38-.74Z" style="fill:#263238"></path><path d="M379.7,235.45l-31.64,7.68s-.69-68,1.49-89.21c1.6-15.58,9.85-13.7,13.22-2.74C367.37,166.16,379.7,235.45,379.7,235.45Z" style="fill:#FF702F"></path><path d="M350.34,236c4.24-.72,21.47-4.31,25.14-5.34.26-.07.27-.25,0-.21-12.75,1.86-21,4.46-25.16,5.39C350.22,235.88,350.23,236,350.34,236Z" style="fill:#263238"></path><path d="M348.86,163.12c-.22,1.53-.39,3.06-.55,4.6,0-.28-.06-.56-.08-.84s0-.58,0-.87,0-.61,0-.9a.09.09,0,0,0-.17,0,5.2,5.2,0,0,0-.09,1.42,14.32,14.32,0,0,0,.17,1.45,2.8,2.8,0,0,0,.12.63c-.24,2.56-.43,5.13-.52,7.71-.09,2.22-.1,4.44-.08,6.66s.2,4.51.28,6.77a.08.08,0,0,0,.16,0c0-2.22.13-4.45.18-6.67s.13-4.43.2-6.65c.14-4.43.33-8.86.52-13.28A.05.05,0,0,0,348.86,163.12Z" style="fill:#263238"></path><path d="M372,192c-.35-1.75-.73-3.49-1.1-5.23a41.48,41.48,0,0,0-1.23-5.08,0,0,0,0,0,0,0,41.73,41.73,0,0,0,.82,5.2c.32,1.76.64,3.52,1,5.27.7,3.54,1.49,7,2.32,10.57,0,.1.17.05.15-.05C373.33,199.06,372.71,195.51,372,192Z" style="fill:#263238"></path></g><g id="freepik--Table--inject-153"><rect x="346.65" y="259.24" width="84.71" height="197.12" style="fill:#dbdbdb"></rect><rect x="67.18" y="259.24" width="84.71" height="197.12" style="fill:#dbdbdb"></rect><rect x="151.89" y="259.24" width="279.47" height="26.33" style="fill:#ebebeb"></rect><polygon points="152.43 272.4 187.3 272.22 222.16 272.15 291.9 272.03 361.63 272.15 396.5 272.22 431.36 272.4 396.5 272.58 361.63 272.65 291.9 272.77 222.16 272.65 187.3 272.58 152.43 272.4" style="opacity:0.1"></polygon><rect x="151.89" y="259.24" width="11.4" height="197.12" style="fill:#ebebeb"></rect><rect x="419.97" y="259.24" width="11.4" height="197.12" style="fill:#ebebeb"></rect></g><g id="freepik--Plant--inject-153"><path d="M455.84,387.18a290.91,290.91,0,0,0-.42-30.69A392.08,392.08,0,0,0,445.8,294c-2.68-11.57-6-22.95-9.42-34.31-.11-.34-.65-.25-.56.11,10.64,40.06,19.37,81.4,18.77,123-.17,11.65-1.52,23.1-2.63,34.68,0,.31.48.43.55.11C454.71,407.68,455.42,397.3,455.84,387.18Z" style="fill:#FF702F"></path><path d="M435.82,259.76s-16.11,40.91-12.51,50.52S434.36,322,434.36,322s-9.86,14.08-3,27.28,22.2,12.58,23.22,27.55C454.61,376.78,455.46,314.18,435.82,259.76Z" style="fill:#FF702F"></path><path d="M452.86,350.93a.31.31,0,0,0,0-.21,374.68,374.68,0,0,0-15.63-82.29c0-.08-.16-.06-.13,0q4.79,17.94,8.46,36.09a17.67,17.67,0,0,0-7.7-4.29s-.08.06,0,.08c3,1.29,5.83,2.78,7.94,5.31q.71,3.56,1.37,7.12c-3.6-4-8.6-6-13.6-7.92-.07,0-.1.08,0,.11,5.2,2.11,10.38,4.85,13.91,9.33q1.84,10.18,3.24,20.43a19.39,19.39,0,0,0-9.61-5.5c-.11,0-.18.14-.06.17a20.3,20.3,0,0,1,9.74,6.24l.06.05c.33,2.4.63,4.81.92,7.22a24.9,24.9,0,0,0-6.74-4.07.06.06,0,0,0,0,.11,23,23,0,0,1,6.75,4.46.18.18,0,0,0,.09,0c.26,2.29.53,4.58.76,6.87a32.64,32.64,0,0,0-13.67-9.75c-.1-.05-.16.12-.05.16a35.74,35.74,0,0,1,13.47,10.36.28.28,0,0,0,.34.11c.34,3.52.66,7.05.91,10.58,0,.05.09.05.09,0Q453.29,356.36,452.86,350.93Z" style="fill:#263238"></path><path d="M439.91,296.19a20.09,20.09,0,0,0-9.68-3,.06.06,0,1,0,0,.12,37.93,37.93,0,0,1,9.57,3.13A.14.14,0,0,0,439.91,296.19Z" style="fill:#263238"></path><path d="M441.86,339.5A20.52,20.52,0,0,0,434.6,337c-.09,0-.1.12,0,.13a27.47,27.47,0,0,1,7.19,2.53C441.88,339.73,442,339.56,441.86,339.5Z" style="fill:#263238"></path><path d="M498.2,311a108.89,108.89,0,0,0-18.65,16.31,66.88,66.88,0,0,0-13.08,22.18,166,166,0,0,0-9.75,53.06,128.93,128.93,0,0,0,2.88,29.84.28.28,0,0,0,.55-.1,167.73,167.73,0,0,1,.29-52.16c2.78-16.93,7.12-35.34,17.88-49.09,5.86-7.49,13.16-13.38,20.38-19.47C499.08,311.2,498.59,310.67,498.2,311Z" style="fill:#FF702F"></path><path d="M459.09,390.32a100.13,100.13,0,0,1,13.6-17.38c8.06-8.06,14.85-13.79,15.9-19.12s-8.07-9.26-8.07-9.26,11.15,2,14.21-2.68,4.52-31.8,4.52-31.8-20.3,14.49-29.75,34.8S459.09,390.32,459.09,390.32Z" style="fill:#FF702F"></path><path d="M492.23,317c-8.54,8.39-17.14,17.33-22.17,28.35a108.7,108.7,0,0,0-4.48,11.68v0c-.26.8-.53,1.6-.77,2.41a.22.22,0,0,0,0,.13A228.5,228.5,0,0,0,459,384.68c0,.05.07.08.08,0,.88-4.23,1.84-8.5,2.92-12.76l.12,0a18,18,0,0,1,5.33-1.36c.12,0,.11-.22,0-.21a20.08,20.08,0,0,0-5.27,1c1-3.84,2.05-7.67,3.25-11.45a56.84,56.84,0,0,1,12-1.57,0,0,0,0,0,0-.07,46.08,46.08,0,0,0-11.84,1c.21-.65.43-1.29.64-1.94a62.32,62.32,0,0,1,8-1.36,0,0,0,0,0,0-.08,39,39,0,0,0-7.84.95c1.1-3.27,2.29-6.49,3.62-9.63a58.66,58.66,0,0,1,3.83-7.44,49.14,49.14,0,0,1,6.5-1.16c.06,0,.05-.1,0-.1a17.52,17.52,0,0,0-6.07.6c1.07-1.73,2.19-3.42,3.39-5.05h0c4.55-1,9.16-1.95,13.82-1.07.08,0,.11-.12,0-.14-4.43-1.17-8.83-.5-13.24.38.48-.64,1-1.28,1.47-1.9a29.83,29.83,0,0,1,8.5-1.34c.06,0,.07-.09,0-.09a22.09,22.09,0,0,0-7.93.7c3.76-4.68,7.92-9.07,12-13.41C492.58,317,492.43,316.83,492.23,317Z" style="fill:#263238"></path><path d="M492,335.52a17.53,17.53,0,0,0-4-.14c-.17,0-.15.28,0,.28,1.34,0,2.67-.06,4,0A.08.08,0,0,0,492,335.52Z" style="fill:#263238"></path><path d="M477.39,361.82a18.37,18.37,0,0,0-6.25,1.26c-.05,0,0,.1,0,.09,2.06-.49,4.15-.69,6.24-1A.16.16,0,0,0,477.39,361.82Z" style="fill:#263238"></path><path d="M473,352.74a12.45,12.45,0,0,0-2.65.24.08.08,0,0,0,0,.15A13.14,13.14,0,0,0,473,353,.14.14,0,0,0,473,352.74Z" style="fill:#263238"></path><path d="M399.59,339.73a92.38,92.38,0,0,1,18.87,8.88,56.42,56.42,0,0,1,15.71,14.93,139.52,139.52,0,0,1,20.16,40.69A108.52,108.52,0,0,1,458.9,429a.24.24,0,0,1-.48,0,141.08,141.08,0,0,0-12.29-42.15C440,373.89,432.2,360,420.32,351.35c-6.47-4.7-13.75-7.78-21-11C398.94,340.14,399.21,339.6,399.59,339.73Z" style="fill:#FF702F"></path><path d="M449.59,394.92a84.39,84.39,0,0,0-15-10.92c-8.39-4.66-15.21-7.73-17.29-11.8s4.4-9.36,4.4-9.36-8.57,4.2-12.12,1.12-11-24.69-11-24.69,19.78,7,32.13,21.29S449.59,394.92,449.59,394.92Z" style="fill:#FF702F"></path><path d="M448.56,390.46c-9.89-18.56-23.09-35.36-41.17-46.44,0,0,0,0,0,0a90.53,90.53,0,0,1,13.24,10.36A21,21,0,0,0,410,356.63a.06.06,0,0,0,.06.11A29.36,29.36,0,0,1,421,354.89s.08,0,.12,0c.64.61,1.28,1.23,1.9,1.85a33.85,33.85,0,0,0-5.68.75c-.05,0,0,.09,0,.08a28.71,28.71,0,0,1,6-.49,123.58,123.58,0,0,1,9.32,10.59,9.5,9.5,0,0,0-4,.29.08.08,0,0,0,0,.15A20.73,20.73,0,0,1,433,368c.54.69,1.09,1.37,1.62,2.07a38.52,38.52,0,0,0-12,1.17c-.06,0,0,.1,0,.09a48,48,0,0,1,12.32-.8c.51.67,1,1.36,1.48,2a26.07,26.07,0,0,0-7.14.82c-.09,0-.07.16,0,.14a27.46,27.46,0,0,1,7.4-.57c2.13,2.93,4.16,5.93,6.12,9a6.52,6.52,0,0,0-3.13.19,0,0,0,1,0,0,.08,14.32,14.32,0,0,1,3.4.16q2.64,4.13,5.09,8.3C448.31,390.88,448.69,390.71,448.56,390.46Z" style="fill:#263238"></path><path d="M433.17,375.06a15.32,15.32,0,0,0-5.74.71c-.05,0,0,.09,0,.08a44,44,0,0,1,5.72-.58A.11.11,0,0,0,433.17,375.06Z" style="fill:#263238"></path><path d="M415.92,352.44a9.85,9.85,0,0,0-2.65.15.08.08,0,0,0,0,.16c.88-.09,1.73-.06,2.61-.09A.11.11,0,0,0,415.92,352.44Z" style="fill:#263238"></path><polygon points="475.1 456.31 430.46 456.31 436.82 409.69 438.45 397.73 467.1 397.73 468.73 409.69 475.1 456.31" style="fill:#455a64"></polygon><polygon points="468.73 409.69 436.82 409.69 438.45 397.73 467.1 397.73 468.73 409.69" style="fill:#263238"></polygon><rect x="434.35" y="393.58" width="36.85" height="10.12" style="fill:#455a64"></rect></g><g id="freepik--character-1--inject-153"><path d="M171.07,106.54c11.33,8.14,14.67,33.6,4.83,52-10.64,19.88-33,19.94-44.6,13.14-12.31-7.21-13.63-22.52-6-30.14,7.34-7.36,17.32-8.11,21.32-15.33,1.91-3.46,3-10.3,5.6-15.53C155.09,104.84,164.22,101.62,171.07,106.54Z" style="fill:#263238"></path><path d="M175.24,110.77A53.65,53.65,0,0,1,183,130.9a43.4,43.4,0,0,1,.42,10.86,42.93,42.93,0,0,1-.88,5.39,49,49,0,0,1-1.56,5.22c-2.48,6.81-6.62,13.19-12.53,17.51a31,31,0,0,1-9.74,4.78,31.57,31.57,0,0,1-10.76,1.08,31.59,31.59,0,0,0,20.15-6.33,37.13,37.13,0,0,0,12.16-17.3,48.19,48.19,0,0,0,1.57-5.13,41,41,0,0,0,.89-5.28,45.7,45.7,0,0,0-.3-10.71,54.41,54.41,0,0,0-2.63-10.43A55.38,55.38,0,0,0,175.24,110.77Z" style="fill:#263238"></path><path d="M149.62,117.47a33.19,33.19,0,0,1-1.91,5.7,19,19,0,0,1-3.33,5,16.1,16.1,0,0,1-4.92,3.57c-1.82.84-3.62,1.67-5.38,2.6a29.94,29.94,0,0,0-9.36,7.13,17.83,17.83,0,0,0-4.12,10.91,17.19,17.19,0,0,1,.8-6,16.66,16.66,0,0,1,1.2-2.78,17.66,17.66,0,0,1,1.67-2.54,29.15,29.15,0,0,1,9.46-7.44c1.77-.95,3.62-1.76,5.43-2.57a16.44,16.44,0,0,0,4.78-3.35C146.75,125,148.36,121.24,149.62,117.47Z" style="fill:#263238"></path><path d="M151.13,343.51l-33.59,27.14c-6.45,5.15-12,9.79-14.66,12.45a.1.1,0,0,0,0,0c-1,1-1.58,1.72-1.61,2.06,0,0,0,.05,0,.07.23,3,39.91,55.68,41.92,57.05s6.07-4.23,6.16-7.5-6.08-30.26-6.08-30.26l33.29-27.44Z" style="fill:#ffc4c0"></path><path d="M146.33,418.65c1.52,7.09,3,14.54,3,16.18-.09,3.27-4.16,8.89-6.16,7.5s-41.69-54.09-41.92-57c0,0,0-.05,0-.08,0-.34.61-1.06,1.62-2.06a.06.06,0,0,1,0,0c2.16-2.16,6.23-5.62,11.14-9.6,1.13-.93,2.32-1.88,3.53-2.85l33.58-27.15,25.39,33.63-33.29,27.43s1.56,6.85,3.11,14.07Z" style="fill:#ffc4c0"></path><path d="M149.3,434.83c-.09,3.27-4.16,8.89-6.16,7.5s-41.69-54.09-41.92-57c0,0,0-.05,0-.08,0-.34.61-1.06,1.62-2.06a.06.06,0,0,1,0,0c2.16-2.16,6.23-5.62,11.14-9.6,7.28,14.72,27.26,54.29,31.29,54,1.43-.1,1.38-4.62,1-8.86C147.85,425.74,149.34,433.19,149.3,434.83Z" style="fill:#263238"></path><path d="M169.28,311.18c-2.38,11.74-51.1,58.6-51.1,58.6l34,39.22s69.17-69.06,65.56-95c-3.14-22.57-36.93-113.34-36.93-113.34h-39S171.62,299.63,169.28,311.18Z" style="fill:#37474f"></path><path d="M169.28,311.18c-2.38,11.74-51.1,58.6-51.1,58.6l34,39.22s69.17-69.06,65.56-95c-3.14-22.57-36.93-113.34-36.93-113.34h-39S171.62,299.63,169.28,311.18Z" style="fill:#37474f"></path><path d="M156,399.67c-4.51-5.62-3.14-4.07-7.71-9.63-2.24-2.73-17-20.62-19.51-22.79-.06-.05-.15,0-.11.09,1.69,2.88,16.74,20.51,19,23.19,4.68,5.48,3.4,3.85,8.14,9.28A.11.11,0,0,0,156,399.67Z" style="fill:#263238"></path><path d="M174.12,305.46c-.56-2.94-1.19-5.86-1.81-8.78q-1.91-8.94-4-17.83-4.2-17.64-9.15-35.08c-3.33-11.67-6.84-23.32-10.89-34.75q-.75-2.13-1.53-4.23a.09.09,0,0,0-.17.05c3.51,11.46,7.12,22.88,10.4,34.41s6.3,23,9.16,34.6c1.43,5.82,2.76,11.66,4.07,17.51q1,4.31,1.87,8.63a62.76,62.76,0,0,1,1.64,8.9,13.57,13.57,0,0,1-2.3,8c-1.46,2.39-3.18,4.64-4.84,6.89-3.33,4.52-35.06,39.88-36.08,40.84-.08.07,0,.19.12.11,4.26-3.82,31.18-33,34.6-37.47q2.53-3.34,5-6.78a26.92,26.92,0,0,0,3.87-6.82A16.09,16.09,0,0,0,174.12,305.46Z" style="fill:#263238"></path><path d="M174,200.66,167,293.54c-6.75-31.79-25.16-92.88-25.16-92.88Z" style="fill:#263238"></path><path d="M160.65,391.9s8.42,41,8.42,41c.11,8.25.36,15.48.83,19.21a.13.13,0,0,0,0,.06,5.83,5.83,0,0,0,.64,2.54l0,0c2.48,1.63,68.46,2.66,70.77,1.92s.39-7.39-2.14-9.47-27.62-13.77-27.62-13.77l-8.83-40.95Z" style="fill:#ffc4c0"></path><path d="M241.37,456.69c-2.31.74-68.29-.28-70.76-1.91l-.06-.06a5.83,5.83,0,0,1-.64-2.54s0,0,0-.06c-.37-3-.61-8.17-.75-14.34,16.77,3.26,58.84,11.05,61,7.73.83-1.28-3.3-4.25-7.08-6.61,7,3.34,14.77,7.21,16.13,8.32C241.76,449.3,243.69,456,241.37,456.69Z" style="fill:#263238"></path><path d="M180.35,200.66A160.1,160.1,0,0,0,177,220.11c-.82,8.16-1.84,15.38-2.92,16.28-1.24,1-7.4,5-9.47,6.23,0,0,19.21,58.23,24.16,77.64,7.19,28.14,24.4,112.56,24.4,112.56H167.32s-13.94-80.36-20-107.15c-5.22-23-25.24-91.87-25.24-91.87a40,40,0,0,1,1.62-33.13S180.36,200.63,180.35,200.66Z" style="fill:#37474f"></path><path d="M211.52,423.9c-7.2,0-5.13-.13-12.34-.09-3.53,0-26.7.18-30,.77-.07,0-.07.14,0,.15,3.31.5,26.47-.06,30-.15,7.21-.18,5.13-.21,12.34-.47A.11.11,0,0,0,211.52,423.9Z" style="fill:#263238"></path><path d="M177.33,234.09a87.76,87.76,0,0,0-12.65,8.47c-.15.12,0,.37.17.26,4.29-2.69,8.68-5.3,12.82-8.22A.31.31,0,0,0,177.33,234.09Z" style="fill:#263238"></path><path d="M173.83,202.41c0-.16-.32-.15-.29,0,.88,5.45,1.28,10.3,1.61,15.47.16,2.4.28,15.77-4,15.46-.71-.06-1.17-.68-1.44-1.7a16.43,16.43,0,0,1-.07-4.09c0-2.81,0-5.61-.23-8.42a75.47,75.47,0,0,0-2.57-15.44.13.13,0,1,0-.26.06,142.81,142.81,0,0,1,2.07,21.55c0,3.48-.91,8.86,2.73,8.83s4.72-9,4.8-11.38A79,79,0,0,0,173.83,202.41Z" style="fill:#263238"></path><path d="M171.34,233.69a23.29,23.29,0,0,0-.5,2.85,6.54,6.54,0,0,0,0,2.29.17.17,0,0,0,.3,0,8.29,8.29,0,0,0,.62-2.32c.18-.88.38-1.77.53-2.66A.46.46,0,0,0,171.34,233.69Z" style="fill:#263238"></path><path d="M162,398.63c-.12-1.06-.26-2.12-.41-3.18-.29-2-.63-4.05-.94-6.08-.63-4.08-1.33-8.14-2-12.2-1.44-8.1-3.1-16.17-4.85-24.21-1-4.54-2.15-9-3.36-13.52-.09-.31-.53-.16-.47.15.74,4.1,1.45,8.21,2.29,12.3s1.67,8.15,2.48,12.23c1.6,8.07,3.09,16.16,4.69,24.23.45,2.28.86,4.56,1.3,6.84.23,1.14.46,2.27.7,3.41s.6,2.23.78,3.37c0,.11.18.06.16-.05C162.14,400.84,162.12,399.73,162,398.63Z" style="fill:#263238"></path><path d="M193.61,337.7c-1.53-7.61-3.59-15.12-5.66-22.59-4.16-15.05-9.07-29.88-14-44.7l-4.23-12.82c-.71-2.13-4.17-13.65-4.6-14.74a.09.09,0,1,0-.17.05c1,3.93,2.35,9.65,3.49,13.53s2.37,7.64,3.56,11.46c2.34,7.51,4.72,15,7,22.54,4.49,14.88,9,29.75,12.61,44.87,1,4.23,2,8.46,3,12.71s1.73,8.52,2.62,12.78c0,.11.22.08.21,0C196.68,353,195.14,345.33,193.61,337.7Z" style="fill:#263238"></path><path d="M165.1,377.5c-2.52-14.51-5.54-28.95-8.89-43.29s-7.12-28.75-11.25-43-8.71-28.3-13.62-42.27a177.05,177.05,0,0,1-6.23-20.11c-1.51-6.78-2.28-14.11-.7-21a34.94,34.94,0,0,1,1.57-5.1c0-.11-.12-.21-.17-.09-5.52,12.85-1.94,26.91,2.26,39.58,2.3,6.94,4.76,13.82,7,20.78q3.49,10.69,6.7,21.5c4.23,14.26,8.16,28.6,11.68,43.06s6.65,29,9.41,43.61,5.1,29.39,7.46,44.13c.31,1.92.55,3.84.8,5.77,0,.11.18.1.17,0C169.54,406.54,167.62,392,165.1,377.5Z" style="fill:#263238"></path><path d="M160.67,159.14c9.87,20.38,22.41,42.45,34.15,45.91,11.17,3.3,38.87-23.89,43.71-33.06,1.67-3.16-21.28-17.84-24.36-15.58-5.8,4.28-16.45,17.93-18.2,17.52s-16.35-14.29-29.55-26C158.43,140.86,153.83,145,160.67,159.14Z" style="fill:#ffc4c0"></path><path d="M228.68,179.12s10.41-3.1,17.12-5.46c3.75-1.31,10-4.13,12.28-6.35,3.46-3.33,15.79-19.44,11.95-22.51-3.48-2.79-12.32,12.4-12.32,12.4s10.27-14.54,5.47-17.12S250.67,156,250.67,156s10.22-15.17,4.85-17.05c-4.06-1.42-12,14.93-12,14.93s8.69-13.1,4.58-14.74c-4.55-1.81-12.81,12.82-12.81,12.82A26.14,26.14,0,0,0,212.2,158C211.26,158.86,228.68,179.12,228.68,179.12Z" style="fill:#ffc4c0"></path><path d="M255,161.75c8.38-10.13,9.39-17.66,9.32-17.47-1.59,4.6-5.49,11-6.61,12.78s-1.67,2.89-2.78,4.65C254.85,161.76,254.91,161.79,255,161.75Z" style="fill:#263238"></path><path d="M248,158.54a44.59,44.59,0,0,0,8.4-13.43c.07-.2,0-.18-.13,0-1.36,2.29-6.86,11.19-8.32,13.4A0,0,0,1,0,248,158.54Z" style="fill:#263238"></path><path d="M241.86,156.18a33.14,33.14,0,0,0,6.19-10.59c.08-.19-.07-.16-.17,0-2,3.56-3.54,6.37-6.13,10.49C241.7,156.16,241.8,156.25,241.86,156.18Z" style="fill:#263238"></path><path d="M208.94,159.76l21.34,24.14s-24.18,25.41-35.05,22.32-30.62-33.42-36.65-52.46c-4.17-13.18,3-10.85,10.41-4.22s26.8,23.13,27.67,22.92S208.94,159.76,208.94,159.76Z" style="fill:#FF702F"></path><path d="M158.57,153.76c6,19,25.79,49.36,36.66,52.46,4.8,1.37,12.21-2.84,19-8,0,0,0,0,0,0-10.8-11.87-39.62-40.7-52.67-53.69C157.87,143.26,155.92,145.36,158.57,153.76Z" style="opacity:0.1"></path><path d="M223,187.57c-3.1-3.34-15.27-17.44-17.69-20.67-.17-.22-.07-.38.14-.17,9.51,9.76,14.81,17.28,17.67,20.71C223.19,187.52,223.06,187.65,223,187.57Z" style="fill:#263238"></path><path d="M123.75,199.69l58.28,1-4.57-17.45A18.27,18.27,0,0,0,180.09,168c-1.4-5.13-8-12.83-12.1-17.72-9.9-11.9-18.51-6.52-21.25-3.46C136.26,158.49,123.75,199.69,123.75,199.69Z" style="fill:#fff"></path><path d="M151.24,143.46s5.71,15.17,7.94,18.64,8.81,9.67,8.81,9.67.76-9,0-14.06-5.11-12.41-5.11-12.41a10.59,10.59,0,0,1,3.08,2.41c4.93,5,13.51,14.92,14.81,21.69a18.1,18.1,0,0,1-2.66,13.68l6.57,21-9.2,2.85L171,201.53l-4.67,6L119.66,201l7.75-14.61s11.09-28.83,15.49-35.13C147.94,144,151.24,143.46,151.24,143.46Z" style="fill:#FF702F"></path><path d="M161.87,182.17a50.74,50.74,0,0,1,7.5-.12c1.24.08,2.47.23,3.7.4.61.09,1.22.15,1.84.21a7.87,7.87,0,0,0,1.94,0,0,0,0,1,1,0,.08,13.67,13.67,0,0,1-1.81.3,15.1,15.1,0,0,1-1.78,0c-1.26-.08-2.51-.22-3.77-.31-2.54-.18-5.08-.36-7.62-.36C161.76,182.38,161.75,182.18,161.87,182.17Z" style="fill:#263238"></path><path d="M156.21,185.44a54.11,54.11,0,0,1,6-1.39c1-.18,2-.29,3.07-.37.49,0,1-.08,1.48-.1s1.09,0,1.63,0c.05,0,.07.08,0,.08-.51.05-1,.19-1.52.27l-1.52.23c-1,.16-2,.33-3,.48-2,.3-4.07.62-6.1,1C156.12,185.63,156.1,185.47,156.21,185.44Z" style="fill:#263238"></path><path d="M152.71,144.15c.08,1.06,4,8.48,8.71,9,1.54.16,2.78-8.21,2.78-8.21l.23-.6,3.25-8.36-9.18-8.07-1.33-1.09s-.74,2.35-1.63,5.28c0,.14-.09.27-.13.42s-.11.32-.15.47c-.14.44-.28.88-.41,1.33s-.2.67-.29,1l-.3,1.07A57.29,57.29,0,0,0,152.71,144.15Z" style="fill:#ffc4c0"></path><path d="M155.54,132.07a18,18,0,0,0,8.89,12.24l3.25-8.36-9.18-8.07-1.33-1.09S156.43,129.14,155.54,132.07Z" style="fill:#263238"></path><path d="M182.08,121.6c2.89,15.48-6.05,19-9.39,19.58-3,.57-13.42,2.1-17.9-13s1.8-21.34,8.66-23S179.18,106.12,182.08,121.6Z" style="fill:#ffc4c0"></path><path d="M179.42,120.71a9.63,9.63,0,0,1-1.08-.1,1.81,1.81,0,0,1-1.09-.31.57.57,0,0,1-.08-.68,1.38,1.38,0,0,1,1.33-.48,2,2,0,0,1,1.35.57A.59.59,0,0,1,179.42,120.71Z" style="fill:#263238"></path><path d="M168.92,121.53a9.55,9.55,0,0,0,1-.34,1.81,1.81,0,0,0,1-.55.56.56,0,0,0-.08-.68,1.4,1.4,0,0,0-1.4-.17,2.09,2.09,0,0,0-1.19.87A.59.59,0,0,0,168.92,121.53Z" style="fill:#263238"></path><path d="M171.57,124.28s-.07.06-.06.1c.18,1.06.21,2.3-.7,2.79,0,0,0,.07,0,.06C172,126.9,171.92,125.25,171.57,124.28Z" style="fill:#263238"></path><path d="M170.47,123.3c-1.72.11-1.38,3.55.22,3.45S171.92,123.21,170.47,123.3Z" style="fill:#263238"></path><path d="M169.81,123.55c-.28.22-.54.6-.9.67s-.77-.25-1.07-.56c0,0-.06,0-.06,0,.06.66.38,1.31,1.1,1.34s1.05-.6,1.15-1.28C170.05,123.63,169.93,123.46,169.81,123.55Z" style="fill:#263238"></path><path d="M177.45,123.18s.09,0,.09.09c.07,1.07.32,2.28,1.32,2.55,0,0,0,.06,0,.06C177.66,125.82,177.34,124.2,177.45,123.18Z" style="fill:#263238"></path><path d="M178.3,122c1.71-.29,2.16,3.14.58,3.41S176.87,122.22,178.3,122Z" style="fill:#263238"></path><path d="M179.05,122.11c.29.14.6.44.93.42s.61-.43.8-.82c0,0,.05,0,.06,0,.1.65,0,1.36-.64,1.57s-1-.31-1.29-1C178.86,122.25,178.93,122.05,179.05,122.11Z" style="fill:#263238"></path><path d="M172.44,133.29c.27.24.54.57.93.58a2.83,2.83,0,0,0,1.14-.33s.07,0,.05.05a1.45,1.45,0,0,1-1.33.66,1.14,1.14,0,0,1-.89-.9C172.32,133.29,172.4,133.26,172.44,133.29Z" style="fill:#263238"></path><path d="M176.46,128.94s.4,1.57.49,2.32c0,.07-.18.13-.43.17h0a3.57,3.57,0,0,1-3.61-.94.08.08,0,0,1,.1-.12,5.38,5.38,0,0,0,3.36.57c0-.21-.77-2.66-.65-2.68a7,7,0,0,1,1.75.19c-.74-3.28-2-6.43-2.67-9.71a.1.1,0,0,1,.19-.07A54.62,54.62,0,0,1,178.28,129C178.39,129.43,176.78,129,176.46,128.94Z" style="fill:#263238"></path><path d="M176.41,131.16a4.29,4.29,0,0,1-1.48,1.62,1.91,1.91,0,0,1-1.16.28c-.88-.08-1-.85-1-1.54a4.5,4.5,0,0,1,.21-1.09A5.57,5.57,0,0,0,176.41,131.16Z" style="fill:#263238"></path><path d="M174.93,132.78a1.91,1.91,0,0,1-1.16.28c-.88-.08-1-.85-1-1.54A2,2,0,0,1,174.93,132.78Z" style="fill:#ff98b9"></path><path d="M154.88,129a6.48,6.48,0,0,0,3.44-5.43,17,17,0,0,0,6.72-5.82c-.1.33-.77,2.7-1.16,3.9,10-2.24,12.76-10,12.76-10a17.18,17.18,0,0,1,4.6,6.19s-.15-6.15-3.46-10.15a9.91,9.91,0,0,0-9.29-3.74,14.16,14.16,0,0,0-13.66,4.76C148.58,116.06,154.88,129,154.88,129Z" style="fill:#263238"></path><path d="M171.43,119.76a18.73,18.73,0,0,1-5.06,2.07s0,0,0,0a15.73,15.73,0,0,0,7.19-4.72,15,15,0,0,0,2-3.1,10.52,10.52,0,0,0,1.19-3.86c0-.1.16-.09.15,0a11.93,11.93,0,0,1-.65,4,11,11,0,0,1-2.1,3.4,12.76,12.76,0,0,1-2.76,2.25" style="fill:#263238"></path><path d="M157.67,127.51s-3.9-4.55-6-3.11,1.17,8.27,3.87,9a2.67,2.67,0,0,0,3.41-1.78Z" style="fill:#ffc4c0"></path><path d="M152.65,126.33s0,.06,0,.07c1.9.56,3,2.16,3.87,3.85a1.46,1.46,0,0,0-2.22-.18.05.05,0,0,0,0,.09,1.66,1.66,0,0,1,1.85.39,8.49,8.49,0,0,1,1,1.37c.1.16.39,0,.3-.14v0C157.31,129.4,155.18,126.32,152.65,126.33Z" style="fill:#263238"></path><path d="M143.26,150.24c-13.27,22.91-33.13,75.49-36.71,83-2.44,5.1,24.25,18.56,25.38,14.84,1.45-4.75,20-66,21.18-93.31C153.67,142.12,147.51,142.91,143.26,150.24Z" style="fill:#ffc4c0"></path><path d="M132.65,245.53c-.62,4.63-3.76,14-6.1,15.37S111.93,262,105.74,262s-7.41-1.73-7.31-3.86,13.09-2.54,13.09-2.54-17.35,5-21.71,5.79-14.42,3.35-15.87-.27c-.66-1.63,2.1-3.28,2.1-3.28s-4.22,1.23-4.89-.87c-.77-2.39,2.59-3.7,2.59-3.7s-2.64.53-2.7-1.41c-.14-4.35,16.36-6.49,16.36-6.49s-12.63,6.15-13,2.61c-.56-4.92,25.33-10.3,28-12.44a50.7,50.7,0,0,0,5.48-5.33Z" style="fill:#ffc4c0"></path><path d="M98.52,259.24a2,2,0,0,1,.59-1.66,5.28,5.28,0,0,1,1.51-1,21.06,21.06,0,0,1,3.55-1.16c2.44-.62,4.94-1,7.43-1.7a30.91,30.91,0,0,0-7.65.86,14.26,14.26,0,0,0-3.65,1.4,5,5,0,0,0-1.52,1.31A2,2,0,0,0,98.52,259.24Z" style="fill:#263238"></path><path d="M76,257.86c1.78-.44,3.54-.94,5.3-1.45s3.5-1.05,5.25-1.57l5.22-1.64q2.61-.82,5.25-1.61a41,41,0,0,0-5.42,1c-1.79.41-3.56.92-5.31,1.46s-3.49,1.12-5.2,1.77S77.7,257.08,76,257.86Z" style="fill:#263238"></path><path d="M92.87,247.25a33.75,33.75,0,0,0-5,.7A46.16,46.16,0,0,0,83,249.21,42.18,42.18,0,0,0,78.23,251a34.6,34.6,0,0,0-4.49,2.31c1.59-.55,3.15-1.16,4.73-1.69s3.16-1.08,4.76-1.57,3.19-1,4.79-1.44S91.24,247.69,92.87,247.25Z" style="fill:#263238"></path><path d="M90.31,243.11A33.58,33.58,0,0,0,75,248.34c2.57-.91,5.06-1.87,7.61-2.72S87.73,243.94,90.31,243.11Z" style="fill:#263238"></path><path d="M105,232.05l29.25,14.3s17-65.85,18.9-87.1-6.28-16.37-11.92-6.39C133.51,166.51,105,232.05,105,232.05Z" style="fill:#FF702F"></path><path d="M133.54,238.92c-4-1.62-20-8.83-23.41-10.62-.23-.12-.21-.3.05-.2,12,4.55,19.59,8.87,23.42,10.66C133.69,238.8,133.64,239,133.54,238.92Z" style="fill:#263238"></path><path d="M144.45,204.45c.44-3.13,1-6.25,1.54-9.35s1.18-6.21,1.81-9.3,1.3-6.18,2-9.25l1.1-4.61c.4-1.52.77-3.06,1.2-4.58-.21,1.57-.48,3.12-.72,4.68l-.82,4.67c-.55,3.11-1.18,6.2-1.81,9.3s-1.3,6.17-2,9.24S145.3,201.4,144.45,204.45Z" style="fill:#263238"></path><path d="M150.46,175.41a11,11,0,0,1,.94-2.32,10.65,10.65,0,0,1,1.38-2.09,11.17,11.17,0,0,1-.94,2.32A11,11,0,0,1,150.46,175.41Z" style="fill:#263238"></path><path d="M151,143.81c-.59,4-1.26,8.07-1.94,12.09l-.2-.33c2.37.62,4.73,1.3,7.1,2l.4.11-.18.38c-.7,1.56-1.39,3.12-2.13,4.66l-.09-.43c2.5,2.19,5,4.33,7.52,6.55s5,4.42,7.39,6.68c-2.61-2.05-5.19-4.15-7.75-6.27s-5.09-4.27-7.64-6.4l-.21-.18.12-.25c.69-1.56,1.42-3.11,2.15-4.66l.22.5c-2.35-.7-4.72-1.36-7.06-2.08l-.26-.08,0-.25C149.28,151.79,150.09,147.79,151,143.81Z" style="fill:#263238"></path><path d="M164.12,146.19c1.31,1.37,2.24,2.35,3.51,3.75s2.58,2.79,3.82,4.22l.26.3-.33.2-2.47,1.53.07-.55c1,1,2,2,3,3.06l.13.14,0,.18c-.51,2.74-1,5.5-1.53,8.24s-1.1,5.48-1.72,8.21c.35-2.77.75-5.54,1.18-8.3s.9-5.52,1.35-8.28l.1.32c-1-1-2-2-3-3.07l-.32-.32.38-.23L171,154.1l-.08.5c-1.24-1.43-2.43-2.91-3.65-4.37S165.29,147.69,164.12,146.19Z" style="fill:#263238"></path><path d="M168.86,175.47c.35,1.34.71,2.67,1,4s.63,2.68.93,4v0c.1,3,.12,6,.17,9s0,6,0,9c-.17-3-.3-6-.4-9s-.18-6-.21-9v0c-.28-1.34-.55-2.69-.79-4S169.09,176.83,168.86,175.47Z" style="fill:#263238"></path><path d="M168.07,179.05a1,1,0,0,1-.78,1,1,1,0,0,1-.79-1.76,1.06,1.06,0,0,1,.79-.19A1,1,0,0,1,168.07,179.05Zm0,0a.62.62,0,0,0-.27-.52.61.61,0,1,0-.51,1.11.56.56,0,0,0,.51-.08A.61.61,0,0,0,168.07,179.05Z" style="fill:#263238"></path><path d="M169.24,187.72a1,1,0,0,1-.78,1,1,1,0,0,1-.79-1.75,1,1,0,0,1,1.57.78Zm0,0a.63.63,0,0,0-.27-.52.62.62,0,1,0,0,1A.62.62,0,0,0,169.24,187.72Z" style="fill:#263238"></path><path d="M169.65,195.66a1,1,0,0,1-1.57.78,1,1,0,0,1,0-1.56,1,1,0,0,1,1.57.78Zm0,0a.69.69,0,0,0-.27-.52.61.61,0,0,0-.52-.07.6.6,0,0,0-.4.59.61.61,0,0,0,.4.6.65.65,0,0,0,.52-.08A.67.67,0,0,0,169.65,195.66Z" style="fill:#263238"></path></g><g id="freepik--Floor--inject-153"><polygon points="54.95 456.31 134.97 456.07 214.98 455.98 375 455.81 535.02 455.98 615.03 456.06 695.05 456.31 615.03 456.55 535.02 456.64 375 456.81 214.98 456.64 134.97 456.55 54.95 456.31" style="fill:#263238"></polygon></g><g id="freepik--Stats--inject-153"><rect x="521.6" y="53.1" width="69.83" height="56.77" transform="translate(1113.03 162.97) rotate(180)" style="fill:#ebebeb"></rect><polygon points="591.43 109.87 591.43 118.79 582.44 109.81 591.43 109.87" style="fill:#ebebeb"></polygon><path d="M527,60,556.51,60c9.85,0,19.7,0,29.55.09-9.85.08-19.7.06-29.55.09Z" style="fill:#a6a6a6"></path><path d="M527,62.81l29.55-.09c9.85,0,19.7,0,29.55.09-9.85.08-19.7.06-29.55.09Z" style="fill:#a6a6a6"></path><path d="M527,65.58l29.55-.09c9.85,0,19.7,0,29.55.09-9.85.08-19.7.06-29.55.09Z" style="fill:#a6a6a6"></path><path d="M527,68.36l29.55-.09c9.85,0,19.7,0,29.55.09-9.85.08-19.7.06-29.55.09Z" style="fill:#a6a6a6"></path><path d="M527,71.13,556.51,71c9.85,0,19.7,0,29.55.09-9.85.08-19.7.06-29.55.09Z" style="fill:#a6a6a6"></path><path d="M527,73.9l29.55-.09c9.85,0,19.7,0,29.55.09-9.85.08-19.7.06-29.55.09Z" style="fill:#a6a6a6"></path><path d="M527,76.67l29.55-.09c9.85,0,19.7,0,29.55.09-9.85.08-19.7.06-29.55.1Z" style="fill:#a6a6a6"></path><path d="M527,79.45l29.55-.09c9.85,0,19.7,0,29.55.09-9.85.08-19.7.06-29.55.09Z" style="fill:#a6a6a6"></path><path d="M527,82.22l29.55-.09c9.85,0,19.7,0,29.55.09-9.85.08-19.7.06-29.55.09Z" style="fill:#a6a6a6"></path><path d="M527,85l29.55-.09c9.85,0,19.7,0,29.55.09-9.85.08-19.7.06-29.55.09Z" style="fill:#a6a6a6"></path><path d="M527,87.77l29.55-.09c9.85,0,19.7,0,29.55.09-9.85.07-19.7,0-29.55.09Z" style="fill:#a6a6a6"></path><path d="M527,90.54l29.55-.09c9.85,0,19.7,0,29.55.09-9.85.08-19.7.06-29.55.09Z" style="fill:#a6a6a6"></path><path d="M527,93.31l29.55-.09c9.85,0,19.7,0,29.55.09-9.85.08-19.7.06-29.55.09Z" style="fill:#a6a6a6"></path><path d="M527,96.08,556.51,96c9.85,0,19.7,0,29.55.09-9.85.08-19.7.06-29.55.09Z" style="fill:#a6a6a6"></path><path d="M527,98.86l29.55-.09c9.85,0,19.7,0,29.55.09-9.85.07-19.7,0-29.55.09Z" style="fill:#a6a6a6"></path><rect x="574.78" y="65.67" width="4.48" height="36.41" transform="translate(1154.05 167.76) rotate(180)" style="fill:#FF702F"></rect><rect x="566.47" y="69.87" width="4.48" height="32.22" transform="translate(1137.42 171.96) rotate(180)" style="fill:#FF702F"></rect><rect x="558.16" y="74.53" width="4.48" height="27.56" transform="translate(1120.79 176.62) rotate(180)" style="fill:#FF702F"></rect><rect x="549.84" y="68.36" width="4.48" height="33.73" transform="translate(1104.16 170.44) rotate(180)" style="fill:#FF702F"></rect><rect x="541.53" y="78.07" width="4.48" height="24.02" transform="translate(1087.54 180.16) rotate(180)" style="fill:#FF702F"></rect><rect x="533.21" y="89.43" width="4.48" height="12.66" transform="translate(1070.91 191.52) rotate(180)" style="fill:#FF702F"></rect><path d="M528.57,58.09l.12,11,.08,11q.09,11,.09,22l-.29-.34h14.37l14.38,0,14.37.11,14.37.2-14.37.2-14.37.11-14.38,0-14.37,0h-.29v-.33c0-7.33,0-14.67.08-22l.09-11Z" style="fill:#a6a6a6"></path><rect x="533.21" y="104.41" width="4.48" height="0.47" style="fill:#a6a6a6"></rect><rect x="541.53" y="104.41" width="4.48" height="0.47" style="fill:#a6a6a6"></rect><rect x="549.84" y="104.41" width="4.48" height="0.47" style="fill:#a6a6a6"></rect><rect x="558.16" y="104.41" width="4.48" height="0.47" style="fill:#a6a6a6"></rect><rect x="566.47" y="104.41" width="4.48" height="0.47" style="fill:#a6a6a6"></rect><rect x="574.78" y="104.41" width="4.48" height="0.47" style="fill:#a6a6a6"></rect></g><g id="freepik--Target--inject-153"><path d="M471.36,86.55a33.37,33.37,0,0,1-53.28,26.8l-16.35,4.18,6.81-15.23a33.39,33.39,0,1,1,62.82-15.75Z" style="fill:#fff"></path><path d="M471.36,86.55a33.55,33.55,0,0,1-4.95,17.52,36.62,36.62,0,0,1-2.65,3.78,37.14,37.14,0,0,1-3.2,3.32,20.67,20.67,0,0,1-1.73,1.52L457,114.08c-.61.47-1.3.83-1.94,1.25l-1,.6c-.33.2-.69.35-1,.52l-2.08,1-2.17.81a17.09,17.09,0,0,1-2.21.68c-.75.18-1.49.43-2.25.55a32.44,32.44,0,0,1-4.6.55,28.63,28.63,0,0,1-4.63,0,33.64,33.64,0,0,1-17.21-6.41l.3.06L401.83,118l-.88.23.38-.83,6.77-15.25v.42a33.07,33.07,0,0,1-4-14.71,33.72,33.72,0,0,1,12.11-27.08,33.44,33.44,0,0,1,13.55-6.8,33.23,33.23,0,0,1,28.75,6.26A33.54,33.54,0,0,1,471.36,86.55Zm0,0a33.08,33.08,0,0,0-41.43-32.09,33,33,0,0,0-13.21,6.84,34.23,34.23,0,0,0-8.86,11.92,33,33,0,0,0,1.1,28.85l.11.21-.1.21-6.84,15.22-.51-.61L418,113l.17-.05.14.11a33,33,0,0,0,16.82,6.5,27.9,27.9,0,0,0,4.57.07,33.13,33.13,0,0,0,4.55-.49c.76-.1,1.49-.35,2.23-.52a15,15,0,0,0,2.2-.64l2.17-.77,2.07-1c.35-.17.7-.31,1-.5l1-.59c.65-.41,1.33-.76,1.95-1.21l1.85-1.37a20.55,20.55,0,0,0,1.74-1.5,37,37,0,0,0,3.2-3.3,37.92,37.92,0,0,0,2.66-3.75A33.47,33.47,0,0,0,471.36,86.55Z" style="fill:#263238"></path><ellipse cx="440.23" cy="86.69" rx="22.2" ry="19.56" transform="translate(348.79 525.96) rotate(-89.38)" style="fill:#FF702F"></ellipse><polygon points="436.2 64.4 440.8 64.49 439.55 108.89 434.94 108.79 436.2 64.4" style="fill:#FF702F"></polygon><g style="opacity:0.1"><ellipse cx="440.23" cy="86.69" rx="22.2" ry="19.56" transform="translate(348.79 525.96) rotate(-89.38)"></ellipse><polygon points="436.2 64.4 440.8 64.49 439.55 108.89 434.94 108.79 436.2 64.4"></polygon></g><ellipse cx="436" cy="86.6" rx="22.2" ry="19.56" transform="matrix(0.01, -1, 1, 0.01, 344.69, 521.65)" style="fill:#FF702F"></ellipse><path d="M451.08,83.91c1.29,9.45-4.42,18.31-12.75,19.8s-16.12-5-17.4-14.41S425.35,71,433.67,69.5,449.79,74.46,451.08,83.91Z" style="fill:#fff"></path><path d="M446.87,84.66c.93,6.81-3.18,13.21-9.19,14.28s-11.62-3.58-12.55-10.39,3.19-13.21,9.19-14.28S446,77.85,446.87,84.66Z" style="fill:#FF702F"></path><path d="M442.62,85.42c.57,4.15-1.94,8-5.59,8.69s-7.08-2.18-7.64-6.32,1.94-8,5.59-8.7S442.06,81.27,442.62,85.42Z" style="fill:#fff"></path><path d="M439,86.08A3.37,3.37,0,0,1,436.46,90a3,3,0,0,1-3.4-2.82,3.36,3.36,0,0,1,2.49-3.87A3,3,0,0,1,439,86.08Z" style="fill:#FF702F"></path><polygon points="435.39 86.73 405.84 78.03 406.04 77.45 435.59 86.16 435.39 86.73" style="fill:#263238"></polygon><polygon points="403.81 79.3 403.94 79.23 406.19 78.14 401.16 76.42 398.76 77.58 403.81 79.3" style="fill:#263238"></polygon><path d="M400.14,73.53l1.22,2.32,5,1.72a12.13,12.13,0,0,1-1.2-2.32Z" style="fill:#263238"></path><polygon points="436.69 85.8 435.99 87.7 433.37 87.87 434.85 86.22 434.69 84.02 436.69 85.8" style="fill:#263238"></polygon></g><g id="freepik--Video--inject-153"><rect x="188.83" y="53.1" width="69.83" height="56.77" style="fill:#ebebeb"></rect><path d="M219.17,86.06a6.46,6.46,0,1,1,9.14,0A6.47,6.47,0,0,1,219.17,86.06Z" style="fill:#FF702F"></path><polygon points="221.5 84.01 221.5 78.96 226.69 81.49 221.5 84.01" style="fill:#fff"></polygon><path d="M246.39,104.94H200.44a.43.43,0,0,0,0,.85h45.95a.43.43,0,0,0,0-.85Z" style="fill:#c7c7c7"></path><path d="M200.44,104.94a.43.43,0,0,0,0,.85H223.9v-.85Z" style="fill:#FF702F"></path><path d="M223.06,105.36a.84.84,0,0,1,.84-.84.85.85,0,1,1-.84.84Z" style="fill:#FF702F"></path><polygon points="253.34 104 253.34 104.39 253.34 105.23 253.73 105.23 253.73 104.39 254.57 104.39 254.57 104 253.73 104 253.34 104" style="fill:#fff"></polygon><polygon points="255.88 104 255.03 104 255.03 104.39 255.88 104.39 255.88 105.23 256.26 105.23 256.26 104.39 256.26 104 255.88 104" style="fill:#fff"></polygon><polygon points="255.88 106.45 255.03 106.45 255.03 106.84 255.88 106.84 256.26 106.84 256.26 106.45 256.26 105.61 255.88 105.61 255.88 106.45" style="fill:#fff"></polygon><polygon points="253.73 105.61 253.34 105.61 253.34 106.45 253.34 106.84 253.73 106.84 254.57 106.84 254.57 106.45 253.73 106.45 253.73 105.61" style="fill:#fff"></polygon><polygon points="191.9 104.13 191.9 106.59 193.89 105.36 191.9 104.13" style="fill:#fff"></polygon><path d="M195,105.4a.49.49,0,0,1,.07-.28.25.25,0,0,1,.44,0,.49.49,0,0,1,.08.28.51.51,0,0,1-.08.28.25.25,0,0,1-.44,0A.51.51,0,0,1,195,105.4Zm.46,0a.4.4,0,0,0-.06-.21.13.13,0,0,0-.11-.07.16.16,0,0,0-.11.07.4.4,0,0,0-.06.21.43.43,0,0,0,.06.21.16.16,0,0,0,.11.07.13.13,0,0,0,.11-.07A.43.43,0,0,0,195.43,105.4Z" style="fill:#fff"></path><path d="M195.8,105.4a.49.49,0,0,1,.08-.28.25.25,0,0,1,.22-.13.24.24,0,0,1,.21.13.49.49,0,0,1,.08.28.51.51,0,0,1-.08.28.24.24,0,0,1-.43,0A.51.51,0,0,1,195.8,105.4Zm.46,0a.33.33,0,0,0-.06-.21.13.13,0,0,0-.1-.07.15.15,0,0,0-.12.07.41.41,0,0,0,0,.21.43.43,0,0,0,0,.21.15.15,0,0,0,.12.07.13.13,0,0,0,.1-.07A.35.35,0,0,0,196.26,105.4Z" style="fill:#fff"></path><path d="M196.74,105.18a.09.09,0,0,1,.09.08.09.09,0,0,1-.09.09.09.09,0,0,1-.08-.09A.09.09,0,0,1,196.74,105.18Zm0,.46a.09.09,0,1,1,0,.18.09.09,0,0,1,0-.18Z" style="fill:#fff"></path><path d="M196.91,105.4a.49.49,0,0,1,.08-.28.25.25,0,0,1,.44,0,.49.49,0,0,1,.07.28.51.51,0,0,1-.07.28.25.25,0,0,1-.44,0A.51.51,0,0,1,196.91,105.4Zm.46,0a.41.41,0,0,0-.05-.21s-.07-.07-.11-.07a.13.13,0,0,0-.11.07.4.4,0,0,0-.06.21.43.43,0,0,0,.06.21.13.13,0,0,0,.11.07s.07,0,.11-.07A.43.43,0,0,0,197.37,105.4Z" style="fill:#fff"></path><path d="M197.75,105.4a.49.49,0,0,1,.07-.28.25.25,0,0,1,.44,0,.49.49,0,0,1,.08.28.51.51,0,0,1-.08.28.25.25,0,0,1-.44,0A.51.51,0,0,1,197.75,105.4Zm.46,0a.4.4,0,0,0-.06-.21.13.13,0,0,0-.11-.07.16.16,0,0,0-.11.07.41.41,0,0,0-.05.21.43.43,0,0,0,.05.21.16.16,0,0,0,.11.07.13.13,0,0,0,.11-.07A.43.43,0,0,0,198.21,105.4Z" style="fill:#fff"></path><path d="M248.62,105.4a.49.49,0,0,1,.08-.28.26.26,0,0,1,.22-.13.23.23,0,0,1,.21.13.42.42,0,0,1,.08.28.44.44,0,0,1-.08.28.25.25,0,0,1-.21.13.29.29,0,0,1-.22-.13A.51.51,0,0,1,248.62,105.4Zm.46,0a.41.41,0,0,0-.05-.21.16.16,0,0,0-.11-.07.13.13,0,0,0-.11.07.33.33,0,0,0-.06.21.35.35,0,0,0,.06.21.13.13,0,0,0,.11.07.16.16,0,0,0,.11-.07A.43.43,0,0,0,249.08,105.4Z" style="fill:#fff"></path><path d="M249.89,105.31a.32.32,0,0,1,.08.21.3.3,0,0,1-.08.2.3.3,0,0,1-.21.09h0a.27.27,0,0,1-.2-.09.06.06,0,1,1,.09-.09.16.16,0,1,0,.22-.22.15.15,0,0,0-.22,0,.07.07,0,0,1-.09,0l0,0h0v0l0-.3,0,0h.38a.07.07,0,0,1,.07.07.07.07,0,0,1-.07.06h-.28l0,.12h.08A.34.34,0,0,1,249.89,105.31Z" style="fill:#fff"></path><path d="M250.28,105.18a.09.09,0,0,1,.08.08.09.09,0,0,1-.08.09.09.09,0,0,1-.09-.09A.09.09,0,0,1,250.28,105.18Zm0,.46a.09.09,0,0,1,0,.18.09.09,0,1,1,0-.18Z" style="fill:#fff"></path><path d="M250.89,105.31a.28.28,0,0,1,.08.21.27.27,0,0,1-.08.2.29.29,0,0,1-.21.09.27.27,0,0,1-.2-.09.06.06,0,1,1,.09-.09.15.15,0,0,0,.11,0,.19.19,0,0,0,.12,0,.15.15,0,0,0,0-.11.19.19,0,0,0,0-.12.16.16,0,0,0-.12,0l0,0h0a.08.08,0,0,1,0-.1l.12-.12h-.19a.07.07,0,0,1-.06-.07.06.06,0,0,1,.06-.06h.35a.06.06,0,0,1,.06.06v0h0l-.14.15Z" style="fill:#fff"></path><path d="M251.59,105.31a.32.32,0,0,1,.08.21.3.3,0,0,1-.08.2.29.29,0,0,1-.21.09h0a.27.27,0,0,1-.2-.09.06.06,0,0,1,.09-.09.16.16,0,0,0,.27-.11.16.16,0,0,0-.27-.11.07.07,0,0,1-.09,0l0,0h0v0l0-.3,0,0h.39a.07.07,0,0,1,.06.07.06.06,0,0,1-.06.06h-.29l0,.12h.08A.32.32,0,0,1,251.59,105.31Z" style="fill:#fff"></path><path d="M245.88,59.47a1.84,1.84,0,0,1-.59.25,2,2,0,0,1-1.56-.25,2.07,2.07,0,0,1-.92-1.25,2.05,2.05,0,1,1,3.07,1.25Z" style="fill:#a6a6a6"></path><path d="M245.43,57.49a.63.63,0,1,1-.62-.62A.63.63,0,0,1,245.43,57.49Z" style="fill:#fff"></path><path d="M245.88,59.22v.25a1.84,1.84,0,0,1-.59.25,2,2,0,0,1-1.56-.25v-.25a1.08,1.08,0,1,1,2.15,0Z" style="fill:#fff"></path><rect x="251.44" y="56.15" width="2.73" height="0.54" style="fill:#a6a6a6"></rect><rect x="251.44" y="57.24" width="2.73" height="0.54" style="fill:#a6a6a6"></rect><rect x="251.44" y="58.33" width="2.73" height="0.54" style="fill:#a6a6a6"></rect><rect x="193.31" y="56.5" width="44.24" height="1.18" style="fill:#a6a6a6"></rect><rect x="193.31" y="58.84" width="14.41" height="0.93" style="fill:#c7c7c7"></rect><polygon points="188.83 109.87 188.83 118.79 197.81 109.81 188.83 109.87" style="fill:#ebebeb"></polygon></g></svg>