<svg width="424" height="348" viewBox="0 0 424 348" fill="none" xmlns="http://www.w3.org/2000/svg">
<path d="M108 348V268H188C188 317.412 134.667 341.922 108 348Z" fill="white"/>
<path d="M401.3 268.2H95.7C83.7 268.2 73.9 259.316 73.9 248.438V65.96C73.9 55.083 83.7 46.2 95.7 46.2H401.3C413.3 46.2 423.1 55.084 423.1 65.96V248.347C423.1 259.315 413.3 268.199 401.3 268.199V268.2Z" fill="white"/>
<path d="M74 45.005C74 33.957 82.956 25 94 25H403C408.304 25.0027 413.391 27.1113 417.141 30.8625C420.891 34.6138 422.999 39.7006 423 45.005V68H74V45.005ZM127.75 149H166.25C167.775 149 169.238 149.606 170.316 150.684C171.394 151.762 172 153.225 172 154.75C172 156.275 171.394 157.738 170.316 158.816C169.238 159.894 167.775 160.5 166.25 160.5H127.75C126.225 160.5 124.762 159.894 123.684 158.816C122.606 157.738 122 156.275 122 154.75C122 153.225 122.606 151.762 123.684 150.684C124.762 149.606 126.225 149 127.75 149ZM127.75 213H166.25C167.775 213 169.238 213.606 170.316 214.684C171.394 215.762 172 217.225 172 218.75C172 220.275 171.394 221.738 170.316 222.816C169.238 223.894 167.775 224.5 166.25 224.5H127.75C126.225 224.5 124.762 223.894 123.684 222.816C122.606 221.738 122 220.275 122 218.75C122 217.225 122.606 215.762 123.684 214.684C124.762 213.606 126.225 213 127.75 213ZM186.75 149H225.25C226.775 149 228.238 149.606 229.316 150.684C230.394 151.762 231 153.225 231 154.75C231 156.275 230.394 157.738 229.316 158.816C228.238 159.894 226.775 160.5 225.25 160.5H186.75C185.225 160.5 183.762 159.894 182.684 158.816C181.606 157.738 181 156.275 181 154.75C181 153.225 181.606 151.762 182.684 150.684C183.762 149.606 185.225 149 186.75 149ZM186.75 213H225.25C226.775 213 228.238 213.606 229.316 214.684C230.394 215.762 231 217.225 231 218.75C231 220.275 230.394 221.738 229.316 222.816C228.238 223.894 226.775 224.5 225.25 224.5H186.75C185.225 224.5 183.762 223.894 182.684 222.816C181.606 221.738 181 220.275 181 218.75C181 217.225 181.606 215.762 182.684 214.684C183.762 213.606 185.225 213 186.75 213ZM245.75 149H284.25C285.775 149 287.238 149.606 288.316 150.684C289.394 151.762 290 153.225 290 154.75C290 156.275 289.394 157.738 288.316 158.816C287.238 159.894 285.775 160.5 284.25 160.5H245.75C244.225 160.5 242.762 159.894 241.684 158.816C240.606 157.738 240 156.275 240 154.75C240 153.225 240.606 151.762 241.684 150.684C242.762 149.606 244.225 149 245.75 149ZM245.75 213H284.25C285.775 213 287.238 213.606 288.316 214.684C289.394 215.762 290 217.225 290 218.75C290 220.275 289.394 221.738 288.316 222.816C287.238 223.894 285.775 224.5 284.25 224.5H245.75C244.225 224.5 242.762 223.894 241.684 222.816C240.606 221.738 240 220.275 240 218.75C240 217.225 240.606 215.762 241.684 214.684C242.762 213.606 244.225 213 245.75 213ZM127.75 117H199.25C200.775 117 202.238 117.606 203.316 118.684C204.394 119.762 205 121.225 205 122.75C205 124.275 204.394 125.738 203.316 126.816C202.238 127.894 200.775 128.5 199.25 128.5H127.75C126.225 128.5 124.762 127.894 123.684 126.816C122.606 125.738 122 124.275 122 122.75C122 121.225 122.606 119.762 123.684 118.684C124.762 117.606 126.225 117 127.75 117ZM289.75 117H370.25C371.775 117 373.238 117.606 374.316 118.684C375.394 119.762 376 121.225 376 122.75C376 124.275 375.394 125.738 374.316 126.816C373.238 127.894 371.775 128.5 370.25 128.5H289.75C288.225 128.5 286.762 127.894 285.684 126.816C284.606 125.738 284 124.275 284 122.75C284 121.225 284.606 119.762 285.684 118.684C286.762 117.606 288.225 117 289.75 117ZM289.75 181H370.25C371.775 181 373.238 181.606 374.316 182.684C375.394 183.762 376 185.225 376 186.75C376 188.275 375.394 189.738 374.316 190.816C373.238 191.894 371.775 192.5 370.25 192.5H289.75C288.225 192.5 286.762 191.894 285.684 190.816C284.606 189.738 284 188.275 284 186.75C284 185.225 284.606 183.762 285.684 182.684C286.762 181.606 288.225 181 289.75 181ZM219.75 181H234.25C235.775 181 237.238 181.606 238.316 182.684C239.394 183.762 240 185.225 240 186.75C240 188.275 239.394 189.738 238.316 190.816C237.238 191.894 235.775 192.5 234.25 192.5H219.75C218.225 192.5 216.762 191.894 215.684 190.816C214.606 189.738 214 188.275 214 186.75C214 185.225 214.606 183.762 215.684 182.684C216.762 181.606 218.225 181 219.75 181ZM254.75 117H269.25C270.775 117 272.238 117.606 273.316 118.684C274.394 119.762 275 121.225 275 122.75C275 124.275 274.394 125.738 273.316 126.816C272.238 127.894 270.775 128.5 269.25 128.5H254.75C253.225 128.5 251.762 127.894 250.684 126.816C249.606 125.738 249 124.275 249 122.75C249 121.225 249.606 119.762 250.684 118.684C251.762 117.606 253.225 117 254.75 117ZM304.75 149H370.25C371.775 149 373.238 149.606 374.316 150.684C375.394 151.762 376 153.225 376 154.75C376 156.275 375.394 157.738 374.316 158.816C373.238 159.894 371.775 160.5 370.25 160.5H304.75C303.225 160.5 301.762 159.894 300.684 158.816C299.606 157.738 299 156.275 299 154.75C299 153.225 299.606 151.762 300.684 150.684C301.762 149.606 303.225 149 304.75 149Z" fill="#D3DBFF"/>
<path d="M127.75 181H199.25C200.775 181 202.238 181.606 203.316 182.684C204.394 183.762 205 185.225 205 186.75C205 188.275 204.394 189.738 203.316 190.816C202.238 191.894 200.775 192.5 199.25 192.5H127.75C126.225 192.5 124.762 191.894 123.684 190.816C122.606 189.738 122 188.275 122 186.75C122 185.225 122.606 183.762 123.684 182.684C124.762 181.606 126.225 181 127.75 181ZM254.75 181H269.25C270.775 181 272.238 181.606 273.316 182.684C274.394 183.762 275 185.225 275 186.75C275 188.275 274.394 189.738 273.316 190.816C272.238 191.894 270.775 192.5 269.25 192.5H254.75C253.225 192.5 251.762 191.894 250.684 190.816C249.606 189.738 249 188.275 249 186.75C249 185.225 249.606 183.762 250.684 182.684C251.762 181.606 253.225 181 254.75 181ZM219.75 117H234.25C235.775 117 237.238 117.606 238.316 118.684C239.394 119.762 240 121.225 240 122.75C240 124.275 239.394 125.738 238.316 126.816C237.238 127.894 235.775 128.5 234.25 128.5H219.75C218.225 128.5 216.762 127.894 215.684 126.816C214.606 125.738 214 124.275 214 122.75C214 121.225 214.606 119.762 215.684 118.684C216.762 117.606 218.225 117 219.75 117ZM304.75 213H370.25C371.775 213 373.238 213.606 374.316 214.684C375.394 215.762 376 217.225 376 218.75C376 220.275 375.394 221.738 374.316 222.816C373.238 223.894 371.775 224.5 370.25 224.5H304.75C303.225 224.5 301.762 223.894 300.684 222.816C299.606 221.738 299 220.275 299 218.75C299 217.225 299.606 215.762 300.684 214.684C301.762 213.606 303.225 213 304.75 213ZM129.515 0H17.865C7.99999 0 0 7.99801 0 17.864V74.136C0 84.002 7.99999 92 17.865 92H129.515C139.381 92 147.379 84.002 147.379 74.136V17.864C147.379 7.99801 139.381 0 129.515 0Z" fill="#474BFF"/>
<path fill-rule="evenodd" clip-rule="evenodd" d="M51.123 22.2C51.8644 23.1232 52.2092 24.3029 52.0817 25.4801C51.9542 26.6573 51.3648 27.7359 50.443 28.479L25.868 48.252L51.2719 62.1699C52.3101 62.7398 53.0797 63.6984 53.4117 64.8351C53.7438 65.9719 53.6112 67.1939 53.043 68.2329C52.4731 69.2711 51.5146 70.0407 50.3778 70.3727C49.2411 70.7048 48.019 70.5722 46.98 70.004L15.718 52.877C15.0747 52.5236 14.5284 52.0172 14.1272 51.4026C13.726 50.788 13.4823 50.084 13.4176 49.3529C13.353 48.6218 13.4694 47.8861 13.7565 47.2106C14.0436 46.5351 14.4927 45.9407 15.064 45.4799L44.844 21.52C45.7673 20.7783 46.9472 20.4333 48.1247 20.5608C49.3021 20.6883 50.3809 21.2778 51.124 22.2H51.123ZM91.843 22.5529C93.2 20.4929 95.969 19.923 98.029 21.28L129.291 41.8679C130.533 42.6859 131.287 44.068 131.291 45.556C131.296 46.288 131.121 47.01 130.783 47.6593C130.445 48.3085 129.954 48.8653 129.351 49.281L99.463 69.781C98.4858 70.4502 97.283 70.7042 96.1186 70.4873C94.9543 70.2703 93.9236 69.6002 93.253 68.624C91.857 66.59 92.376 63.81 94.41 62.424L118.818 45.684L93.105 28.75C91.045 27.394 90.4749 24.624 91.8319 22.564L91.843 22.5529ZM79.8 12.057C82.206 12.603 83.712 14.9969 83.165 17.4019L69.56 77.256C69.013 79.6609 66.62 81.1679 64.215 80.6209C61.81 80.0739 60.303 77.681 60.85 75.276L74.456 15.422C75.002 13.017 77.396 11.51 79.8 12.057Z" fill="#F8F9FF"/>
</svg>