<svg width="450" height="400" viewBox="0 0 450 400" fill="none" xmlns="http://www.w3.org/2000/svg">
<path d="M44 400V320H124C124 369.412 70.6667 393.922 44 400Z" fill="white"/>
<path d="M432.687 0H17.313C7.75623 0 0 7.36616 0 16.4531V303.548C0 312.625 7.74634 320 17.313 320H432.687C442.244 320 450 312.635 450 303.548V16.4531C450 7.37592 442.254 0 432.687 0Z" fill="white"/>
<path d="M22.2 62.2205H35.1007C36.0603 62.2205 36.832 62.9574 36.832 63.8661V68.3529C36.832 69.2606 36.0603 69.9975 35.1007 69.9975H22.2C21.2403 69.9975 20.4687 69.2616 20.4687 68.3529V63.8661C20.4687 62.9583 21.2403 62.2205 22.2 62.2205ZM369.915 62.2205H427.819C428.769 62.2205 429.551 62.9574 429.551 63.8661V68.3529C429.551 69.2606 428.759 69.9975 427.819 69.9975H369.915C368.965 69.9975 368.183 69.2616 368.183 68.3529V63.8661C368.183 62.9583 368.975 62.2205 369.915 62.2205ZM259.468 62.2205H317.362C318.322 62.2205 319.094 62.9574 319.094 63.8661V68.3529C319.094 69.2606 318.322 69.9975 317.362 69.9975H259.468C258.508 69.9975 257.736 69.2616 257.736 68.3529V63.8661C257.736 62.9583 258.508 62.2205 259.468 62.2205ZM329.016 62.2205H358.28C359.24 62.2205 360.012 62.9574 360.012 63.8661V68.3529C360.012 69.2606 359.24 69.9975 358.28 69.9975H329.016C328.067 69.9975 327.285 69.2616 327.285 68.3529V63.8661C327.285 62.9583 328.077 62.2205 329.016 62.2205ZM426.068 93.3317H23.9116C22.0022 93.3317 20.449 94.7957 20.449 96.6209V292.256C20.449 294.072 22.0022 295.545 23.9116 295.545H426.068C427.978 295.545 429.531 294.081 429.531 292.256V96.6209C429.531 94.8035 427.978 93.3317 426.068 93.3317Z" fill="#D3DBFF"/>
<path d="M325.525 216.933H124.446C123.496 216.933 122.715 217.67 122.715 218.579V230.843C122.715 231.751 123.506 232.488 124.446 232.488H325.525C326.484 232.488 327.256 231.752 327.256 230.843V218.579C327.256 217.671 326.484 216.933 325.525 216.933ZM172.062 244.344H278.067C282.776 244.344 284.478 244.81 286.199 245.684C287.921 246.559 289.266 247.832 290.196 249.478C291.126 251.125 291.601 252.735 291.601 257.209V263.106C291.601 267.579 291.106 269.201 290.196 270.836C289.286 272.471 287.921 273.764 286.199 274.63C284.478 275.496 282.776 275.97 278.067 275.97H172.062C167.353 275.97 165.651 275.504 163.93 274.63C162.208 273.755 160.863 272.483 159.943 270.836C159.023 269.189 158.528 267.579 158.528 263.106V257.209C158.528 252.735 159.023 251.113 159.943 249.478C160.863 247.844 162.218 246.55 163.93 245.684C165.641 244.819 167.353 244.344 172.062 244.344Z" fill="#F8F9FF"/>
<path fill-rule="evenodd" clip-rule="evenodd" d="M255.708 141.093C261.15 141.093 265.552 136.896 265.552 131.716C265.552 126.537 261.15 122.34 255.708 122.34C250.267 122.34 245.855 126.537 245.855 131.716C245.855 136.896 250.267 141.093 255.708 141.093ZM256.282 197.873H231.628L226.909 197.929L226.949 197.873H167.392C165.611 197.873 164.919 196.712 165.888 195.267L207.736 131.828C208.686 130.387 210.249 130.358 211.229 131.759L241.601 175.598L252.998 158.279C253.947 156.844 255.53 156.805 256.539 158.193L282.855 194.278C283.864 195.663 283.231 196.829 281.47 196.881L258.023 197.566L256.094 197.589L256.272 197.875L256.282 197.873Z" fill="#474BFF"/>
<path d="M0.0100098 16.456C0.0100098 7.36907 7.75635 0 17.323 0H431.816C441.373 0 449.13 7.36907 449.13 16.456V36.1954H0.0100098V16.456Z" fill="#D3DBFF"/>
<path d="M25.5342 26.3239C30.0851 26.3239 33.7456 22.8257 33.7456 18.5097C33.7456 14.1937 30.0653 10.6946 25.5342 10.6946C21.0032 10.6946 17.323 14.1937 17.323 18.5097C17.323 22.8257 21.0032 26.3239 25.5342 26.3239Z" fill="#FF5645"/>
<path d="M52.3547 26.3239C56.9055 26.3239 60.5659 22.8257 60.5659 18.5097C60.5659 14.1937 56.8857 10.6946 52.3547 10.6946C47.8236 10.6946 44.1433 14.1937 44.1433 18.5097C44.1433 22.8257 47.8236 26.3239 52.3547 26.3239Z" fill="#FFCB3D"/>
<path d="M80.0556 26.3239C84.5867 26.3239 88.2668 22.8257 88.2668 18.5097C88.2668 14.1937 84.5768 10.6946 80.0556 10.6946C75.5048 10.6946 71.8442 14.1937 71.8442 18.5097C71.8442 22.8257 75.5245 26.3239 80.0556 26.3239Z" fill="#3ABF7C"/>
</svg>