<svg xmlns="http://www.w3.org/2000/svg" xmlns:xlink="http://www.w3.org/1999/xlink" viewBox="0 0 760.75 565.84" width="760.75" height="565.84"><defs><style>.cls-1,.cls-10,.cls-14{fill:#c2d1f2;}.cls-12,.cls-15,.cls-19,.cls-2,.cls-26,.cls-28,.cls-31,.cls-36,.cls-38,.cls-43{fill:none;}.cls-3{fill:#ff784b;}.cls-33,.cls-4{fill:#1258ff;}.cls-5{isolation:isolate;}.cls-6{fill:#e6edff;}.cls-7{fill:#ffc837;}.cls-32,.cls-37,.cls-8{fill:#fff;}.cls-9{clip-path:url(#clip-path);}.cls-10,.cls-11,.cls-12{stroke:#dae3f7;}.cls-10,.cls-11,.cls-12,.cls-13,.cls-14,.cls-15,.cls-18,.cls-19,.cls-24,.cls-26,.cls-28,.cls-31,.cls-32,.cls-33,.cls-36,.cls-37,.cls-38,.cls-43{stroke-linecap:round;}.cls-10,.cls-11,.cls-12,.cls-13,.cls-14,.cls-15,.cls-18,.cls-19,.cls-24,.cls-26,.cls-31,.cls-32,.cls-33,.cls-36,.cls-37,.cls-38,.cls-43{stroke-linejoin:round;}.cls-10,.cls-11,.cls-12,.cls-13,.cls-14,.cls-15,.cls-18,.cls-19,.cls-24,.cls-26,.cls-28,.cls-31,.cls-32,.cls-33,.cls-36,.cls-37,.cls-43{stroke-width:1.5px;}.cls-11,.cls-13{fill:#dae3f7;}.cls-13,.cls-14,.cls-15{stroke:#c2d1f2;}.cls-16{clip-path:url(#clip-path-2);}.cls-17,.cls-21,.cls-27,.cls-34{fill:#0039b2;mix-blend-mode:multiply;}.cls-17{opacity:0.1;}.cls-18,.cls-44{fill:#829ed9;}.cls-18,.cls-19,.cls-28,.cls-32,.cls-36,.cls-38{stroke:#000;}.cls-20{clip-path:url(#clip-path-3);}.cls-21{opacity:0.3;}.cls-22{fill:#ffc6b2;}.cls-23{fill:#719bff;}.cls-24,.cls-30{fill:#e6e6e6;}.cls-24{stroke:#e6e6e6;}.cls-25{fill:#d0deff;}.cls-26,.cls-33{stroke:#1258ff;}.cls-27{opacity:0.4;}.cls-28{stroke-miterlimit:10;}.cls-29{clip-path:url(#clip-path-4);}.cls-31{stroke:#ffc837;}.cls-34{opacity:0.2;}.cls-35{fill:#e7edfa;opacity:0.6;}.cls-36{stroke-dasharray:4.48 7.17;}.cls-37{stroke:#829ed9;}.cls-38{stroke-width:2px;}.cls-39{font-size:11.17px;font-family:CircularPro-Medium, CircularPro Medium;font-weight:500;}.cls-40{letter-spacing:-0.01em;}.cls-41{letter-spacing:-0.01em;}.cls-42{letter-spacing:0em;}.cls-43{stroke:#777;}</style><clipPath id="clip-path"><rect class="cls-1" x="212.34" y="137.01" width="435.67" height="244.49"/></clipPath><clipPath id="clip-path-2"><rect class="cls-2" x="212.34" y="70.93" width="435.67" height="377.46" rx="10"/></clipPath><clipPath id="clip-path-3"><path class="cls-3" d="M142.64,431.55l7.63,17.05s25,9.76,61.24,9.76a195.3,195.3,0,0,0,56.21-8.06,7.37,7.37,0,0,0,5-7.13V439a7.21,7.21,0,0,0-7-7.42Z"/></clipPath><clipPath id="clip-path-4"><path class="cls-4" d="M604.47,199c-9.7,23.61-19.55,54.7-19.55,54.7S565.36,250,558,248.92c-2.84-.41-4.34.85-5.46,7.35-1.46,8.51.1,9.78,2.61,11.32,7.29,4.48,21.86,8.52,42.78,10,8.27-2.69,23.18-25.48,23.18-38.94S604.47,199,604.47,199Z"/></clipPath></defs><title>Asset 15</title><g class="cls-5"><g id="Layer_2" data-name="Layer 2"><g id="Colour_2" data-name="Colour 2"><path class="cls-6" d="M747.75,188.87c33.68,54.85,0,192.63-78.83,250.86-84.72,62.58-170.3,79.62-273,76.15-200.45-6.75-363.72-126-371.09-269.28C16.59,87.24,151.29-16.84,361.58,2.25c112.84,10.25,138,88.4,209.78,122.12C664.64,168.17,718.35,141,747.75,188.87Z"/><rect class="cls-7" x="220.32" y="70.93" width="435.67" height="377.46" rx="7.98"/><path class="cls-8" d="M648,78.91V137H212.34V78.91a8,8,0,0,1,8-8H640A8,8,0,0,1,648,78.91Z"/><path class="cls-8" d="M212.34,381.5H648a0,0,0,0,1,0,0v56.89a10,10,0,0,1-10,10H222.34a10,10,0,0,1-10-10V381.5A0,0,0,0,1,212.34,381.5Z"/><circle class="cls-1" cx="361.09" cy="105.37" r="6.97"/><circle class="cls-1" cx="385.87" cy="105.37" r="6.97"/><path class="cls-1" d="M332.38,95.61H250.11a9.76,9.76,0,0,0,0,19.52h82.27a9.76,9.76,0,0,0,0-19.52Z"/><circle class="cls-4" cx="259.4" cy="413.55" r="19.36"/><polygon class="cls-8" points="266.62 413.55 255.19 406.95 255.19 420.15 266.62 413.55"/><rect class="cls-1" x="295.36" y="409.3" width="308.36" height="8.49" rx="4.24"/><path class="cls-4" d="M299.61,409.3H436.44a0,0,0,0,1,0,0v8.49a0,0,0,0,1,0,0H299.61a4.24,4.24,0,0,1-4.24-4.24v0A4.24,4.24,0,0,1,299.61,409.3Z"/><rect class="cls-1" x="212.34" y="137.01" width="435.67" height="244.49"/><g class="cls-9"><path class="cls-10" d="M529.82,225l-25.59-38.17A46,46,0,1,1,483.86,225a47,47,0,0,1,.24-4.77Z"/><path class="cls-11" d="M484.1,220.23a45.93,45.93,0,0,1,20.13-33.4L529.82,225Z"/><line class="cls-12" x1="465.49" y1="183.96" x2="432.79" y2="183.96"/><line class="cls-12" x1="465.49" y1="197.59" x2="445.73" y2="197.59"/><path class="cls-13" d="M421.56,383.93H234.63s.63-55,8.54-92.08c31.23-9.13,46.83-14.32,89.35-15.47,36.73,0,62.4,5.51,83.11,15.47C427.15,335.6,421.56,383.93,421.56,383.93Z"/><circle class="cls-14" cx="332.26" cy="306.57" r="11.29"/><polygon class="cls-14" points="326.28 383.93 338.77 383.93 335.27 307.45 329.78 307.45 326.28 383.93"/><path class="cls-13" d="M360.36,277.6A68.44,68.44,0,0,1,361.73,290a29.45,29.45,0,0,1-19.9,27.85l-9.57-26-9.57,26A29.47,29.47,0,0,1,302.79,290c0-2.82.41-9.39,1.15-12l28.58-1.66Z"/><ellipse class="cls-13" cx="332.26" cy="225.69" rx="31.2" ry="30.14"/><path class="cls-13" d="M332.52,304.65h0a21.43,21.43,0,0,0,21.41-22.32l-2.14-43.61H313.26l-2.14,43.61A21.42,21.42,0,0,0,332.52,304.65Z"/><path class="cls-13" d="M333.34,201c12.1.43,21.52,10.74,21.52,22.85v14.84a34.7,34.7,0,0,1-6,19.55h0a19.72,19.72,0,0,1-16.31,8.63h0a19.73,19.73,0,0,1-16.31-8.63h0a34.77,34.77,0,0,1-6-19.55V223.35A22.33,22.33,0,0,1,333.34,201Z"/><path class="cls-13" d="M333.82,191.32c10.52,0,21.82,4.75,21.82,12.46s-8.67,15.06-21.82,15.06c-9.68,0-22.21,4.28-23.63,13.58-3.32-4.13-6.25-8.81-6.25-16.52C303.94,203.71,318.53,191.32,333.82,191.32Z"/><path class="cls-13" d="M408.71,383.82s13.1-83.22,14-92.16,6.52-13.55,15.65-17.12,26.65-10.84,28.42-11.4,3.77-1,4.93.61c.82,1.17.39,3.45-1.08,4.6-2.55,2-17.27,11.85-17.27,11.85a86.44,86.44,0,0,1,4.75,9.84c1.12,3.29,2,9.26-1.58,13.36s-8.2,8.48-12,8.48l0,71.94Z"/><path class="cls-13" d="M436.72,301c4.57-2.88,3.45-11.22,2.24-17.26l3.17-2.4c4.24,0,8.89-1.33,10.25-4.19.83-1.77,0-3.87-1.63-3.87-2.15,0-10.67-.23-14-.42S424.16,280.75,423,290"/><path class="cls-13" d="M445.19,293.15a14.73,14.73,0,0,1,.38,2.89c0,3,.19,6.89,3.12,8.2s10.4-1.5,13.19-3.27,4.54-5.87,2.42-8.59-2.42-4.92-2.7-8.46c-.36-4.54-4.19-5.68-7.14-4.16-4.15,2.15-9.82,2.05-10.38,5.3-.4,2.32.54,5.42,1.11,8.09"/><line class="cls-15" x1="271.76" y1="332.92" x2="271.76" y2="383.82"/><line class="cls-15" x1="444.54" y1="339.02" x2="415.63" y2="339.02"/><line class="cls-15" x1="444.54" y1="359.75" x2="424.55" y2="359.75"/><circle class="cls-15" cx="437.49" cy="346.73" r="2.95"/></g><g class="cls-16"><path class="cls-17" d="M290.65,420.71a10.25,10.25,0,0,0-4.14-4l-.13-.07-.06,0-.64-.29-.27-.12-.34-.14a10.28,10.28,0,0,0-5.48-.67l-5.84.89h0L265,417.61a9.11,9.11,0,0,0-1.48.35,23.29,23.29,0,0,0-2.79-4.71h5.65v-5.36l15.3-46.14a1.55,1.55,0,0,0-1.47-2H215.42a2.93,2.93,0,0,0-2.78,2L211.23,366c-5.82-8.84-15.72-20.72-24.4-27.74-2.31-1.19-4.35-2.25-6.29-3.19a7.9,7.9,0,0,0,4.83-5.27c1.81-6.38-1.38-10.69-6.71-12.11,5.29-1,8.19-5.38,8.19-12.71a19.69,19.69,0,0,0-5-13.45c-1.95-6.47-7-9.7-12.64-9.7a21.25,21.25,0,0,0-19.08,11.54c-7.16,14.17-13.92,13.32-17.76,20-2.8,4.88-2.45,11.16,1.5,14.91a29,29,0,0,0-6.74,3c-9.13,1.76-16.34,4.66-22.3,8.64a122.27,122.27,0,0,0-5.09,13H95.49A13.76,13.76,0,0,0,82,364c-3.57,17.78-9.86,54.57-9.86,92.62,29.41,0,99,18.59,99,40.74h0v34.94l-85.8,9.31a6.29,6.29,0,0,0-5.67,6.26v6.79l91.47-22.25v.6h5.05l15.45,21.65v-8.23a7.53,7.53,0,0,0-3.64-6.45l-11.1-7h4.8v-.6l49.1,11.94v6.21l-2.88,7.87a5.54,5.54,0,0,0,3.82,7.27h0a5.51,5.51,0,0,0,1.36.17h50.71a9.6,9.6,0,0,0-6.22-9l-8.45-3.2,4,1v-6.79a6.29,6.29,0,0,0-5.67-6.26l-21-2.28v-12.7h8.93s4.3-36,7.28-64.92c5.5-1.22,9.89-2.45,12.95-3.39a7.38,7.38,0,0,0,5-7.13V447a7.22,7.22,0,0,0-7-7.43h1a10.26,10.26,0,0,0,4.59-1.08l1.43-.72h0l1.4-.7,4.22-2.11a10.24,10.24,0,0,0,5.64-9.15h0a10,10,0,0,0-.25-2.27A10.1,10.1,0,0,0,290.65,420.71ZM230.8,526.59v11l-49.1-5.33V497.32h-.12c0-11.51,18.37-22.06,40-29.53h5.45l3.72,58.8Zm34.07-87.07v-.14a10.17,10.17,0,0,0,1.67.14Z"/><path class="cls-17" d="M701.86,508.11c-.35-1.12-1.36-2-3.55-3-4.55-2-10.78-2.73-13.5-.24a6.12,6.12,0,0,1,.42.81l-9.58-9.58,1.18-1.1a195.41,195.41,0,0,0-14-25.1,186.68,186.68,0,0,0,1-31.34,61,61,0,0,1,9.31-36.29c10.09-15.88,17.91-38.23,17.91-57.66A47.38,47.38,0,0,0,680,314l.94-6,1.18-7.65h0c6.43-.2,12.48-1.06,16.8-3.05,4.34-32.19,9.75-73.48-2.31-90.2a117.11,117.11,0,0,0-48.15-13.25l-5.75-19.07c1.66-5.9.66-16.2-1.61-21-2.76-5.86-8.83-7.89-10.76-5.24-1.75-3.12-11.56-3.71-17.91,1.91C605,156.9,603.67,164.1,606.1,168c1.51,2.43,4.16,3.27,7.1,3.12,1.83,7.8,5,15.25,6.66,17.57,1.8,2.51,3.83,3.74,6.29,3.38l1.05,4c-11.07,2.32-25.93,6.17-30.71,10.92-7.61,18.53-15.31,41.67-18.28,50.77h-4.77a2.3,2.3,0,0,0-2.23,2.85c-6.37-1.19-16.38-3-21.17-3.73a3.35,3.35,0,0,0-3.14.82c-2.8-1.05-8.29-2.82-10.31-3.46a2.1,2.1,0,0,1-1.17-.94l-3.2-5.52a10.17,10.17,0,0,0-2.34-2.76l-5.09-4.21a1.89,1.89,0,0,0-2.73,2.56L524,246a9.82,9.82,0,0,0,1.48,1.61l.35.3a.76.76,0,0,1-.5,1.33h-2.73a.91.91,0,0,0,.91-.91v-.13a.9.9,0,0,0-.91-.9h-5.86a2.32,2.32,0,0,0-1.32-.41h-.78a2.53,2.53,0,0,0-2.53-2.53h-.62a.34.34,0,0,0-.34.34v2.6h-9.43a1.34,1.34,0,0,0-.35,0l-2.64.6a.34.34,0,0,0,0,.66l2.64.6a2,2,0,0,0,.35,0h9.43V250a2.33,2.33,0,0,0,.69,1.65l2.14,2.15v2.48a2.32,2.32,0,0,0,1.11,2l4.51,2.81a2.34,2.34,0,0,0,1.45,2.16l8.83,3.62a10,10,0,0,0,3.79.75h3s4.31,1.34,7.42,2.33c.07,3.56,1.37,4.53,3.16,5.64,6,3.72,17.16,7.13,32.73,9l.23.63a4.79,4.79,0,0,0,4.51,3.16H604L606.36,314l-33.82,98.49a17.13,17.13,0,0,0,4.31,16.22L625,478.08,624.55,522c-4.95,1.94-1.3,8.65-1.3,8.65s-22.41,8.55-23.93,9.19c-4.8,2-5.8,4.38-5.8,7.45a2,2,0,0,0,.71,1.55,2.32,2.32,0,0,0-.15.59l-.26,2.43a2.54,2.54,0,0,0,2.53,2.81h55.51l-2.57-8a4.35,4.35,0,0,0,1.88-3,28.11,28.11,0,0,0,.28-3.69A13.38,13.38,0,0,0,647,529.83v-4.65l2,0c2.2-5.56,4.1-11.07,5.75-16.48l3.51,3.6,2.34-2.19,9.82,9.82a4.73,4.73,0,0,0-1.17,2.66c-.21,2.59,6.81,3.39,6.81,3.39l.39,15s-11.29.43-11.29,13.62h23.64c3.71,0,6-1.43,7.82-7.31,1.2-3.91,11.05-33.34,12.31-38ZM616.35,416.6c2.26-4.2,5.54-9.18,9.33-14.79l-.21,22.83A118.73,118.73,0,0,0,616.35,416.6Z"/></g><line class="cls-18" x1="0.75" y1="546.64" x2="739.62" y2="546.64"/><path class="cls-3" d="M176.76,356a13.77,13.77,0,0,0-13.51-11.07H87.51A13.76,13.76,0,0,0,74,356c-3.57,17.78-9.86,54.57-9.86,92.62H186.62C186.62,410.55,180.32,373.76,176.76,356Z"/><rect x="163.16" y="489.34" width="10.56" height="35.66"/><path class="cls-3" d="M168.44,448.6H64.15c29.42,0,99,18.59,99,40.74h10.45c0-22.15,68-40.74,96.77-40.74Z"/><path class="cls-19" d="M164,524.2l-86.6,9.39a6.3,6.3,0,0,0-5.67,6.27v6.78"/><path class="cls-19" d="M172.93,524.2l86.6,9.39a6.3,6.3,0,0,1,5.67,6.27v6.78"/><path class="cls-19" d="M183.67,546.64v-8.23A7.55,7.55,0,0,0,180,532l-12.37-7.76"/><path class="cls-3" d="M142.64,431.55l7.63,17.05s25,9.76,61.24,9.76a195.3,195.3,0,0,0,56.21-8.06,7.37,7.37,0,0,0,5-7.13V439a7.21,7.21,0,0,0-7-7.42Z"/><g class="cls-20"><path class="cls-21" d="M148.66,431.55c9,0,6.75,10.76,25.29,10.76,22.33,0,36.12-6.42,36.12-6.42l3.58,23.92H222V431.55Z"/></g><path class="cls-22" d="M269.64,548.86l-31.08-11.74V518.61H222.82v23.93l-2.88,7.87a5.54,5.54,0,0,0,5.2,7.45h50.71A9.61,9.61,0,0,0,269.64,548.86Z"/><path d="M269.64,548.86l-12.49-4.72-2.85,3.5a11.9,11.9,0,0,1-9.21,4.36H234.56a8.57,8.57,0,0,1-6.68-3.19l-5.06-6.27-2.88,7.87a5.54,5.54,0,0,0,5.2,7.45h50.71A9.61,9.61,0,0,0,269.64,548.86Z"/><path class="cls-22" d="M257,409.63l14.58-2.22a10.16,10.16,0,0,1,5.48.66l.62.26a10.25,10.25,0,0,1,6.3,9.45h0a10.25,10.25,0,0,1-5.65,9.15l-7.05,3.53a10.26,10.26,0,0,1-4.58,1.09h-8.16a10.25,10.25,0,0,1-10.24-10.24v-1.56A10.24,10.24,0,0,1,257,409.63Z"/><path d="M277.7,408.33l-.61-.26a10.26,10.26,0,0,0-5.48-.67l-5.84.9a17.14,17.14,0,0,1,7.86,10.87,17.32,17.32,0,0,1-.89,10.58l5.62-2.82a10.23,10.23,0,0,0-.66-18.6Z"/><path d="M138.55,321.7c-20.12,0-22,13.09-22,40.13s9.77,69.85,9.77,69.85h90.95s-19.09-64.24-27-76.74S164.79,321.7,138.55,321.7Z"/><path class="cls-23" d="M142.82,321.34c-21.49,0-35.61,3.7-46,10.61C86.52,354.63,85,373,90.79,396.76c4.85,3.72,9.1,5.44,16.65,6.33L98.7,433.28h45.74L147.38,371s-24.92-22.87-24.92-38.09c0-6.94,9-8.81,17.89-8.81,7.74,0,20.5,2.49,24.8,8.26,6.14,8.26,2.76,29.37,2.68,38.64l25,60.65h35l-24.22-48.76c4.76-3.45,7.44-10.23,3.32-18.65s-17.09-25.13-28.1-34C167,324.11,162,321.34,142.82,321.34Z"/><path class="cls-21" d="M107.44,403.09c12.76.77,22.54.17,31.46-2.4-7.07,8-17.71,11-33.95,11Z"/><line class="cls-19" x1="188.69" y1="363.73" x2="191.4" y2="381.16"/><path class="cls-19" d="M110.55,378.59c9.22-2.08,27.37,1,36.11,5.67"/><path class="cls-22" d="M192.63,395.47c0-5.56-3-8.65-13.65-11.75-7.54,0-17.49,5.08-17.49,10.65s9.95,9.49,17.49,9.49S192.63,401,192.63,395.47Z"/><polygon class="cls-24" points="154.82 405.27 189.34 405.27 189.34 399.91 154.82 402.66 154.82 405.27"/><path class="cls-24" d="M272.23,351.73H207.44a2.93,2.93,0,0,0-2.78,2l-15.32,46.17H258.4l15.3-46.14A1.55,1.55,0,0,0,272.23,351.73Z"/><rect class="cls-24" x="189.34" y="399.91" width="69.05" height="5.36"/><line class="cls-19" x1="200.43" y1="399.91" x2="258.4" y2="399.91"/><circle class="cls-8" cx="235.31" cy="375.82" r="6.43"/><path class="cls-4" d="M177.05,431.68c13.69-19.4,32.28-37.12,50.8-37.12s29.74,11.21,29.74,25.35-10.1,98.7-10.1,98.7H222.82l-5.5-86.93Z"/><path class="cls-25" d="M138.24,318.57c-19.57,0-27.19,10.56-28.31,17.29H119l-5,11.55L147.38,371c-23.85-30.84-29.22-46.9-7-46.9,15.87,0,29.39,10.39,27.48,46.9l13.52-23.62-10.21-11.55h7.73C173.49,325.54,155.5,318.57,138.24,318.57Z"/><circle class="cls-26" cx="141.41" cy="375.32" r="2.12"/><path class="cls-3" d="M170.89,280.85a19.36,19.36,0,0,1,8,16.11c0,7.33-2.9,11.71-8.19,12.71,5.33,1.43,8.52,5.74,6.71,12.12-1.53,5.38-7.47,7.06-13.79,5.74-9-1.88-20.58-10.34-20.58-23.34C143,289.82,170.89,280.85,170.89,280.85Z"/><path class="cls-22" d="M146.19,290.94l-10.54,35c3.24,8.59,15.67,14,19.6,9.2l7.31-27.72Z"/><path class="cls-27" d="M157.91,325l2.94-11.16L149.14,311C147.74,316.51,152.32,323.55,157.91,325Z"/><path class="cls-22" d="M146.19,290.94c1.69-6.67,8.12-11.43,14.82-9.74,8.88,2.24,13.08,7.37,11.6,15.57-1.6,8.89-5.44,18.15-7.34,20.8s-4.16,4-6.92,3.26c-4.49-1.13-10.57-4.49-12.48-10.39C144.07,304.91,143.51,301.6,146.19,290.94Z"/><circle class="cls-26" cx="159.11" cy="300.54" r="4.07"/><circle class="cls-26" cx="171.31" cy="304.97" r="4.07"/><line class="cls-26" x1="162.94" y1="301.93" x2="167.49" y2="303.58"/><line class="cls-26" x1="155.28" y1="299.15" x2="145.88" y2="295.73"/><path class="cls-3" d="M153.47,288.4c1.54,3.14,6.6,5.55,11.34,5.55a12.57,12.57,0,0,0,9.92-4.28c0-10.61-6.32-15.86-13.49-15.86a21.26,21.26,0,0,0-19.08,11.55c-7.17,14.16-13.93,13.31-17.77,20-4.27,7.46-1.2,18.17,10.8,18.17,7.23,0,11.05-7,11.05-15.68C146.24,301.56,148.82,294.83,153.47,288.4Z"/><path class="cls-3" d="M64.15,448.6c0-11.74,31.27-17.05,52.81-17.05h25.68a7.62,7.62,0,0,1,7.63,7.62v9.43Z"/><path class="cls-4" d="M126.37,431.68c0-17.78,1.65-48,20.39-48s52.17,22.58,63.31,47.19c-11.65,3.26-19.34,5-36.35,5-10.06,0-20.17-4.21-20.17-4.21Z"/><path class="cls-21" d="M153.55,431.68a22.37,22.37,0,0,1-12.65-11c-5.29,0-9,5.61-9,11Z"/><path class="cls-19" d="M208.87,428.42a74.52,74.52,0,0,0-11.6-16.22"/><path class="cls-19" d="M75,438.11c11-4.47,28.41-6.56,41.94-6.56h25.68a7.62,7.62,0,0,1,7.63,7.62v9.43s18.54,7.23,46.8,9.25"/><line class="cls-28" x1="286.54" y1="351.81" x2="279.37" y2="351.81"/><line class="cls-28" x1="274.26" y1="346.71" x2="274.26" y2="339.54"/><line class="cls-28" x1="282.94" y1="343.14" x2="277.87" y2="348.21"/><path class="cls-4" d="M604.47,199c-9.7,23.61-19.55,54.7-19.55,54.7S565.36,250,558,248.92c-2.84-.41-4.34.85-5.46,7.35-1.46,8.51.1,9.78,2.61,11.32,7.29,4.48,21.86,8.52,42.78,10,8.27-2.69,23.18-25.48,23.18-38.94S604.47,199,604.47,199Z"/><g class="cls-29"><path class="cls-27" d="M606.42,220.44s-6.81,44.67-13.78,60h26.45Z"/></g><rect class="cls-3" x="659.1" y="486.44" width="37.17" height="20.52" transform="translate(805.65 1327.12) rotate(-135)"/><rect class="cls-3" x="626.17" y="509.14" width="37.17" height="20.52" transform="translate(125.36 1164.15) rotate(-90)"/><path d="M688,306H634.49l-2,211,24.53.2c13.45-34,16-65.78,14.79-86.63a61,61,0,0,1,9.31-36.29C691.21,378.42,699,356.08,699,336.64A47.38,47.38,0,0,0,688,306Z"/><path d="M614.34,306l-33.82,98.49a17.1,17.1,0,0,0,4.31,16.22l81.45,83.66L684.81,487c-17.09-37.27-49.09-69.61-60.48-78.41,11.13-20.71,47.11-60.19,47.11-102.64Z"/><path class="cls-4" d="M688,306H614.34L604.47,199c7.94-7.89,43.67-13.32,43.67-13.32s28-1.94,56.47,13.32Z"/><path class="cls-4" d="M704.61,199c12.07,16.71,6.66,58,2.32,90.19-15.13,7-51.35,0-51.35,0Z"/><line class="cls-19" x1="611.38" y1="273.89" x2="605.98" y2="215.71"/><line class="cls-26" x1="633.82" y1="458.19" x2="634.11" y2="429.82"/><path class="cls-30" d="M592.64,280.42H642l-10.2-28A4,4,0,0,0,628,249.8H581.42a2.32,2.32,0,0,0-2.18,3.11l8.88,24.35A4.82,4.82,0,0,0,592.64,280.42Z"/><path class="cls-22" d="M646.92,154.11l10.54,35c-3.24,8.59-15.67,13.95-19.6,9.2l-7.31-27.73Z"/><path class="cls-27" d="M635.2,188.13,632.26,177,644,174.15C645.37,179.69,640.79,186.72,635.2,188.13Z"/><path class="cls-22" d="M646.92,154.11c-1.68-6.67-8.11-11.43-14.82-9.74-8.87,2.24-13.08,7.37-11.6,15.57,1.6,8.89,5.44,18.16,7.34,20.81s4.17,3.95,6.92,3.26c4.49-1.13,10.57-4.49,12.48-10.39C649,168.08,649.6,164.77,646.92,154.11Z"/><path d="M650.65,167c1.76-5.87.76-16.4-1.54-21.28-2.76-5.86-8.83-7.88-10.77-5.24-1.74-3.11-11.55-3.71-17.9,1.91-7.42,6.56-8.79,13.75-6.36,17.68,2.74,4.43,9.24,3.61,14.43,1.07,5.74-2.79,6.1-8.89,10.55-7.6C644.91,155.22,642.23,167.05,650.65,167Z"/><path class="cls-22" d="M637.49,268.07H632.8l-5.37-1a3.92,3.92,0,0,0-3.21.82l-1.17,1h0a2.84,2.84,0,0,0-2.84,2.84v.71a.83.83,0,0,0,.3.64l7.45,6.29a9.79,9.79,0,0,0,2.11,1.37l5.59,2.67a9.44,9.44,0,0,0,4.05.91h4.81a7.21,7.21,0,0,0,2.68-.51h0a7.06,7.06,0,0,1,2.68-.52h5.7c2.59,0,3.74-3.1,4.12-5.39s.8-6.43-2-6.43-4.26.07-5.94.07c-1.11,0-3.86-3.47-5.62-5.84a5.35,5.35,0,0,0-4.31-2.17h-6Z"/><line class="cls-19" x1="632.8" y1="268.07" x2="640.45" y2="268.07"/><path class="cls-8" d="M521.91,239.31h8.56a1,1,0,0,1,1,1v0a1,1,0,0,1-1,1h-8.56a0,0,0,0,1,0,0v-1.94A0,0,0,0,1,521.91,239.31Z"/><path class="cls-22" d="M543.4,245.34l-3.2-5.52a10.17,10.17,0,0,0-2.34-2.76l-5.1-4.21a1.88,1.88,0,0,0-2.53.12h0a1.88,1.88,0,0,0-.19,2.44l1.89,2.6a9.4,9.4,0,0,0,1.48,1.61l.34.31a.75.75,0,0,1-.49,1.32H525.7a2.35,2.35,0,0,0-2.35-2.35h-.79a2.52,2.52,0,0,0-2.52-2.53h-.62a.35.35,0,0,0-.34.35V242a2.31,2.31,0,0,0,.69,1.65l2.14,2.15v2.48a2.36,2.36,0,0,0,1.1,2l4.52,2.8h0a2.33,2.33,0,0,0,1.45,2.16l8.82,3.62a10.08,10.08,0,0,0,3.79.75h3s8.36,2.61,10.18,3.22,3.75-2.26,3.75-6-.26-5.57-2.27-6.53c-1.67-.8-9.23-3.24-11.68-4A2.1,2.1,0,0,1,543.4,245.34Z"/><path class="cls-19" d="M527.41,243.93h.89a1.37,1.37,0,0,1,1.28,1.86l-.73,1.92h.9a1.63,1.63,0,0,1,1.61,1.83l-.2,1.66a14.55,14.55,0,0,1,11.92,1.91"/><path class="cls-8" d="M509.65,239.31h12.26v1.94H509.65a1.47,1.47,0,0,1-.36,0l-2.63-.6a.34.34,0,0,1,0-.66l2.63-.6A1.47,1.47,0,0,1,509.65,239.31Z"/><circle class="cls-31" cx="634.57" cy="315.61" r="2.02"/><path class="cls-26" d="M629,312.63v23.24c0,5.36,2.69,9.19,5.93,9.19"/><path class="cls-32" d="M708.8,500l8.15,1.31c-1.26,4.71-11.11,34.15-12.31,38.05-1.82,5.89-4.12,7.31-7.82,7.31H681.59s14.23-5.57,18.48-16.13S708.8,500,708.8,500Z"/><path class="cls-33" d="M692.79,496.91c2.72-2.5,9-1.76,13.5.23s4,3.8,3.05,7.66-9.29,31.63-10.31,34.94-3.5,6.9-9.39,6.9H673.18c0-13.19,11.29-13.62,11.29-13.62l-.39-15s-7-.8-6.81-3.39c.35-4.51,8.21-7.62,15-7.75C694.28,503.32,694.13,498.94,692.79,496.91Z"/><circle class="cls-19" cx="690.54" cy="532.58" r="1.49"/><circle class="cls-19" cx="690.34" cy="525.08" r="1.49"/><circle class="cls-19" cx="690.15" cy="517.58" r="1.49"/><path class="cls-32" d="M659.84,546.64H604.33a2.54,2.54,0,0,1-2.53-2.81l.26-2.43a2.54,2.54,0,0,1,2.43-2.26l52.32-2Z"/><path class="cls-33" d="M654.81,521.68a13.27,13.27,0,0,1,4.62,10.24,28.09,28.09,0,0,1-.28,3.68,4.38,4.38,0,0,1-4.18,3.76l-51.46,1.87a1.89,1.89,0,0,1-2-2c0-3.08,1-5.42,5.8-7.45,1.52-.65,23.92-9.2,23.92-9.2s-3.73-6.86,1.46-8.71c3.77-1.35,9,3.22,13.7,10.42C650.55,524.33,654.81,521.68,654.81,521.68Z"/><circle class="cls-19" cx="617.56" cy="532.91" r="1.49"/><circle class="cls-19" cx="624.68" cy="530.54" r="1.49"/><circle class="cls-19" cx="631.8" cy="528.17" r="1.49"/><path class="cls-26" d="M665.76,314.92c0,11.28,7.08,20.41,15.83,20.41"/><path class="cls-27" d="M630.06,173.58l.21.75a.7.7,0,0,1-.66.87,2.68,2.68,0,0,1-2.67-1.53A6,6,0,0,0,630.06,173.58Z"/><path class="cls-27" d="M658.2,288.79a56.3,56.3,0,0,0,30.48,12.86l1.45-9.37C677.64,292.76,658.2,288.79,658.2,288.79Z"/><path class="cls-19" d="M685.69,236.5s-1.91,17.21-.88,31.28H668.66"/><line class="cls-28" x1="585.96" y1="240.05" x2="582.38" y2="246.26"/><line class="cls-28" x1="575.41" y1="248.13" x2="569.2" y2="244.54"/><line class="cls-28" x1="576.65" y1="238.82" x2="578.51" y2="245.75"/><circle class="cls-34" cx="231.63" cy="161.84" r="6.04"/><circle class="cls-34" cx="278.74" cy="161.84" r="6.04"/><circle class="cls-34" cx="231.63" cy="208.95" r="6.04"/><circle class="cls-34" cx="278.74" cy="208.95" r="6.04"/><rect class="cls-35" x="231.63" y="159.45" width="47.11" height="47.11"/><polyline class="cls-19" points="278.74 204.06 278.74 206.56 276.24 206.56"/><line class="cls-36" x1="269.07" y1="206.56" x2="237.71" y2="206.56"/><polyline class="cls-19" points="234.13 206.56 231.63 206.56 231.63 204.06"/><line class="cls-36" x1="231.63" y1="196.89" x2="231.63" y2="165.53"/><polyline class="cls-19" points="231.63 161.95 231.63 159.45 234.13 159.45"/><line class="cls-36" x1="241.3" y1="159.45" x2="272.66" y2="159.45"/><polyline class="cls-19" points="276.24 159.45 278.74 159.45 278.74 161.95"/><line class="cls-36" x1="278.74" y1="169.11" x2="278.74" y2="200.47"/><circle class="cls-4" cx="231.63" cy="159.45" r="6.04"/><circle class="cls-4" cx="278.74" cy="159.45" r="6.04"/><circle class="cls-4" cx="231.63" cy="206.56" r="6.04"/><circle class="cls-4" cx="278.74" cy="206.56" r="6.04"/><rect class="cls-37" x="247.96" y="174.55" width="16.15" height="16.15"/><circle class="cls-37" cx="247.96" cy="190.7" r="6.91"/><polygon class="cls-37" points="264.47 166.97 256.43 180.9 272.52 180.9 264.47 166.97"/><rect class="cls-34" x="378.9" y="331.9" width="195.85" height="36.61" rx="10"/><rect class="cls-7" x="382.89" y="327.91" width="191.86" height="36.61" rx="10"/><rect class="cls-8" x="378.9" y="327.91" width="191.86" height="36.61" rx="10"/><path class="cls-38" d="M391.74,342.11a2.61,2.61,0,0,1,2.61-2.61h8.8"/><line class="cls-38" x1="394.03" y1="346.03" x2="398.91" y2="346.03"/><path class="cls-38" d="M398.52,339.5,395,350.55a3.41,3.41,0,0,1-3.25,2.37h0"/><text class="cls-39" transform="translate(414.56 349.64)">Gil<tspan class="cls-40" x="12.46" y="0">r</tspan><tspan class="cls-41" x="16" y="0">o</tspan><tspan class="cls-42" x="22.06" y="0">y</tspan></text><polyline class="cls-43" points="557.92 344.17 553.84 348.25 549.75 344.17"/><rect class="cls-17" x="413.74" y="31.14" width="210.68" height="79.59" rx="10"/><rect class="cls-7" x="417.73" y="27.15" width="206.69" height="79.59" rx="10"/><rect class="cls-8" x="413.74" y="27.15" width="206.69" height="79.59" rx="10"/><path class="cls-1" d="M567.81,83.22l-3.61-9.29H549.47L546,83.22H541L554.25,50h5.3l13.23,33.26Zm-11-28.48-5.68,14.93h11.45Z"/><path class="cls-1" d="M577.45,77.17a6.08,6.08,0,0,1,1.88-4.67,8.8,8.8,0,0,1,5-2.18l6.1-.89c1.16-.16,1.74-.72,1.74-1.69a3.79,3.79,0,0,0-1.22-2.91,5.26,5.26,0,0,0-3.66-1.12A5,5,0,0,0,583.69,65a5.19,5.19,0,0,0-1.55,3.31l-4.22-1a7.39,7.39,0,0,1,3-5.28,10,10,0,0,1,6.29-2q4.79,0,7.09,2.33a8.07,8.07,0,0,1,2.3,5.93V79.52a22.27,22.27,0,0,0,.28,3.7h-4.32a18.06,18.06,0,0,1-.23-3A8.29,8.29,0,0,1,585,83.93a7.61,7.61,0,0,1-5.44-2A6.29,6.29,0,0,1,577.45,77.17Zm8.16,3a6.86,6.86,0,0,0,4.74-1.59q1.78-1.6,1.79-5.07v-1l-6.9,1a4.38,4.38,0,0,0-2.39,1.08,3,3,0,0,0-.9,2.3,3.14,3.14,0,0,0,1,2.3A3.66,3.66,0,0,0,585.61,80.22Z"/><path class="cls-44" d="M449.81,50.15H453L464.77,80.8l2.94.59v2H456.6v-2l3-.23.36-.7-3.54-9.34H444.91l-3.49,9.34.5.7,3.18.23v2h-9.59v-2l2.82-.59Zm.76,5.14-4.83,13.58h9.88Z"/><path class="cls-44" d="M485.62,80.56a22.45,22.45,0,0,1-4.34,2.4,10,10,0,0,1-3.69.78,5.9,5.9,0,0,1-6.26-6.27,5.67,5.67,0,0,1,2.57-4.92q2.57-1.8,11.72-4V67c0-2-.33-3.48-1-4.28a4.37,4.37,0,0,0-3.49-1.19,8.71,8.71,0,0,0-1.84.19,12.58,12.58,0,0,0-1.89.57v4.12H474a1.7,1.7,0,0,1-1.21-.33,1.68,1.68,0,0,1-.32-1.18c0-1.59.92-2.92,2.76-4a14.3,14.3,0,0,1,7.14-1.58c2.56,0,4.43.56,5.59,1.68s1.74,2.91,1.74,5.38v14.2l.84.78,2.58.24V83.4h-6.88Zm0-1.65V70.28q-6.14,1.69-8.07,3.11a4.38,4.38,0,0,0-1.92,3.7A4,4,0,0,0,476.69,80a3.81,3.81,0,0,0,2.86,1.09,7.89,7.89,0,0,0,2.64-.55A24.18,24.18,0,0,0,485.62,78.91Z"/><line class="cls-10" x1="517.09" y1="87.8" x2="517.09" y2="46.09"/></g></g></g></svg>