<svg width="456" height="371" viewBox="0 0 456 371" fill="none" xmlns="http://www.w3.org/2000/svg">
<path d="M140 371V291H220C220 340.412 166.667 364.922 140 371Z" fill="white"/>
<path d="M433.3 291.2H127.7C115.7 291.2 105.9 282.316 105.9 271.438V88.96C105.9 78.083 115.7 69.2 127.7 69.2H433.3C445.3 69.2 455.1 78.084 455.1 88.96V271.347C455.1 282.315 445.3 291.199 433.3 291.199V291.2Z" fill="white"/>
<path d="M106 68.005C106 56.957 114.956 48 126 48H435C440.304 48.0027 445.391 50.1113 449.141 53.8625C452.891 57.6138 454.999 62.7006 455 68.005V91H106V68.005Z" fill="#D3DBFF"/>
<path d="M88.1003 106.67C91.2829 108.97 95.1964 110.326 99.4279 110.326H135.624V127.877L158.569 110.326H168.467C179.138 110.326 187.788 101.703 187.788 91.0647V22.2357C187.788 11.5977 179.138 2.97412 168.467 2.97412H99.4279C88.7573 2.97412 80.1072 11.5977 80.1072 22.2357V106.67H88.1003Z" fill="#474BFF"/>
<path d="M168.467 2.97412H151.919C162.589 2.97412 171.239 11.5981 171.239 22.2357V91.0647C171.239 101.703 162.589 110.326 151.919 110.326H142.02L135.624 115.219V127.877L158.569 110.326H168.467C179.138 110.326 187.788 101.703 187.788 91.0647V22.2357C187.788 11.5981 179.138 2.97412 168.467 2.97412V2.97412Z" fill="#474BFF"/>
<path d="M88.1279 141.164V71.6969C88.1279 63.308 81.3066 56.5073 72.8916 56.5073H18.448C10.0334 56.5073 3.21167 63.308 3.21167 71.6969V125.974C3.21167 134.363 10.033 141.164 18.448 141.164H48.3572V155.134L66.451 141.164H88.1279Z" fill="#474BFF"/>
<path d="M72.8918 56.5073H51.3164C59.731 56.5073 66.5527 63.308 66.5527 71.6969V141.164H88.1282V71.6969C88.1278 63.308 81.3065 56.5073 72.8918 56.5073V56.5073Z" fill="#474BFF"/>
<path d="M117.601 130.065H78.9651C72.9936 130.065 68.1526 134.891 68.1526 140.844V179.362C68.1526 185.315 72.9936 190.141 78.9651 190.141H100.19V200.055L113.03 190.141H117.601C123.572 190.141 128.413 185.316 128.413 179.362V140.845C128.413 134.891 123.572 130.065 117.601 130.065V130.065Z" fill="#474BFF"/>
<path d="M117.601 130.065H100.946C106.918 130.065 111.759 134.891 111.759 140.844V179.362C111.759 185.316 106.918 190.141 100.946 190.141H100.19V200.055L113.03 190.141H117.601C123.572 190.141 128.413 185.316 128.413 179.362V140.844C128.413 134.891 123.572 130.065 117.601 130.065Z" fill="#474BFF"/>
<g clip-path="url(#clip0)">
<path d="M170.928 41.4622C170.757 37.5834 170.13 34.9168 169.232 32.6061C168.305 30.1534 166.879 27.9575 165.01 26.1321C163.185 24.2782 160.974 22.8376 158.55 21.9252C156.226 21.0267 153.573 20.3994 149.695 20.2284C145.787 20.0429 144.546 20 134.635 20C124.724 20 123.484 20.0429 119.59 20.2139C115.712 20.3849 113.045 21.0127 110.735 21.9107C108.282 22.8376 106.086 24.2637 104.26 26.1321C102.406 27.9575 100.966 30.1679 100.053 32.5922C99.1548 34.9168 98.5276 37.5689 98.3566 41.4477C98.1711 45.3555 98.1282 46.596 98.1282 56.5071C98.1282 66.4182 98.1711 67.6588 98.3421 71.5521C98.5131 75.4308 99.1409 78.0975 100.039 80.4081C100.966 82.8608 102.406 85.0567 104.26 86.8822C106.086 88.7361 108.296 90.1766 110.72 91.0891C113.045 91.9876 115.697 92.6149 119.576 92.7859C123.469 92.9574 124.71 92.9998 134.621 92.9998C144.532 92.9998 145.773 92.9574 149.666 92.7859C153.545 92.6149 156.212 91.9876 158.522 91.0891C163.428 89.1923 167.307 85.3135 169.203 80.4081C170.101 78.0835 170.729 75.4308 170.9 71.5521C171.071 67.6588 171.114 66.4182 171.114 56.5071C171.114 46.596 171.1 45.3555 170.928 41.4622ZM164.355 71.2668C164.198 74.832 163.599 76.7572 163.1 78.0406C161.873 81.2209 159.349 83.7449 156.169 84.9715C154.885 85.4706 152.946 86.0695 149.395 86.226C145.545 86.3976 144.39 86.4399 134.65 86.4399C124.91 86.4399 123.74 86.3976 119.904 86.226C116.339 86.0695 114.414 85.4706 113.13 84.9715C111.548 84.3866 110.107 83.4597 108.938 82.2475C107.726 81.0638 106.799 79.6377 106.214 78.0551C105.715 76.7717 105.116 74.832 104.959 71.2813C104.788 67.431 104.745 66.2756 104.745 56.5355C104.745 46.7954 104.788 45.6262 104.959 41.7903C105.116 38.2252 105.715 36.3 106.214 35.0165C106.799 33.4334 107.726 31.9934 108.952 30.8236C110.135 29.6114 111.562 28.6845 113.145 28.1001C114.428 27.601 116.368 27.0022 119.918 26.8451C123.769 26.6741 124.924 26.6312 134.664 26.6312C144.418 26.6312 145.573 26.6741 149.409 26.8451C152.975 27.0022 154.9 27.601 156.183 28.1001C157.766 28.6845 159.206 29.6114 160.376 30.8236C161.588 32.0073 162.515 33.4334 163.1 35.0165C163.599 36.3 164.198 38.2391 164.355 41.7903C164.526 45.6407 164.569 46.7954 164.569 56.5355C164.569 66.2756 164.526 67.4165 164.355 71.2668Z" fill="white"/>
<path d="M134.635 37.7546C124.283 37.7546 115.883 46.1539 115.883 56.5073C115.883 66.8607 124.283 75.26 134.635 75.26C144.989 75.26 153.388 66.8607 153.388 56.5073C153.388 46.1539 144.989 37.7546 134.635 37.7546ZM134.635 68.6717C127.919 68.6717 122.471 63.2243 122.471 56.5073C122.471 49.7904 127.919 44.3429 134.635 44.3429C141.352 44.3429 146.8 49.7904 146.8 56.5073C146.8 63.2243 141.352 68.6717 134.635 68.6717V68.6717Z" fill="white"/>
<path d="M158.508 37.0129C158.508 39.4305 156.548 41.3908 154.129 41.3908C151.712 41.3908 149.751 39.4305 149.751 37.0129C149.751 34.5947 151.712 32.635 154.129 32.635C156.548 32.635 158.508 34.5947 158.508 37.0129V37.0129Z" fill="white"/>
</g>
<g clip-path="url(#clip1)">
<path d="M71 82.6868C69.1034 83.5188 67.0826 84.0702 64.9756 84.3379C67.1431 83.0438 68.7974 81.0102 69.5752 78.559C67.5543 79.7639 65.3231 80.6149 62.9452 81.0899C61.0263 79.0467 58.2914 77.7812 55.3079 77.7812C49.5194 77.7812 44.8593 82.4796 44.8593 88.2394C44.8593 89.0682 44.9294 89.8651 45.1016 90.6237C36.4093 90.1997 28.7178 86.0337 23.5509 79.6874C22.6488 81.2524 22.1197 83.0438 22.1197 84.9723C22.1197 88.5933 23.9844 91.8031 26.7639 93.6614C25.0841 93.6295 23.4361 93.1418 22.04 92.3736C22.04 92.4055 22.04 92.4469 22.04 92.4884C22.04 97.5692 25.6642 101.789 30.4167 102.762C29.5657 102.994 28.6381 103.106 27.6755 103.106C27.0061 103.106 26.3304 103.068 25.6961 102.927C27.0507 107.068 30.8949 110.112 35.4658 110.211C31.9085 112.994 27.3918 114.67 22.5022 114.67C21.6448 114.67 20.8224 114.632 20 114.527C24.6314 117.513 30.1203 119.219 36.0395 119.219C55.2792 119.219 65.798 103.281 65.798 89.4666C65.798 89.0044 65.7821 88.5582 65.7597 88.1151C67.8348 86.6425 69.5784 84.8033 71 82.6868Z" fill="white"/>
</g>
<path d="M119.702 150.955C119.216 149.148 117.791 147.723 115.984 147.237C112.683 146.333 99.4775 146.333 99.4775 146.333C99.4775 146.333 86.2725 146.333 82.9712 147.203C81.1989 147.689 79.7392 149.148 79.2531 150.955C78.3843 154.257 78.3843 161.102 78.3843 161.102C78.3843 161.102 78.3843 167.983 79.2531 171.249C79.7397 173.057 81.1642 174.481 82.9715 174.968C86.3073 175.871 99.478 175.871 99.478 175.871C99.478 175.871 112.683 175.871 115.984 175.002C117.792 174.516 119.216 173.091 119.703 171.284C120.572 167.983 120.572 161.137 120.572 161.137C120.572 161.137 120.606 154.257 119.702 150.955V150.955ZM95.2732 167.427V154.778L106.254 161.102L95.2732 167.427Z" fill="white"/>
<rect x="153" y="122" width="265" height="134" rx="4" fill="#D3DBFF"/>
<path d="M328.109 134C321.551 134 316.218 139.333 316.218 145.891C316.218 147.942 316.739 149.872 317.657 151.559L298.178 171.038C295.492 168.947 292.131 167.691 288.473 167.691C284.814 167.691 281.453 168.947 278.766 171.036L263.567 155.838C264.265 154.658 264.691 153.303 264.691 151.836C264.691 147.464 261.136 143.909 256.764 143.909C252.392 143.909 248.836 147.464 248.836 151.836C248.836 156.208 252.392 159.764 256.764 159.764C258.23 159.764 259.586 159.338 260.765 158.64L275.963 173.839C273.875 176.526 272.618 179.887 272.618 183.545C272.618 187.204 273.875 190.565 275.963 193.25L250.866 218.35C248.753 216.434 245.961 215.255 242.891 215.255C236.333 215.255 231 220.588 231 227.145C231 233.703 236.333 239.036 242.891 239.036C249.449 239.036 254.782 233.703 254.782 227.145C254.782 225.094 254.261 223.164 253.343 221.477L278.768 196.053C280.96 197.757 283.603 198.899 286.493 199.261V219.397C280.878 220.344 276.584 225.227 276.584 231.109C276.584 237.667 281.917 243 288.475 243C295.033 243 300.366 237.667 300.366 231.109C300.366 225.229 296.071 220.346 290.457 219.397V199.261C293.346 198.899 295.99 197.757 298.182 196.053L313.38 211.251C312.681 212.432 312.255 213.788 312.255 215.255C312.255 219.626 315.81 223.182 320.182 223.182C324.554 223.182 328.109 219.626 328.109 215.255C328.109 210.883 324.554 207.327 320.182 207.327C318.715 207.327 317.36 207.753 316.181 208.451L300.982 193.252C303.071 190.565 304.327 187.204 304.327 183.545C304.327 179.887 303.071 176.526 300.982 173.84L320.136 154.686C322.247 156.603 325.039 157.782 328.109 157.782C334.667 157.782 340 152.449 340 145.891C340 139.333 334.667 134 328.109 134Z" fill="white"/>
<defs>
<clipPath id="clip0">
<rect width="73" height="73" fill="white" transform="translate(98 20)"/>
</clipPath>
<clipPath id="clip1">
<rect width="51" height="51" fill="white" transform="translate(20 73)"/>
</clipPath>
</defs>
</svg>