<svg width="450" height="400" viewBox="0 0 450 400" fill="none" xmlns="http://www.w3.org/2000/svg">
<path d="M432.246 0H17.7508C7.94612 0 0 7.36623 0 16.4524V303.548C0 312.634 7.9472 320 17.7508 320H432.246C442.051 320 449.997 312.634 449.997 303.548V16.4524C449.997 7.36623 442.05 0 432.246 0V0Z" fill="white"/>
<path d="M230.121 107.096H389.178C390.355 107.097 391.484 107.53 392.316 108.301C393.148 109.073 393.616 110.119 393.616 111.21V118.471C393.616 119.562 393.148 120.608 392.316 121.379C391.484 122.15 390.355 122.584 389.178 122.584H230.121C228.944 122.584 227.816 122.15 226.984 121.379C226.151 120.608 225.684 119.562 225.683 118.471V111.21C225.684 110.119 226.151 109.073 226.984 108.301C227.816 107.53 228.944 107.097 230.121 107.096ZM230.121 132.266H410.161C411.338 132.267 412.467 132.7 413.299 133.471C414.131 134.243 414.599 135.289 414.599 136.38V143.641C414.599 144.732 414.131 145.778 413.299 146.549C412.467 147.32 411.338 147.754 410.161 147.754H230.121C228.944 147.754 227.816 147.32 226.984 146.549C226.151 145.778 225.684 144.732 225.683 143.641V136.38C225.684 135.289 226.151 134.243 226.984 133.471C227.816 132.7 228.944 132.267 230.121 132.266ZM230.121 182.605H431.172C432.348 182.605 433.477 183.038 434.309 183.809C435.141 184.581 435.609 185.627 435.61 186.718V193.979C435.609 195.07 435.141 196.116 434.309 196.887C433.477 197.658 432.348 198.092 431.172 198.092H230.121C228.944 198.092 227.816 197.658 226.984 196.887C226.151 196.116 225.684 195.07 225.683 193.979V186.718C225.684 185.627 226.151 184.581 226.984 183.809C227.816 183.038 228.944 182.605 230.121 182.605ZM230.121 207.775H368.186C369.363 207.775 370.492 208.208 371.324 208.98C372.156 209.751 372.624 210.797 372.624 211.888V219.149C372.624 220.24 372.156 221.286 371.324 222.057C370.492 222.828 369.363 223.262 368.186 223.262H230.121C228.944 223.262 227.816 222.828 226.984 222.057C226.151 221.286 225.684 220.24 225.683 219.149V211.888C225.684 210.797 226.151 209.751 226.984 208.98C227.816 208.208 228.944 207.775 230.121 207.775ZM230.121 232.945H410.161C411.338 232.945 412.467 233.378 413.299 234.15C414.131 234.921 414.599 235.967 414.599 237.058V244.319C414.599 245.41 414.131 246.456 413.299 247.227C412.467 247.999 411.338 248.432 410.161 248.432H230.121C228.944 248.432 227.816 247.999 226.984 247.227C226.151 246.456 225.684 245.41 225.683 244.319V237.058C225.684 235.967 226.151 234.921 226.984 234.15C227.816 233.378 228.944 232.945 230.121 232.945ZM230.121 258.113H431.172C432.348 258.113 433.477 258.546 434.309 259.318C435.141 260.089 435.609 261.135 435.61 262.226V269.487C435.609 270.578 435.141 271.624 434.309 272.395C433.477 273.167 432.348 273.6 431.172 273.6H230.121C228.944 273.6 227.816 273.167 226.984 272.395C226.151 271.624 225.684 270.578 225.683 269.487V262.226C225.684 261.135 226.151 260.089 226.984 259.318C227.816 258.546 228.944 258.113 230.121 258.113ZM37.873 185.806H176.717C177.893 185.806 179.021 186.24 179.853 187.011C180.685 187.782 181.153 188.828 181.153 189.919V197.392C181.153 198.483 180.685 199.529 179.853 200.3C179.021 201.071 177.893 201.505 176.717 201.505H37.873C36.6963 201.505 35.5678 201.071 34.7356 200.3C33.9034 199.529 33.4356 198.483 33.4351 197.392V189.919C33.4356 188.828 33.9034 187.782 34.7356 187.011C35.5678 186.239 36.6963 185.806 37.873 185.806ZM37.873 211.315H134.511C135.688 211.316 136.816 211.749 137.648 212.52C138.481 213.292 138.948 214.338 138.949 215.428V222.902C138.948 223.992 138.481 225.038 137.648 225.81C136.816 226.581 135.688 227.014 134.511 227.015H37.873C36.6963 227.014 35.5678 226.581 34.7356 225.81C33.9034 225.038 33.4356 223.992 33.4351 222.902V215.428C33.4356 214.338 33.9034 213.292 34.7356 212.52C35.5678 211.749 36.6963 211.316 37.873 211.315ZM37.873 236.827H155.616C156.793 236.827 157.921 237.261 158.753 238.032C159.585 238.803 160.053 239.849 160.054 240.94V248.413C160.053 249.504 159.585 250.55 158.753 251.321C157.921 252.093 156.793 252.526 155.616 252.526H37.873C36.6963 252.526 35.5678 252.093 34.7356 251.321C33.9034 250.55 33.4356 249.504 33.4351 248.413V240.94C33.4356 239.849 33.9034 238.803 34.7356 238.032C35.5678 237.261 36.6963 236.827 37.873 236.827ZM37.873 262.337H113.408C114.585 262.337 115.713 262.77 116.546 263.542C117.378 264.313 117.846 265.359 117.846 266.45V273.923C117.846 275.014 117.378 276.06 116.546 276.831C115.713 277.602 114.585 278.036 113.408 278.036H37.873C36.6963 278.036 35.5678 277.602 34.7356 276.831C33.9034 276.06 33.4356 275.014 33.4351 273.923V266.44C33.4356 265.349 33.9034 264.303 34.7356 263.532C35.5678 262.76 36.6963 262.327 37.873 262.327V262.337ZM0.000976562 16.4574C0.000976562 7.3682 7.95465 0.000976562 17.7464 0.000976562H432.254C442.055 0.000976562 450 7.3692 450 16.4574V36.1969H0.000976562V16.4574Z" fill="#D3DBFF"/>
<path d="M132.83 159.999H45.496C38.8632 159.999 33.4362 154.973 33.4362 148.83V67.9441C33.4362 61.8014 38.8632 56.7744 45.496 56.7744H132.83C139.463 56.7744 144.89 61.8004 144.89 67.9441V148.83C144.89 154.972 139.463 159.999 132.83 159.999Z" fill="#474BFF"/>
<path d="M118.358 107.104V105.734C118.358 104.746 118.782 103.798 119.535 103.099C120.289 102.4 121.312 102.008 122.378 102.008C123.444 102.008 124.467 102.4 125.22 103.099C125.974 103.798 126.398 104.746 126.398 105.734V131.052C126.399 131.914 126.077 132.75 125.488 133.417C124.899 134.084 124.078 134.54 123.167 134.709C122.255 134.878 121.308 134.749 120.487 134.343C119.667 133.937 119.024 133.28 118.667 132.484C116.109 133.983 113.144 134.778 110.118 134.776C101.264 134.776 94.0369 128.082 94.0369 119.883C94.0369 111.685 101.264 105.001 110.118 105.001C113.021 104.998 115.87 105.729 118.358 107.116V107.104ZM67.367 106.014H77.9658L72.3631 88.0881L67.3562 106.014H67.367ZM65.2875 113.46L60.243 131.518C59.687 133.509 57.4933 134.705 55.3438 134.19C54.3124 133.943 53.4293 133.326 52.8885 132.475C52.3476 131.624 52.1933 130.609 52.4595 129.653L65.1281 84.3027C67.0696 77.5078 77.3139 77.4238 79.5087 84.1289L93.6792 129.552C93.975 130.501 93.8517 131.521 93.3365 132.386C93.0815 132.815 92.7379 133.192 92.3253 133.498C91.9128 133.803 91.4394 134.03 90.9323 134.166C89.908 134.44 88.8081 134.326 87.8747 133.848C86.9413 133.371 86.2508 132.569 85.955 131.619L80.2898 113.459H65.2875V113.46ZM110.12 127.328C114.532 127.328 118.16 123.969 118.16 119.882C118.16 115.795 114.532 112.436 110.12 112.436C105.708 112.436 102.08 115.795 102.08 119.882C102.08 123.969 105.707 127.328 110.12 127.328Z" fill="#F8F9FF"/>
<path d="M32.6464 27.9798C37.6027 27.9798 41.5892 24.4 41.5892 19.9833C41.5892 15.5666 37.5811 11.9858 32.6464 11.9858C27.7117 11.9858 23.7037 15.5666 23.7037 19.9833C23.7037 24.4 27.7117 27.9798 32.6464 27.9798Z" fill="#FF5645"/>
<path d="M61.8561 27.9798C66.8124 27.9798 70.7988 24.4 70.7988 19.9833C70.7988 15.5666 66.7908 11.9858 61.8561 11.9858C56.9215 11.9858 52.9133 15.5666 52.9133 19.9833C52.9133 24.4 56.9215 27.9798 61.8561 27.9798Z" fill="#FFCB3D"/>
<path d="M92.0245 27.9798C96.9592 27.9798 100.967 24.4 100.967 19.9833C100.967 15.5666 96.9484 11.9858 92.0245 11.9858C87.0683 11.9858 83.0817 15.5666 83.0817 19.9833C83.0817 24.4 87.0898 27.9798 92.0245 27.9798Z" fill="#3ABF7C"/>
<path d="M53 400V320H133C133 369.412 79.6667 393.922 53 400Z" fill="white"/>
</svg>