<svg xmlns="http://www.w3.org/2000/svg" viewBox="0 0 500 500"><g id="freepik--background-complete--inject-16"><rect y="382.4" width="500" height="0.25" style="fill:#ebebeb"></rect><path d="M237,337.8H43.91a5.71,5.71,0,0,1-5.7-5.71V60.66A5.71,5.71,0,0,1,43.91,55H237a5.71,5.71,0,0,1,5.71,5.71V332.09A5.71,5.71,0,0,1,237,337.8ZM43.91,55.2a5.46,5.46,0,0,0-5.45,5.46V332.09a5.46,5.46,0,0,0,5.45,5.46H237a5.47,5.47,0,0,0,5.46-5.46V60.66A5.47,5.47,0,0,0,237,55.2Z" style="fill:#ebebeb"></path><path d="M453.31,337.8H260.21a5.72,5.72,0,0,1-5.71-5.71V60.66A5.72,5.72,0,0,1,260.21,55h193.1A5.71,5.71,0,0,1,459,60.66V332.09A5.71,5.71,0,0,1,453.31,337.8ZM260.21,55.2a5.47,5.47,0,0,0-5.46,5.46V332.09a5.47,5.47,0,0,0,5.46,5.46h193.1a5.47,5.47,0,0,0,5.46-5.46V60.66a5.47,5.47,0,0,0-5.46-5.46Z" style="fill:#ebebeb"></path><rect x="418.33" y="391.92" width="31.57" height="0.25" style="fill:#ebebeb"></rect><rect x="301.93" y="389.21" width="33.41" height="0.25" style="fill:#ebebeb"></rect><rect x="396.59" y="401.21" width="62.43" height="0.25" style="fill:#ebebeb"></rect><rect x="52.46" y="399.53" width="19.23" height="0.25" style="fill:#ebebeb"></rect><rect x="80.6" y="399.53" width="30.29" height="0.25" style="fill:#ebebeb"></rect><rect x="189.58" y="395.31" width="54.56" height="0.25" style="fill:#ebebeb"></rect><rect x="149.32" y="76.89" width="285.92" height="159.18" transform="translate(584.57 312.95) rotate(180)" style="fill:#e0e0e0"></rect><rect x="133.62" y="76.89" width="300.18" height="159.18" transform="translate(567.43 312.95) rotate(180)" style="fill:#f5f5f5"></rect><rect x="209.03" y="11.29" width="149.37" height="290.37" transform="translate(440.19 -127.24) rotate(90)" style="fill:#fff"></rect><polygon points="311.33 231.16 256.51 81.79 346.98 81.79 401.81 231.16 311.33 231.16" style="fill:#f5f5f5"></polygon><polygon points="224.24 231.16 169.42 81.79 237.67 81.79 292.49 231.16 224.24 231.16" style="fill:#f5f5f5"></polygon><rect x="54.18" y="105.17" width="57.53" height="77.21" transform="translate(165.88 287.55) rotate(180)" style="fill:#e6e6e6"></rect><rect x="50.17" y="105.17" width="60.67" height="77.21" transform="translate(161 287.55) rotate(180)" style="fill:#f0f0f0"></rect><rect x="46.98" y="118.52" width="67.04" height="50.5" transform="translate(224.28 63.27) rotate(90)" style="fill:#fff"></rect><path d="M80.85,161.5l9.27-9.27a12,12,0,0,0,0-16.91l-9.27-9.27a.49.49,0,0,0-.69,0l-9.27,9.27a12,12,0,0,0,0,16.91l9.27,9.27A.49.49,0,0,0,80.85,161.5Zm-.35-34.42L89.43,136a11,11,0,0,1,0,15.53l-8.93,8.93-8.92-8.93a11,11,0,0,1,0-15.53Z" style="fill:#f0f0f0"></path><rect x="403.03" y="267.21" width="13.53" height="111.55" transform="translate(819.59 645.97) rotate(180)" style="fill:#f0f0f0"></rect><rect x="224.53" y="378.76" width="190.16" height="3.64" transform="translate(639.21 761.16) rotate(180)" style="fill:#f0f0f0"></rect><rect x="222.65" y="267.21" width="180.38" height="111.55" style="fill:#fafafa"></rect><path d="M379.52,332.39H246.17a13,13,0,1,1,0-26H379.52a13,13,0,1,1,0,26ZM246.17,307.25a12.14,12.14,0,1,0,0,24.27H379.52a12.14,12.14,0,1,0,0-24.27Z" style="fill:#f0f0f0"></path><path d="M379.52,364.76H246.17a13,13,0,1,1,0-26H379.52a13,13,0,0,1,0,26ZM246.17,339.61a12.14,12.14,0,1,0,0,24.27H379.52a12.14,12.14,0,1,0,0-24.27Z" style="fill:#f0f0f0"></path><path d="M271.68,316.58H354a2.72,2.72,0,0,0,2.71-2.71h0a2.72,2.72,0,0,0-2.71-2.72H271.68a2.72,2.72,0,0,0-2.72,2.72h0A2.72,2.72,0,0,0,271.68,316.58Z" style="fill:#ebebeb"></path><path d="M379.52,300H246.17a13,13,0,1,1,0-26H379.52a13,13,0,0,1,0,26ZM246.17,274.89a12.14,12.14,0,1,0,0,24.27H379.52a12.14,12.14,0,1,0,0-24.27Z" style="fill:#f0f0f0"></path><path d="M271.68,284.22H354a2.72,2.72,0,0,0,2.71-2.72h0a2.72,2.72,0,0,0-2.71-2.71H271.68A2.72,2.72,0,0,0,269,281.5h0A2.72,2.72,0,0,0,271.68,284.22Z" style="fill:#ebebeb"></path><path d="M271.68,348.94H354a2.72,2.72,0,0,0,2.71-2.71h0a2.73,2.73,0,0,0-2.71-2.72H271.68a2.73,2.73,0,0,0-2.72,2.72h0A2.72,2.72,0,0,0,271.68,348.94Z" style="fill:#ebebeb"></path><rect x="220.18" y="261.54" width="182.85" height="5.67" transform="translate(623.22 528.75) rotate(180)" style="fill:#f0f0f0"></rect><rect x="403.03" y="261.54" width="16.18" height="5.67" style="fill:#e6e6e6"></rect><path d="M85.72,336.48h47.44l4.52-78.56a3.29,3.29,0,0,0-3.32-3.52H94a3.79,3.79,0,0,0-3.73,3.52Z" style="fill:#e6e6e6"></path><path d="M80.93,336.48h47.44l4.52-78.56a3.29,3.29,0,0,0-3.32-3.52H89.18a3.79,3.79,0,0,0-3.73,3.52Z" style="fill:#f5f5f5"></path><path d="M94.4,326.68h36.55a0,0,0,0,1,0,0v9.8a0,0,0,0,1,0,0h-33A3.52,3.52,0,0,1,94.4,333v-6.27A0,0,0,0,1,94.4,326.68Z" transform="translate(225.34 663.17) rotate(180)" style="fill:#e6e6e6"></path><path d="M56.11,326.68H105.2a0,0,0,0,1,0,0V333a3.52,3.52,0,0,1-3.52,3.52h-42A3.52,3.52,0,0,1,56.11,333v-6.27a0,0,0,0,1,0,0Z" transform="translate(161.31 663.17) rotate(180)" style="fill:#f5f5f5"></path><rect x="129.91" y="336.48" width="3.25" height="45.91" transform="translate(263.07 718.88) rotate(180)" style="fill:#e6e6e6"></rect><rect x="106.03" y="336.48" width="3.25" height="45.91" transform="translate(215.32 718.88) rotate(180)" style="fill:#e6e6e6"></rect><rect x="80.73" y="336.48" width="3.25" height="45.91" transform="translate(164.71 718.88) rotate(180)" style="fill:#e6e6e6"></rect><rect x="56.86" y="336.48" width="3.25" height="45.91" transform="translate(116.97 718.88) rotate(180)" style="fill:#e6e6e6"></rect><path d="M146.44,336.48h47.44l4.52-78.56a3.29,3.29,0,0,0-3.32-3.52H154.69a3.79,3.79,0,0,0-3.73,3.52Z" style="fill:#e6e6e6"></path><path d="M141.65,336.48h47.44l4.52-78.56a3.28,3.28,0,0,0-3.32-3.52H149.9a3.78,3.78,0,0,0-3.72,3.52Z" style="fill:#f5f5f5"></path><path d="M155.12,326.68h36.55a0,0,0,0,1,0,0v9.8a0,0,0,0,1,0,0h-33a3.52,3.52,0,0,1-3.52-3.52v-6.27A0,0,0,0,1,155.12,326.68Z" transform="translate(346.78 663.17) rotate(180)" style="fill:#e6e6e6"></path><path d="M116.83,326.68h49.09a0,0,0,0,1,0,0V333a3.52,3.52,0,0,1-3.52,3.52h-42a3.52,3.52,0,0,1-3.52-3.52v-6.27A0,0,0,0,1,116.83,326.68Z" transform="translate(282.75 663.17) rotate(180)" style="fill:#f5f5f5"></path><rect x="190.63" y="336.48" width="3.25" height="45.91" transform="translate(384.51 718.88) rotate(180)" style="fill:#e6e6e6"></rect><rect x="166.76" y="336.48" width="3.25" height="45.91" transform="translate(336.76 718.88) rotate(180)" style="fill:#e6e6e6"></rect><rect x="141.45" y="336.48" width="3.25" height="45.91" transform="translate(286.15 718.88) rotate(180)" style="fill:#e6e6e6"></rect><rect x="117.58" y="336.48" width="3.25" height="45.91" transform="translate(238.41 718.88) rotate(180)" style="fill:#e6e6e6"></rect></g><g id="freepik--Shadow--inject-16"><ellipse id="freepik--path--inject-16" cx="250" cy="416.24" rx="193.89" ry="11.32" style="fill:#f5f5f5"></ellipse></g><g id="freepik--Character--inject-16"><path d="M291.29,142.75a.5.5,0,0,1-.06-1l16.93-2.11a.5.5,0,0,1,.12,1l-16.92,2.11Z" style="fill:#239AAC"></path><path d="M308.16,146.07h-.08l-16.81-2.87a.5.5,0,1,1,.17-1l16.81,2.88a.5.5,0,0,1-.09,1Z" style="fill:#239AAC"></path><path d="M269.69,118.67c-5.83-2.17-14.75,11.75-11,26.5,6.39-5.34,15.24-6.51,18.54-4.34,4.78,3.15.74,3,3.21,9.67s23.82,5.39,15.54-9.5C308.51,115.61,273.72,103.61,269.69,118.67Z" style="fill:#263238"></path><path d="M228.83,173.55l2.24,1.91a3.39,3.39,0,0,1,1.19,2.9l-.45,5.16a6.36,6.36,0,0,1-3.12,4.95l-1.11.65c-3.93-2.91-6-9-6-9l-.79-1.66a2.86,2.86,0,0,1,1.26-3.85l3.27-1.61A3.28,3.28,0,0,1,228.83,173.55Z" style="fill:#b55b52"></path><path d="M263.45,181c-.31.79-.54,1.34-.81,2s-.55,1.21-.82,1.8c-.56,1.19-1.17,2.34-1.78,3.49a74.86,74.86,0,0,1-4.1,6.66c-.74,1.08-1.52,2.14-2.31,3.19s-1.64,2.06-2.53,3.06a58.53,58.53,0,0,1-5.66,5.7l-.27.25a4.78,4.78,0,0,1-.78.58,9.84,9.84,0,0,1-3.8,1.29,9.07,9.07,0,0,1-4.27-.51,11.28,11.28,0,0,1-4.68-3.5,17.87,17.87,0,0,1-2.16-3.38,30.63,30.63,0,0,1-1.37-3.19,44.9,44.9,0,0,1-1.71-6.17,46.72,46.72,0,0,1-.85-6.2,3.51,3.51,0,0,1,6.6-1.89l.1.18c.85,1.59,1.71,3.32,2.59,4.92s1.78,3.18,2.72,4.59a23,23,0,0,0,1.4,1.93,8.43,8.43,0,0,0,1.29,1.31c.33.27.61.2,0-.14a2.92,2.92,0,0,0-1.41-.23,3.4,3.4,0,0,0-1.09.28l-1.06.82c1.4-1.6,2.77-3.23,4-5s2.49-3.57,3.63-5.46,2.25-3.79,3.28-5.75c.51-1,1-2,1.5-2.95l.7-1.47.63-1.34.16-.35A7,7,0,0,1,263.45,181Z" style="fill:#b55b52"></path><path d="M320.68,387.18c1.55-7,1.16-8.66,2.42-12.5a25.2,25.2,0,0,1,2.82-6.19c1.1-2.05-1-3.68-3.08-3.94-1.63-.21-3.35-.28-5.35-.6L313.17,372c2.28,2.9,4.1,10,3.3,15.38C315.9,391.27,320.06,390,320.68,387.18Z" style="fill:#263238"></path><path d="M251.05,220.4s-1.15,59.27-2.36,92.11c-3.18,19.44,63.65,59.9,63.65,59.9,1.43.68,5.21-6.73,5.15-8.46,0,0-28.73-42.33-45.86-52.55,18.95-52.45,13.8-91,13.8-91Z" style="fill:#239AAC"></path><path d="M285.43,220.4H263.74s4.34,57.94,9.17,87.36C290.34,257.18,285.43,220.4,285.43,220.4Z" style="opacity:0.2"></path><path d="M298.84,338.81c-8.23-10.27-17.75-21-25.4-26.24,1.09,10.16,2.21,22.42,3.07,35,7.19,5.69,14.65,11,20.89,15.21A173,173,0,0,0,298.84,338.81Z" style="opacity:0.2"></path><path d="M308.14,370.94c.88.63,2.42,1.75,3.54,2.62a.85.85,0,0,0,1.19-.14,59.3,59.3,0,0,0,5.59-9.39.85.85,0,0,0-.17-1l-2.8-2.78a.85.85,0,0,0-1.31.13l-6.24,9.38A.84.84,0,0,0,308.14,370.94Z" style="fill:#239AAC"></path><path d="M308.14,370.94c.88.63,2.42,1.75,3.54,2.62a.85.85,0,0,0,1.19-.14,59.3,59.3,0,0,0,5.59-9.39.85.85,0,0,0-.17-1l-2.8-2.78a.85.85,0,0,0-1.31.13l-6.24,9.38A.84.84,0,0,0,308.14,370.94Z" style="fill:#fff;opacity:0.30000000000000004"></path><path d="M275.93,421.07c7.31,0,6.79-.11,10.91-.25,3.53-.12,4.33.31,7.16.25,2.36-.05,2.48-2.31,2-4.91-.24-1.3-.66-2.9-1-5h-11.1a12.36,12.36,0,0,1-9.13,5.59C270.8,417.27,273,421.07,275.93,421.07Z" style="fill:#263238"></path><path d="M261.36,220.4s11.48,63.2,15.69,91.85c4.41,30.08,9.86,78.91,6.86,98.9,1.62,1,7.64,1.05,11.1,0,0,0,17.55-68.61,2.89-97.57,8.34-70.4-4-74.07-7.4-93.18Z" style="fill:#239AAC"></path><path d="M283.45,407a28.14,28.14,0,0,1-.76,4.1.77.77,0,0,0,.63,1c4,.65,10-.29,11.87-.62a1,1,0,0,0,.75-.71l.95-3.84a.77.77,0,0,0-.77-1l-11.76.23A1,1,0,0,0,283.45,407Z" style="fill:#239AAC"></path><path d="M283.45,407a28.14,28.14,0,0,1-.76,4.1.77.77,0,0,0,.63,1c4,.65,10-.29,11.87-.62a1,1,0,0,0,.75-.71l.95-3.84a.77.77,0,0,0-.77-1l-11.76.23A1,1,0,0,0,283.45,407Z" style="fill:#fff;opacity:0.30000000000000004"></path><path d="M260.35,165c-7.28,1.37-8.82,4.35-14.18,15.41,1.62,7.27,10.32,13.66,10.32,13.66S272.36,174.45,260.35,165Z" style="fill:#263238"></path><path d="M248.81,178.82c-.12,3.88.26,8.57,1.13,17.8.59,7.82-1.36,22.69,1.11,23.78H290.5c.79-11.2.5-18.91,7.59-43.92a9.2,9.2,0,0,0-7.87-12c-1.57-.16-3.22-.29-4.93-.37a124.37,124.37,0,0,0-17.91,0c-1.95.17-4,.42-5.9.69A14.85,14.85,0,0,0,248.81,178.82Z" style="fill:#263238"></path><path d="M284,144c-1.56,5.77-3.48,16.33.27,20.18,0,0-5.46-.82-17.05,6.35-3.36-4.82-.87-6.35-.87-6.35,6.55-1.54,6.74-6.31,5.95-10.79Z" style="fill:#b55b52"></path><path d="M269.69,169.05c3.82.55,5,6.31,5,6.31s9.17-6.48,12.07-11.06a36.91,36.91,0,0,1-3.35-2.13S271.92,166.85,269.69,169.05Z" style="fill:#fff"></path><path d="M266.06,168.44s-3,.65-4.55,4.87c-.87-8.41,3.12-9.18,3.12-9.18a4.84,4.84,0,0,1,3.45-.5A4.1,4.1,0,0,0,266.06,168.44Z" style="fill:#fff"></path><path d="M279.27,147.81l-6.93,5.55a18.14,18.14,0,0,1,.32,3.18c2.48-.36,6.06-3,6.51-5.62A8.84,8.84,0,0,0,279.27,147.81Z" style="opacity:0.2"></path><path d="M291.74,136.31c-3.39,8.84-4.64,12.65-10.67,16.08-9.07,5.16-19.23-.31-18.55-9.84.61-8.57,6.07-21.58,16.06-22.87A12.12,12.12,0,0,1,291.74,136.31Z" style="fill:#b55b52"></path><path d="M269.69,119.89c.72,4.75,15.36,9.43,18.14,8.86-3.5,3.11-1.11,16.86,6.33,12.64C296.11,125.33,286.73,111.06,269.69,119.89Z" style="fill:#263238"></path><path d="M279,135.52a4.81,4.81,0,0,1,3.62.39A9.22,9.22,0,0,1,279,135.52Z" style="opacity:0.2"></path><path d="M278.93,136.39a3.91,3.91,0,0,1,3.08,1.16A7.65,7.65,0,0,1,278.93,136.39Z" style="opacity:0.2"></path><path d="M277,135.18c-.25.75-.85,1.26-1.34,1.13s-.68-.84-.43-1.59.86-1.27,1.35-1.14S277.22,134.42,277,135.18Z" style="fill:#263238"></path><path d="M267.71,132.91c-.25.76-.85,1.26-1.34,1.14s-.68-.85-.43-1.6.86-1.26,1.35-1.13S268,132.16,267.71,132.91Z" style="fill:#263238"></path><path d="M267.49,131.41l-1.62-1S266.31,132.08,267.49,131.41Z" style="fill:#263238"></path><path d="M269.86,134.82a23.67,23.67,0,0,1-4.28,4.12,3.2,3.2,0,0,0,2.5,1.2Z" style="fill:#a02724"></path><path d="M271.45,144.05a8.93,8.93,0,0,1-1.29-.22.21.21,0,0,1-.15-.28.25.25,0,0,1,.29-.17,6.59,6.59,0,0,0,5.62-1.07.23.23,0,0,1,.33,0,.24.24,0,0,1,0,.33A7,7,0,0,1,271.45,144.05Z" style="fill:#263238"></path><path d="M291.78,143.87a6.49,6.49,0,0,1-4.49,2.74c-2.23.19-2.73-2.42-1.6-4.74,1-2.09,3.42-4.7,5.41-3.81S293.23,141.91,291.78,143.87Z" style="fill:#b55b52"></path><path d="M280.1,131.33a.46.46,0,0,1-.26-.25,3.43,3.43,0,0,0-2.39-2.17.41.41,0,0,1-.34-.52.5.5,0,0,1,.57-.37,4.28,4.28,0,0,1,3.05,2.71.47.47,0,0,1-.29.59A.5.5,0,0,1,280.1,131.33Z" style="fill:#263238"></path><path d="M266.11,127.91a.4.4,0,0,1-.27-.19.45.45,0,0,1,.17-.62,4.91,4.91,0,0,1,4.29-.52.43.43,0,0,1,.2.6.5.5,0,0,1-.63.23,3.93,3.93,0,0,0-3.39.44A.49.49,0,0,1,266.11,127.91Z" style="fill:#263238"></path><path d="M276.74,133.68l-1.62-1S275.56,134.34,276.74,133.68Z" style="fill:#263238"></path><path d="M301.88,174.68c.35.77.59,1.32.86,1.95s.49,1.23.73,1.85c.47,1.22.87,2.46,1.27,3.7a72.57,72.57,0,0,1,1.94,7.58c.27,1.28.48,2.58.69,3.87s.35,2.62.45,3.94a59.75,59.75,0,0,1,.17,8V206a5.16,5.16,0,0,1-.13,1,9.84,9.84,0,0,1-1.71,3.63,8.94,8.94,0,0,1-3.34,2.72,11.21,11.21,0,0,1-5.76.93,17.47,17.47,0,0,1-3.93-.8,30.11,30.11,0,0,1-3.25-1.22,44.25,44.25,0,0,1-5.62-3.06,47.71,47.71,0,0,1-5.06-3.7,3.51,3.51,0,0,1,3.23-6.06l.2.06c1.74.49,3.58,1.07,5.34,1.55s3.52.93,5.19,1.23c.83.15,1.63.28,2.36.34a9,9,0,0,0,1.84,0c.42,0,.56-.3-.1-.09a2.65,2.65,0,0,0-1.14.85,3.15,3.15,0,0,0-.56,1l-.15,1.33c-.17-2.12-.4-4.24-.78-6.38s-.84-4.27-1.4-6.4-1.17-4.25-1.87-6.35c-.34-1-.71-2.1-1.08-3.13l-.56-1.53-.53-1.38-.14-.36a7,7,0,0,1,12.85-5.4Z" style="fill:#b55b52"></path><path d="M290.58,164.57c6.43,1,9,2.94,14.25,15.85-2.38,4.81-13.54,9.42-13.54,9.42S282.55,174,290.58,164.57Z" style="fill:#263238"></path><path d="M220,294.58l-1.71-7.28c-4.3-18.35.86-36.89,5.85-54.81,4.34-15.56,8.43-30.25,5.47-42.84l2.27-.53c3.09,13.17-1.08,28.14-5.5,44-4.91,17.64-10,35.88-5.82,53.65l1.71,7.28Z" style="fill:#239AAC"></path><circle cx="146.34" cy="182.95" r="71.43" transform="translate(-47.69 314.24) rotate(-85.43)" style="fill:#239AAC"></circle><circle cx="146.34" cy="182.95" r="71.43" transform="translate(-47.69 314.24) rotate(-85.43)" style="opacity:0.2"></circle><path d="M154.08,240.85a33.46,33.46,0,1,1,32.58-41.11h0a33.49,33.49,0,0,1-32.58,41.11Zm0-64.61a31.14,31.14,0,1,0,30.31,24h0A31.19,31.19,0,0,0,154.08,176.24Z" style="fill:#fff"></path><path d="M148.47,121.34l24.62,104.93a13.63,13.63,0,0,0,16.38,10.15l71.44-16.76a13.68,13.68,0,0,0,10.49-12.43A97.23,97.23,0,0,0,159.62,104.76,13.63,13.63,0,0,0,148.47,121.34Z" style="fill:#239AAC"></path><path d="M148.47,121.34l24.62,104.93a13.63,13.63,0,0,0,16.38,10.15l71.44-16.76a13.68,13.68,0,0,0,10.49-12.43A97.23,97.23,0,0,0,159.62,104.76,13.63,13.63,0,0,0,148.47,121.34Z" style="fill:#fff;opacity:0.4"></path><path d="M238.11,312,170.6,327.79a3.59,3.59,0,0,1-4.1-2.07l-6-13.92a3.57,3.57,0,0,1,2.47-4.88l72.67-17.06a3.58,3.58,0,0,1,4.38,3.29l.83,15.13A3.59,3.59,0,0,1,238.11,312Z" style="fill:#239AAC"></path><path d="M233.21,323l-53.33,12.52a3.58,3.58,0,0,1-4.13-2.16l-4.83-12.08a3.57,3.57,0,0,1,2.5-4.8L230.53,303a3.56,3.56,0,0,1,4.37,3.18l1.06,13A3.57,3.57,0,0,1,233.21,323Z" style="fill:#239AAC"></path><path d="M227.93,333.21l-38.76,9.1a3.58,3.58,0,0,1-4.17-2.26l-3.82-10.5a3.56,3.56,0,0,1,2.54-4.69l41.33-9.7a3.57,3.57,0,0,1,4.37,3.08l1.24,11.1A3.55,3.55,0,0,1,227.93,333.21Z" style="fill:#239AAC"></path><path d="M207,195a31.17,31.17,0,0,0-37.42-23.2l-.53-2.26a33.49,33.49,0,0,1,40.22,24.93Z" style="fill:#239AAC"></path><polygon points="165.1 115.73 130.7 127.5 130.19 130.34 133.13 132.36 132.57 135.46 135.07 138.01 135.05 140.78 169.04 129.14 170.04 126.35 167.03 123.83 167.33 120.53 164.72 118.74 165.1 115.73" style="fill:#fff;opacity:0.2"></polygon><path d="M199.28,230.23a33.49,33.49,0,1,1,7.71-.89A33.8,33.8,0,0,1,199.28,230.23Zm.12-64.62A31.2,31.2,0,0,0,169,203.87a31.13,31.13,0,1,0,60.62-14.22h0a31.17,31.17,0,0,0-30.25-24Z" style="fill:#239AAC"></path><polygon points="188.19 208.69 210.09 282.87 125.92 307.73 101.07 223.56 154.23 207.86 188.19 208.69" style="fill:#239AAC"></polygon><polygon points="188.19 208.69 210.09 282.87 125.92 307.73 101.07 223.56 154.23 207.86 188.19 208.69" style="fill:#fff;opacity:0.8"></polygon><polygon points="188.19 208.69 169.35 221.42 154.23 207.86 188.19 208.69" style="fill:#239AAC"></polygon><path d="M128,225.63a19.18,19.18,0,0,0,1.74,4.14,21,21,0,0,0,2.72,3.64c2.09,2.28,4.64,4.34,7.13,6.55a84.29,84.29,0,0,1,7.23,7c1.14,1.25,2.22,2.55,3.27,3.88s2,2.58,3.06,3.85c4.11,5.07,8.62,9.87,12.67,15.25a61.78,61.78,0,0,1,5.48,8.57,43.3,43.3,0,0,1,3.64,9.57,1.55,1.55,0,0,1-3,.87h0a54.19,54.19,0,0,0-9.3-16.59c-4-5.09-8.37-10-12.48-15.28-1-1.29-2.05-2.67-3-3.93s-2-2.5-3.09-3.69a83.29,83.29,0,0,0-6.9-6.77c-2.43-2.18-5-4.27-7.4-6.85a25.19,25.19,0,0,1-3.17-4.29,22.84,22.84,0,0,1-2.07-5,1.82,1.82,0,0,1,3.49-1Z" style="fill:#239AAC"></path><path d="M208.52,353.66A15.89,15.89,0,1,1,224,334.13h0a15.93,15.93,0,0,1-15.5,19.53Zm.06-29.47a13.92,13.92,0,0,0-3.13.36,13.57,13.57,0,1,0,16.31,10.11h0a13.58,13.58,0,0,0-13.18-10.47Z" style="fill:#239AAC"></path><path d="M272.49,194.41l2.93-.28a3.45,3.45,0,0,1,2.92,1.16l3.39,3.9a6.38,6.38,0,0,1,1.39,5.7l-.3,1.24c-4.83.8-10.64-1.89-10.64-1.89l-1.74-.58a2.85,2.85,0,0,1-1.89-3.58l1.11-3.47A3.31,3.31,0,0,1,272.49,194.41Z" style="fill:#b55b52"></path></g><g id="freepik--Thought--inject-16"><circle cx="338.56" cy="103.61" r="10.85" transform="translate(182.05 421.2) rotate(-80.78)" style="fill:#fff"></circle><path d="M338.56,115.63a12,12,0,1,1,12-12A12,12,0,0,1,338.56,115.63Zm0-21.71a9.69,9.69,0,1,0,9.69,9.69A9.7,9.7,0,0,0,338.56,93.92Z" style="fill:#239AAC"></path><circle cx="312.77" cy="115.95" r="6.09" style="fill:#fff"></circle><path d="M312.77,123.21A7.26,7.26,0,1,1,320,116,7.26,7.26,0,0,1,312.77,123.21Zm0-12.19A4.93,4.93,0,1,0,317.7,116,4.93,4.93,0,0,0,312.77,111Z" style="fill:#239AAC"></path><path d="M429.38,114.1a28.54,28.54,0,0,0-53.79-5.24,13.51,13.51,0,0,0-15.4,17.47,23,23,0,0,0,27.68,36.42A23,23,0,0,0,419.26,159a22.44,22.44,0,0,0,4.44.44,23,23,0,0,0,5.68-45.36Z" style="fill:#fff"></path><path d="M401.59,168.44a24,24,0,0,1-13.79-4.31A24.19,24.19,0,0,1,358.87,126a14.89,14.89,0,0,1-.52-3.86A14.71,14.71,0,0,1,373,107.45a14.91,14.91,0,0,1,1.87.12,29.71,29.71,0,0,1,55.44,5.59,24.2,24.2,0,0,1-6.65,47.46,24.53,24.53,0,0,1-4-.33A24.14,24.14,0,0,1,401.59,168.44Zm-13.72-6.85a1.14,1.14,0,0,1,.69.22,21.87,21.87,0,0,0,29.81-3.53,1.14,1.14,0,0,1,1.11-.4,21.57,21.57,0,0,0,4.22.42,21.87,21.87,0,0,0,5.4-43.07,1.18,1.18,0,0,1-.85-.86,27.38,27.38,0,0,0-51.6-5,1.17,1.17,0,0,1-1.28.66,12.51,12.51,0,0,0-2.33-.23,12.38,12.38,0,0,0-12.36,12.37,12.57,12.57,0,0,0,.61,3.83,1.17,1.17,0,0,1-.3,1.2,21.67,21.67,0,0,0-6.71,15.76,21.88,21.88,0,0,0,33,18.82A1.14,1.14,0,0,1,387.87,161.59Z" style="fill:#239AAC"></path><path d="M417.81,123.4a17.79,17.79,0,0,1-3.94,11.2,22.46,22.46,0,0,0-3.43,5.86,4.65,4.65,0,0,1-4.3,2.95h-12.5a4.64,4.64,0,0,1-4.3-2.94,24.25,24.25,0,0,0-3.48-6,17.75,17.75,0,0,1-3.79-12.15,17.89,17.89,0,0,1,35.74,1.11Z" style="fill:#fff"></path><path d="M406.14,144.57h-12.5a5.77,5.77,0,0,1-5.38-3.67,22.86,22.86,0,0,0-3.32-5.74,19.06,19.06,0,1,1,29.84.16,21.34,21.34,0,0,0-3.26,5.57A5.77,5.77,0,0,1,406.14,144.57Zm-6.2-37.9c-.41,0-.82,0-1.23,0a16.72,16.72,0,0,0-11.94,27,25.7,25.7,0,0,1,3.65,6.32,3.47,3.47,0,0,0,3.22,2.21h12.5a3.47,3.47,0,0,0,3.22-2.22,23.82,23.82,0,0,1,3.61-6.16,16.54,16.54,0,0,0,3.68-10.47,16.78,16.78,0,0,0-5.32-12.24A16.58,16.58,0,0,0,399.94,106.67Z" style="fill:#239AAC"></path><rect x="393.1" y="146.32" width="13.65" height="3.6" rx="1.41" style="fill:#239AAC"></rect><rect x="395.1" y="151.16" width="9.66" height="3.6" rx="1.41" style="fill:#239AAC"></rect></g></svg>